G04*
G04 #@! TF.GenerationSoftware,Altium Limited,Altium Designer,25.8.1 (18)*
G04*
G04 Layer_Color=16711935*
%FSLAX25Y25*%
%MOIN*%
G70*
G04*
G04 #@! TF.SameCoordinates,1680C5CC-34A3-4739-99AB-EBD8F4F80A3C*
G04*
G04*
G04 #@! TF.FilePolarity,Negative*
G04*
G01*
G75*
%ADD31O,0.06800X0.08800*%
%ADD32C,0.06600*%
%ADD33C,0.06800*%
%ADD34C,0.11430*%
D31*
X216063Y84016D02*
D03*
Y74016D02*
D03*
X206063Y84016D02*
D03*
Y74016D02*
D03*
X196063Y84016D02*
D03*
Y74016D02*
D03*
X186063Y84016D02*
D03*
Y74016D02*
D03*
X176063Y84016D02*
D03*
Y74016D02*
D03*
X166063Y84016D02*
D03*
Y74016D02*
D03*
X156063Y84016D02*
D03*
Y74016D02*
D03*
X146063Y84016D02*
D03*
Y74016D02*
D03*
X136063Y84016D02*
D03*
Y74016D02*
D03*
X126063Y84016D02*
D03*
Y74016D02*
D03*
X116063Y84016D02*
D03*
Y74016D02*
D03*
X106063Y84016D02*
D03*
Y74016D02*
D03*
X100394Y32325D02*
D03*
Y42325D02*
D03*
X110394Y32325D02*
D03*
Y42325D02*
D03*
X120394Y32325D02*
D03*
Y42325D02*
D03*
X130394Y32325D02*
D03*
Y42325D02*
D03*
X140394Y32325D02*
D03*
Y42325D02*
D03*
X150394Y32325D02*
D03*
Y42325D02*
D03*
X160394Y32325D02*
D03*
Y42325D02*
D03*
X170394Y32325D02*
D03*
Y42325D02*
D03*
X180394Y32325D02*
D03*
Y42325D02*
D03*
X190394Y32325D02*
D03*
Y42325D02*
D03*
X200394Y32325D02*
D03*
Y42325D02*
D03*
X210394Y32325D02*
D03*
Y42325D02*
D03*
D32*
X337402Y36876D02*
D03*
X347402D02*
D03*
X337402Y26876D02*
D03*
X347402D02*
D03*
D33*
X420315Y69961D02*
D03*
Y99961D02*
D03*
X390315Y79961D02*
D03*
Y69961D02*
D03*
Y99961D02*
D03*
Y89961D02*
D03*
D03*
Y99961D02*
D03*
Y69961D02*
D03*
Y79961D02*
D03*
X420315Y99961D02*
D03*
Y69961D02*
D03*
X390315Y209961D02*
D03*
Y219961D02*
D03*
Y189961D02*
D03*
Y199961D02*
D03*
X420315Y219961D02*
D03*
Y189961D02*
D03*
Y149961D02*
D03*
Y179961D02*
D03*
X390315Y159961D02*
D03*
Y149961D02*
D03*
Y179961D02*
D03*
Y169961D02*
D03*
X436850Y139961D02*
D03*
Y109961D02*
D03*
X406850Y129961D02*
D03*
Y139961D02*
D03*
Y109961D02*
D03*
Y119961D02*
D03*
X420315Y109961D02*
D03*
Y139961D02*
D03*
X390315Y119961D02*
D03*
Y109961D02*
D03*
Y139961D02*
D03*
Y129961D02*
D03*
X436850Y99961D02*
D03*
Y69961D02*
D03*
X406850Y89961D02*
D03*
Y99961D02*
D03*
Y69961D02*
D03*
Y79961D02*
D03*
X420315Y269961D02*
D03*
Y299961D02*
D03*
X390315Y279961D02*
D03*
Y269961D02*
D03*
Y299961D02*
D03*
Y289961D02*
D03*
X406850Y239961D02*
D03*
Y229961D02*
D03*
Y259961D02*
D03*
Y249961D02*
D03*
X436850Y229961D02*
D03*
Y259961D02*
D03*
X420315Y229961D02*
D03*
Y259961D02*
D03*
X390315Y239961D02*
D03*
Y229961D02*
D03*
Y259961D02*
D03*
Y249961D02*
D03*
X436850Y219961D02*
D03*
Y189961D02*
D03*
X406850Y209961D02*
D03*
Y219961D02*
D03*
Y189961D02*
D03*
Y199961D02*
D03*
X390315Y289961D02*
D03*
Y299961D02*
D03*
Y269961D02*
D03*
Y279961D02*
D03*
X420315Y299961D02*
D03*
Y269961D02*
D03*
X406850Y239961D02*
D03*
Y229961D02*
D03*
Y259961D02*
D03*
Y249961D02*
D03*
X436850Y229961D02*
D03*
Y259961D02*
D03*
X390315Y249961D02*
D03*
Y259961D02*
D03*
Y229961D02*
D03*
Y239961D02*
D03*
X420315Y259961D02*
D03*
Y229961D02*
D03*
X406850Y199961D02*
D03*
Y189961D02*
D03*
Y219961D02*
D03*
Y209961D02*
D03*
X436850Y189961D02*
D03*
Y219961D02*
D03*
X420315Y189961D02*
D03*
Y219961D02*
D03*
X390315Y199961D02*
D03*
Y189961D02*
D03*
Y219961D02*
D03*
Y209961D02*
D03*
X406850Y159961D02*
D03*
Y149961D02*
D03*
Y179961D02*
D03*
Y169961D02*
D03*
X436850Y149961D02*
D03*
Y179961D02*
D03*
X420315Y149961D02*
D03*
Y179961D02*
D03*
X390315Y159961D02*
D03*
Y149961D02*
D03*
Y179961D02*
D03*
Y169961D02*
D03*
X406850Y119961D02*
D03*
Y109961D02*
D03*
Y139961D02*
D03*
Y129961D02*
D03*
X436850Y109961D02*
D03*
Y139961D02*
D03*
X420315Y109961D02*
D03*
Y139961D02*
D03*
X390315Y119961D02*
D03*
Y109961D02*
D03*
Y139961D02*
D03*
Y129961D02*
D03*
X406850Y79961D02*
D03*
Y69961D02*
D03*
Y99961D02*
D03*
Y89961D02*
D03*
X436850Y69961D02*
D03*
Y99961D02*
D03*
Y179961D02*
D03*
Y149961D02*
D03*
X406850Y169961D02*
D03*
Y179961D02*
D03*
Y149961D02*
D03*
Y159961D02*
D03*
X436850Y299961D02*
D03*
Y269961D02*
D03*
X406850Y289961D02*
D03*
Y299961D02*
D03*
Y269961D02*
D03*
Y279961D02*
D03*
D03*
Y269961D02*
D03*
Y299961D02*
D03*
Y289961D02*
D03*
X436850Y269961D02*
D03*
Y299961D02*
D03*
X279685Y26876D02*
D03*
X269685D02*
D03*
X279685Y36876D02*
D03*
X269685D02*
D03*
D34*
X19685Y374016D02*
D03*
Y19685D02*
D03*
M02*
