G04*
G04 #@! TF.GenerationSoftware,Altium Limited,Altium Designer,25.8.1 (18)*
G04*
G04 Layer_Color=8421504*
%FSLAX25Y25*%
%MOIN*%
G70*
G04*
G04 #@! TF.SameCoordinates,1620A4E7-F276-4B99-84E7-C8029B0486A7*
G04*
G04*
G04 #@! TF.FilePolarity,Positive*
G04*
G01*
G75*
%ADD20R,0.05000X0.15512*%
%ADD21R,0.03150X0.03150*%
%ADD22R,0.03937X0.03543*%
%ADD23O,0.03347X0.01575*%
G04:AMPARAMS|DCode=24|XSize=19.68mil|YSize=35.43mil|CornerRadius=3.25mil|HoleSize=0mil|Usage=FLASHONLY|Rotation=90.000|XOffset=0mil|YOffset=0mil|HoleType=Round|Shape=RoundedRectangle|*
%AMROUNDEDRECTD24*
21,1,0.01968,0.02894,0,0,90.0*
21,1,0.01319,0.03543,0,0,90.0*
1,1,0.00650,0.01447,0.00659*
1,1,0.00650,0.01447,-0.00659*
1,1,0.00650,-0.01447,-0.00659*
1,1,0.00650,-0.01447,0.00659*
%
%ADD24ROUNDEDRECTD24*%
%ADD25R,0.05512X0.03937*%
%ADD26R,0.03543X0.02756*%
D20*
X279685Y44120D02*
D03*
X269685D02*
D03*
X279685Y19632D02*
D03*
X269685D02*
D03*
D21*
X248976Y80276D02*
D03*
Y73976D02*
D03*
X334803Y80276D02*
D03*
Y73976D02*
D03*
X335098Y280177D02*
D03*
Y273878D02*
D03*
X334803Y252421D02*
D03*
Y258720D02*
D03*
Y234705D02*
D03*
Y241004D02*
D03*
X334650Y213094D02*
D03*
Y219394D02*
D03*
X249272Y273878D02*
D03*
Y280177D02*
D03*
X248976Y258720D02*
D03*
Y252421D02*
D03*
Y241004D02*
D03*
Y234705D02*
D03*
X248823Y219394D02*
D03*
Y213094D02*
D03*
X248976Y193366D02*
D03*
Y199665D02*
D03*
X248921Y172150D02*
D03*
Y178449D02*
D03*
X248976Y153898D02*
D03*
Y160197D02*
D03*
Y139331D02*
D03*
Y133031D02*
D03*
Y116201D02*
D03*
Y122500D02*
D03*
Y92874D02*
D03*
Y99173D02*
D03*
X334803Y193366D02*
D03*
Y199665D02*
D03*
X334748Y172150D02*
D03*
Y178449D02*
D03*
X334803Y153898D02*
D03*
Y160197D02*
D03*
Y133031D02*
D03*
Y139331D02*
D03*
Y116201D02*
D03*
Y122500D02*
D03*
Y92874D02*
D03*
Y99173D02*
D03*
X248976Y298484D02*
D03*
Y292185D02*
D03*
X334803Y298484D02*
D03*
Y292185D02*
D03*
X372441Y19685D02*
D03*
Y25984D02*
D03*
D22*
X254882Y73976D02*
D03*
Y80276D02*
D03*
X261575Y73976D02*
D03*
Y80276D02*
D03*
X282476Y80268D02*
D03*
Y73969D02*
D03*
X307244Y80276D02*
D03*
Y73976D02*
D03*
X312756Y80276D02*
D03*
Y73976D02*
D03*
X341496Y73976D02*
D03*
Y80276D02*
D03*
X347795Y73976D02*
D03*
Y80276D02*
D03*
X353701Y73976D02*
D03*
Y80276D02*
D03*
X367087Y80276D02*
D03*
Y73976D02*
D03*
X372598Y80276D02*
D03*
Y73976D02*
D03*
X341791Y280177D02*
D03*
Y273878D02*
D03*
X341496Y252421D02*
D03*
Y258720D02*
D03*
Y234705D02*
D03*
Y241004D02*
D03*
X341342Y213094D02*
D03*
Y219394D02*
D03*
X348091Y273878D02*
D03*
Y280177D02*
D03*
X347795Y252421D02*
D03*
Y258720D02*
D03*
Y241004D02*
D03*
Y234705D02*
D03*
X347642Y213094D02*
D03*
Y219394D02*
D03*
X313051Y273878D02*
D03*
Y280177D02*
D03*
X312756Y252421D02*
D03*
Y258720D02*
D03*
Y241004D02*
D03*
Y234705D02*
D03*
X312602Y213094D02*
D03*
Y219394D02*
D03*
X372598Y258720D02*
D03*
Y252421D02*
D03*
Y241004D02*
D03*
Y234705D02*
D03*
X372445Y213094D02*
D03*
Y219394D02*
D03*
X255177Y273878D02*
D03*
Y280177D02*
D03*
X254882Y258720D02*
D03*
Y252421D02*
D03*
Y234705D02*
D03*
Y241004D02*
D03*
X254728Y213094D02*
D03*
Y219394D02*
D03*
X372598Y193366D02*
D03*
Y199665D02*
D03*
X372543Y172150D02*
D03*
Y178449D02*
D03*
X372598Y153898D02*
D03*
Y160197D02*
D03*
Y133031D02*
D03*
Y139331D02*
D03*
Y116201D02*
D03*
Y122500D02*
D03*
Y92874D02*
D03*
Y99173D02*
D03*
X254882Y199665D02*
D03*
Y193366D02*
D03*
X254827Y178449D02*
D03*
Y172150D02*
D03*
X254882Y160197D02*
D03*
Y153898D02*
D03*
Y139331D02*
D03*
Y133031D02*
D03*
Y122500D02*
D03*
Y116201D02*
D03*
Y99173D02*
D03*
Y92874D02*
D03*
X341496Y199665D02*
D03*
Y193366D02*
D03*
X341441Y178449D02*
D03*
Y172150D02*
D03*
X341496Y160197D02*
D03*
Y153898D02*
D03*
Y139331D02*
D03*
Y133031D02*
D03*
Y122500D02*
D03*
Y116201D02*
D03*
Y99173D02*
D03*
Y92874D02*
D03*
X347795Y199665D02*
D03*
Y193366D02*
D03*
X347740Y178449D02*
D03*
Y172150D02*
D03*
X347795Y160197D02*
D03*
Y153898D02*
D03*
Y139331D02*
D03*
Y133031D02*
D03*
Y122500D02*
D03*
Y116201D02*
D03*
Y99173D02*
D03*
Y92874D02*
D03*
X312756Y193366D02*
D03*
Y199665D02*
D03*
X312701Y172150D02*
D03*
Y178449D02*
D03*
X312756Y153898D02*
D03*
Y160197D02*
D03*
Y133031D02*
D03*
Y139331D02*
D03*
Y116201D02*
D03*
Y122500D02*
D03*
Y92874D02*
D03*
Y99173D02*
D03*
X282476Y252413D02*
D03*
Y258713D02*
D03*
X282480Y240996D02*
D03*
Y234697D02*
D03*
X282323Y213087D02*
D03*
Y219386D02*
D03*
X282476Y193358D02*
D03*
Y199657D02*
D03*
X282425Y172142D02*
D03*
Y178441D02*
D03*
X282476Y153890D02*
D03*
Y160189D02*
D03*
Y133024D02*
D03*
Y139323D02*
D03*
X282480Y116193D02*
D03*
Y122492D02*
D03*
X282476Y99165D02*
D03*
Y92866D02*
D03*
X261575Y252421D02*
D03*
Y258720D02*
D03*
Y241004D02*
D03*
Y234705D02*
D03*
X261421Y213094D02*
D03*
Y219394D02*
D03*
X261575Y193366D02*
D03*
Y199665D02*
D03*
X261520Y172150D02*
D03*
Y178449D02*
D03*
X261575Y153898D02*
D03*
Y160197D02*
D03*
Y133031D02*
D03*
Y139331D02*
D03*
Y116201D02*
D03*
Y122500D02*
D03*
Y99173D02*
D03*
Y92874D02*
D03*
X307244Y258720D02*
D03*
Y252421D02*
D03*
Y234705D02*
D03*
Y241004D02*
D03*
X307090Y219394D02*
D03*
Y213094D02*
D03*
X307244Y199665D02*
D03*
Y193366D02*
D03*
X307189Y178449D02*
D03*
Y172150D02*
D03*
X307244Y160197D02*
D03*
Y153898D02*
D03*
Y139331D02*
D03*
Y133031D02*
D03*
Y122500D02*
D03*
Y116201D02*
D03*
Y92874D02*
D03*
Y99173D02*
D03*
X367087Y252421D02*
D03*
Y258720D02*
D03*
Y234705D02*
D03*
Y241004D02*
D03*
X366933Y213094D02*
D03*
Y219394D02*
D03*
X367087Y199665D02*
D03*
Y193366D02*
D03*
X367032Y172150D02*
D03*
Y178449D02*
D03*
X367087Y160197D02*
D03*
Y153898D02*
D03*
Y133031D02*
D03*
Y139331D02*
D03*
Y122500D02*
D03*
Y116201D02*
D03*
Y99173D02*
D03*
Y92874D02*
D03*
X353701Y252421D02*
D03*
Y258720D02*
D03*
Y234705D02*
D03*
Y241004D02*
D03*
X353547Y213094D02*
D03*
Y219394D02*
D03*
X353701Y193366D02*
D03*
Y199665D02*
D03*
X353646Y172150D02*
D03*
Y178449D02*
D03*
X353701Y153898D02*
D03*
Y160197D02*
D03*
Y133031D02*
D03*
Y139331D02*
D03*
Y116201D02*
D03*
Y122500D02*
D03*
Y99173D02*
D03*
Y92874D02*
D03*
X282776Y273870D02*
D03*
Y280169D02*
D03*
X261870Y273878D02*
D03*
Y280177D02*
D03*
X372894Y280177D02*
D03*
Y273878D02*
D03*
X307539Y280177D02*
D03*
Y273878D02*
D03*
X367382Y280177D02*
D03*
Y273878D02*
D03*
X353996Y273878D02*
D03*
Y280177D02*
D03*
X282476Y298476D02*
D03*
Y292177D02*
D03*
X261575Y298484D02*
D03*
Y292185D02*
D03*
X372598Y292185D02*
D03*
Y298484D02*
D03*
X307244Y292185D02*
D03*
Y298484D02*
D03*
X367087Y298484D02*
D03*
Y292185D02*
D03*
X254882Y292185D02*
D03*
Y298484D02*
D03*
X341496Y292185D02*
D03*
Y298484D02*
D03*
X353701Y298484D02*
D03*
Y292185D02*
D03*
X347795Y298484D02*
D03*
Y292185D02*
D03*
X312756Y298484D02*
D03*
Y292185D02*
D03*
X372441Y38583D02*
D03*
Y32283D02*
D03*
D23*
X267386Y80268D02*
D03*
Y77709D02*
D03*
Y75150D02*
D03*
X276244Y80268D02*
D03*
Y77709D02*
D03*
Y75150D02*
D03*
X318957Y80276D02*
D03*
Y77717D02*
D03*
Y75157D02*
D03*
X327815Y80276D02*
D03*
Y77717D02*
D03*
Y75157D02*
D03*
X276539Y275051D02*
D03*
Y277610D02*
D03*
Y280169D02*
D03*
X267681Y275051D02*
D03*
Y277610D02*
D03*
Y280169D02*
D03*
X267386Y258713D02*
D03*
Y256154D02*
D03*
Y253594D02*
D03*
X276244Y258713D02*
D03*
Y256154D02*
D03*
Y253594D02*
D03*
Y235878D02*
D03*
Y238437D02*
D03*
Y240996D02*
D03*
X267386Y235878D02*
D03*
Y238437D02*
D03*
Y240996D02*
D03*
X267232Y219386D02*
D03*
Y216827D02*
D03*
Y214268D02*
D03*
X276091Y219386D02*
D03*
Y216827D02*
D03*
Y214268D02*
D03*
X318957Y280177D02*
D03*
Y277618D02*
D03*
Y275059D02*
D03*
X327815Y280177D02*
D03*
Y277618D02*
D03*
Y275059D02*
D03*
Y253602D02*
D03*
Y256161D02*
D03*
Y258720D02*
D03*
X318957Y253602D02*
D03*
Y256161D02*
D03*
Y258720D02*
D03*
Y241004D02*
D03*
Y238445D02*
D03*
Y235886D02*
D03*
X327815Y241004D02*
D03*
Y238445D02*
D03*
Y235886D02*
D03*
X327661Y214276D02*
D03*
Y216835D02*
D03*
Y219394D02*
D03*
X318803Y214276D02*
D03*
Y216835D02*
D03*
Y219394D02*
D03*
X318957Y199665D02*
D03*
Y197106D02*
D03*
Y194547D02*
D03*
X327815Y199665D02*
D03*
Y197106D02*
D03*
Y194547D02*
D03*
X327760Y173331D02*
D03*
Y175890D02*
D03*
Y178449D02*
D03*
X318902Y173331D02*
D03*
Y175890D02*
D03*
Y178449D02*
D03*
X318957Y160197D02*
D03*
Y157638D02*
D03*
Y155079D02*
D03*
X327815Y160197D02*
D03*
Y157638D02*
D03*
Y155079D02*
D03*
Y134213D02*
D03*
Y136772D02*
D03*
Y139331D02*
D03*
X318957Y134213D02*
D03*
Y136772D02*
D03*
Y139331D02*
D03*
Y122500D02*
D03*
Y119941D02*
D03*
Y117382D02*
D03*
X327815Y122500D02*
D03*
Y119941D02*
D03*
Y117382D02*
D03*
X318957Y99173D02*
D03*
Y96614D02*
D03*
Y94055D02*
D03*
X327815Y99173D02*
D03*
Y96614D02*
D03*
Y94055D02*
D03*
X276189Y173323D02*
D03*
Y175882D02*
D03*
Y178441D02*
D03*
X267331Y173323D02*
D03*
Y175882D02*
D03*
Y178441D02*
D03*
X267386Y160189D02*
D03*
Y157630D02*
D03*
Y155071D02*
D03*
X276244Y160189D02*
D03*
Y157630D02*
D03*
Y155071D02*
D03*
Y134205D02*
D03*
Y136764D02*
D03*
Y139323D02*
D03*
X267386Y134205D02*
D03*
Y136764D02*
D03*
Y139323D02*
D03*
Y122492D02*
D03*
Y119933D02*
D03*
Y117374D02*
D03*
X276244Y122492D02*
D03*
Y119933D02*
D03*
Y117374D02*
D03*
X267386Y99165D02*
D03*
Y96606D02*
D03*
Y94047D02*
D03*
X276244Y99165D02*
D03*
Y96606D02*
D03*
Y94047D02*
D03*
X267386Y199657D02*
D03*
Y197099D02*
D03*
Y194539D02*
D03*
X276244Y199657D02*
D03*
Y197099D02*
D03*
Y194539D02*
D03*
X318957Y298484D02*
D03*
Y295925D02*
D03*
Y293366D02*
D03*
X327815Y298484D02*
D03*
Y295925D02*
D03*
Y293366D02*
D03*
X276244Y293358D02*
D03*
Y295917D02*
D03*
Y298476D02*
D03*
X267386Y293358D02*
D03*
Y295917D02*
D03*
Y298476D02*
D03*
D24*
X287988Y74244D02*
D03*
Y79992D02*
D03*
Y93142D02*
D03*
Y98890D02*
D03*
X287992Y116469D02*
D03*
Y122217D02*
D03*
X287988Y133299D02*
D03*
Y139047D02*
D03*
Y154165D02*
D03*
Y159913D02*
D03*
X287937Y172417D02*
D03*
Y178165D02*
D03*
X287988Y193634D02*
D03*
Y199382D02*
D03*
X287835Y213362D02*
D03*
Y219110D02*
D03*
X287992Y234973D02*
D03*
Y240721D02*
D03*
X287988Y252689D02*
D03*
Y258437D02*
D03*
X288283Y274146D02*
D03*
Y279894D02*
D03*
X287988Y292453D02*
D03*
Y298201D02*
D03*
D25*
X294685Y80366D02*
D03*
Y73083D02*
D03*
X360394Y80768D02*
D03*
Y73484D02*
D03*
X294685Y241094D02*
D03*
Y233811D02*
D03*
X294528Y219484D02*
D03*
Y212201D02*
D03*
X360689Y280669D02*
D03*
Y273386D02*
D03*
X360394Y251929D02*
D03*
Y259213D02*
D03*
Y241496D02*
D03*
Y234213D02*
D03*
X360240Y212602D02*
D03*
Y219886D02*
D03*
X294980Y280268D02*
D03*
Y272984D02*
D03*
X294685Y251528D02*
D03*
Y258811D02*
D03*
Y192473D02*
D03*
Y199756D02*
D03*
X294630Y171256D02*
D03*
Y178539D02*
D03*
X294685Y153004D02*
D03*
Y160287D02*
D03*
Y139421D02*
D03*
Y132138D02*
D03*
Y115307D02*
D03*
Y122591D02*
D03*
Y91980D02*
D03*
Y99264D02*
D03*
X360394Y192874D02*
D03*
Y200157D02*
D03*
X360339Y178941D02*
D03*
Y171658D02*
D03*
X360394Y153406D02*
D03*
Y160689D02*
D03*
Y139823D02*
D03*
Y132539D02*
D03*
Y115709D02*
D03*
Y122992D02*
D03*
Y99665D02*
D03*
Y92382D02*
D03*
X294685Y298575D02*
D03*
Y291291D02*
D03*
X360394Y291693D02*
D03*
Y298976D02*
D03*
D26*
X301732Y79488D02*
D03*
Y73976D02*
D03*
Y92874D02*
D03*
Y98386D02*
D03*
Y234705D02*
D03*
Y240217D02*
D03*
X301579Y213094D02*
D03*
Y218606D02*
D03*
X302028Y279390D02*
D03*
Y273878D02*
D03*
X301732Y257933D02*
D03*
Y252421D02*
D03*
Y198878D02*
D03*
Y193366D02*
D03*
X301677Y172150D02*
D03*
Y177662D02*
D03*
X301732Y153898D02*
D03*
Y159409D02*
D03*
Y138543D02*
D03*
Y133031D02*
D03*
Y116201D02*
D03*
Y121713D02*
D03*
Y297697D02*
D03*
Y292185D02*
D03*
M02*
