G04*
G04 #@! TF.GenerationSoftware,Altium Limited,Altium Designer,25.8.1 (18)*
G04*
G04 Layer_Color=32896*
%FSLAX25Y25*%
%MOIN*%
G70*
G04*
G04 #@! TF.SameCoordinates,1620A4E7-F276-4B99-84E7-C8029B0486A7*
G04*
G04*
G04 #@! TF.FilePolarity,Positive*
G04*
G01*
G75*
%ADD16C,0.01000*%
G36*
X366251Y270229D02*
X357614D01*
Y299508D01*
X366251D01*
Y270229D01*
D02*
G37*
G36*
Y230309D02*
X357614D01*
Y258563D01*
X366251D01*
Y230309D01*
D02*
G37*
G36*
Y189875D02*
X357614D01*
Y219193D01*
X366251D01*
Y189875D01*
D02*
G37*
G36*
Y149659D02*
X357614D01*
Y179035D01*
X366251D01*
Y149659D01*
D02*
G37*
G36*
X366235Y111548D02*
X357598D01*
Y140847D01*
X366235D01*
Y111548D01*
D02*
G37*
G36*
X366251Y99508D02*
Y70229D01*
X357614D01*
Y99508D01*
X366251D01*
D02*
G37*
%LPC*%
G36*
X365134Y298508D02*
X358721D01*
Y293150D01*
D01*
Y295961D01*
X358731Y295883D01*
X358741Y295707D01*
X358751Y295502D01*
X358770Y295307D01*
X358809Y295111D01*
X358848Y294936D01*
Y294926D01*
X358858Y294906D01*
X358868Y294877D01*
X358877Y294838D01*
X358926Y294741D01*
X358985Y294604D01*
X359063Y294458D01*
X359170Y294301D01*
X359297Y294135D01*
X359443Y293979D01*
Y293969D01*
X359463Y293960D01*
X359522Y293911D01*
X359609Y293843D01*
X359727Y293745D01*
X359883Y293647D01*
X360058Y293550D01*
X360254Y293452D01*
X360478Y293364D01*
X360488D01*
X360507Y293355D01*
X360537Y293345D01*
X360585Y293335D01*
X360644Y293316D01*
X360722Y293296D01*
X360800Y293277D01*
X360898Y293257D01*
X361005Y293237D01*
X361112Y293218D01*
X361376Y293179D01*
X361669Y293159D01*
X361991Y293150D01*
X365134D01*
X362127D01*
X362196Y293159D01*
X362274D01*
X362459Y293179D01*
X362674Y293198D01*
X362898Y293237D01*
X363133Y293286D01*
X363357Y293355D01*
X363367D01*
X363387Y293364D01*
X363426Y293374D01*
X363474Y293394D01*
X363533Y293423D01*
X363601Y293452D01*
X363757Y293530D01*
X363943Y293628D01*
X364128Y293745D01*
X364314Y293882D01*
X364489Y294038D01*
X364499Y294057D01*
X364548Y294096D01*
X364607Y294175D01*
X364675Y294272D01*
X364763Y294409D01*
X364851Y294565D01*
X364929Y294741D01*
X365007Y294946D01*
X365017Y294965D01*
X365026Y295024D01*
X365046Y295111D01*
X365065Y295248D01*
X365094Y295404D01*
X365114Y295599D01*
X365124Y295834D01*
X365134Y296087D01*
Y298508D01*
D02*
G37*
G36*
Y292086D02*
X358721D01*
Y290788D01*
X365134D01*
Y292086D01*
D02*
G37*
G36*
X365251Y289783D02*
Y286640D01*
X365241Y286708D01*
Y286796D01*
X365231Y286903D01*
X365212Y287011D01*
X365202Y287138D01*
X365143Y287411D01*
X365075Y287704D01*
X364968Y288006D01*
X364909Y288153D01*
X364831Y288299D01*
X364821Y288309D01*
X364811Y288328D01*
X364782Y288367D01*
X364753Y288416D01*
X364714Y288484D01*
X364655Y288553D01*
X364519Y288719D01*
X364353Y288894D01*
X364148Y289080D01*
X363904Y289255D01*
X363631Y289412D01*
X363621D01*
X363592Y289431D01*
X363552Y289441D01*
X363494Y289470D01*
X363416Y289499D01*
X363328Y289529D01*
X363230Y289558D01*
X363123Y289597D01*
X362996Y289636D01*
X362860Y289665D01*
X362577Y289724D01*
X362254Y289763D01*
X361913Y289783D01*
X361815D01*
X361747Y289773D01*
X361659D01*
X361552Y289763D01*
X361444Y289743D01*
X361317Y289734D01*
X361044Y289685D01*
X360742Y289607D01*
X360439Y289509D01*
X360137Y289373D01*
X360127Y289363D01*
X360097Y289353D01*
X360058Y289324D01*
X360010Y289295D01*
X359941Y289246D01*
X359863Y289197D01*
X359697Y289060D01*
X359502Y288885D01*
X359297Y288680D01*
X359112Y288426D01*
X358936Y288143D01*
Y288133D01*
X358926Y288113D01*
X358907Y288084D01*
X358887Y288035D01*
X358858Y287967D01*
X358838Y287899D01*
X358809Y287811D01*
X358770Y287723D01*
X358741Y287616D01*
X358712Y287499D01*
X358692Y287372D01*
X358663Y287235D01*
X358624Y286942D01*
X358614Y286611D01*
Y286493D01*
X358624Y286415D01*
X358633Y286318D01*
X358643Y286201D01*
X358653Y286074D01*
X358672Y285927D01*
X358741Y285634D01*
X358829Y285322D01*
X358887Y285176D01*
X358956Y285029D01*
X359034Y284883D01*
X359121Y284756D01*
X359131Y284746D01*
X359141Y284727D01*
X359170Y284688D01*
X359209Y284649D01*
X359268Y284590D01*
X359326Y284532D01*
X359395Y284463D01*
X359483Y284395D01*
X359570Y284317D01*
X359678Y284249D01*
X359785Y284171D01*
X359912Y284102D01*
X360175Y283985D01*
X360332Y283927D01*
X360488Y283887D01*
X360732Y285176D01*
X360722D01*
X360712Y285186D01*
X360654Y285205D01*
X360566Y285234D01*
X360459Y285293D01*
X360341Y285361D01*
X360224Y285449D01*
X360097Y285556D01*
X359990Y285683D01*
X359980Y285703D01*
X359951Y285752D01*
X359902Y285830D01*
X359853Y285937D01*
X359805Y286074D01*
X359756Y286230D01*
X359727Y286415D01*
X359717Y286611D01*
Y286689D01*
X359727Y286747D01*
X359736Y286825D01*
X359746Y286903D01*
X359785Y287099D01*
X359853Y287313D01*
X359951Y287538D01*
X360010Y287645D01*
X360078Y287752D01*
X360166Y287860D01*
X360263Y287957D01*
X360273Y287967D01*
X360293Y287977D01*
X360322Y288006D01*
X360361Y288035D01*
X360420Y288074D01*
X360488Y288113D01*
X360566Y288153D01*
X360664Y288201D01*
X360771Y288250D01*
X360888Y288289D01*
X361025Y288328D01*
X361161Y288367D01*
X361317Y288397D01*
X361493Y288426D01*
X361669Y288436D01*
X361864Y288445D01*
X361874D01*
X361913D01*
X361971D01*
X362049Y288436D01*
X362147Y288426D01*
X362254Y288416D01*
X362371Y288406D01*
X362508Y288387D01*
X362781Y288328D01*
X363074Y288231D01*
X363211Y288182D01*
X363338Y288113D01*
X363465Y288035D01*
X363582Y287948D01*
X363592Y287938D01*
X363601Y287928D01*
X363631Y287899D01*
X363670Y287860D01*
X363709Y287801D01*
X363757Y287743D01*
X363816Y287674D01*
X363865Y287586D01*
X363972Y287401D01*
X364060Y287177D01*
X364099Y287050D01*
X364119Y286913D01*
X364138Y286767D01*
X364148Y286620D01*
Y286552D01*
X364138Y286474D01*
X364128Y286367D01*
X364109Y286249D01*
X364079Y286113D01*
X364040Y285966D01*
X363992Y285810D01*
X363982Y285791D01*
X363962Y285742D01*
X363933Y285664D01*
X363884Y285566D01*
X363826Y285459D01*
X363757Y285342D01*
X363689Y285225D01*
X363601Y285107D01*
X362781D01*
Y286581D01*
X361698D01*
Y283800D01*
X365251D01*
X364265D01*
X364284Y283819D01*
X364333Y283878D01*
X364402Y283965D01*
X364499Y284102D01*
X364607Y284268D01*
X364724Y284473D01*
X364841Y284707D01*
X364958Y284981D01*
Y284990D01*
X364968Y285020D01*
X364987Y285059D01*
X365007Y285117D01*
X365026Y285186D01*
X365046Y285264D01*
X365075Y285361D01*
X365104Y285469D01*
X365153Y285703D01*
X365202Y285966D01*
X365241Y286249D01*
X365251Y286542D01*
Y289783D01*
D02*
G37*
G36*
X365134Y280052D02*
Y278461D01*
X360507D01*
X360517Y278471D01*
X360537Y278490D01*
X360566Y278529D01*
X360615Y278578D01*
X360664Y278646D01*
X360722Y278724D01*
X360790Y278812D01*
X360859Y278920D01*
X360937Y279027D01*
X361015Y279154D01*
X361161Y279417D01*
X361308Y279720D01*
X361435Y280052D01*
X365134D01*
X360322D01*
Y280042D01*
X360312Y280032D01*
X360302Y280003D01*
X360293Y279964D01*
X360254Y279866D01*
X360185Y279739D01*
X360107Y279583D01*
X360000Y279408D01*
X359883Y279212D01*
X359727Y279007D01*
X359717Y278998D01*
X359707Y278978D01*
X359678Y278949D01*
X359648Y278920D01*
X359561Y278822D01*
X359434Y278695D01*
X359287Y278568D01*
X359112Y278441D01*
X358916Y278324D01*
X358702Y278236D01*
Y280052D01*
Y277231D01*
X365134D01*
Y280052D01*
D02*
G37*
G36*
X360878Y275504D02*
X360781D01*
X360712Y275494D01*
X360634Y275484D01*
X360537Y275474D01*
X360429Y275455D01*
X360312Y275435D01*
X360068Y275367D01*
X359931Y275318D01*
X359805Y275260D01*
X359668Y275191D01*
X359541Y275113D01*
X359424Y275025D01*
X359307Y274928D01*
X359297Y274918D01*
X359278Y274899D01*
X359248Y274869D01*
X359209Y274820D01*
X359170Y274762D01*
X359112Y274693D01*
X359063Y274615D01*
X359004Y274528D01*
X358946Y274430D01*
X358897Y274313D01*
X358838Y274196D01*
X358799Y274059D01*
X358760Y273922D01*
X358731Y273776D01*
X358712Y273620D01*
X358702Y273454D01*
Y273571D01*
Y271229D01*
Y273356D01*
X358712Y273288D01*
X358721Y273210D01*
X358741Y273112D01*
X358770Y273005D01*
X358799Y272888D01*
X358838Y272761D01*
X358887Y272634D01*
X358946Y272498D01*
X359024Y272371D01*
X359112Y272234D01*
X359209Y272097D01*
X359326Y271971D01*
X359463Y271853D01*
X359473Y271844D01*
X359502Y271824D01*
X359541Y271795D01*
X359609Y271756D01*
X359687Y271707D01*
X359795Y271658D01*
X359912Y271600D01*
X360058Y271541D01*
X360215Y271482D01*
X360400Y271424D01*
X360605Y271375D01*
X360829Y271326D01*
X361073Y271287D01*
X361337Y271258D01*
X361630Y271238D01*
X361942Y271229D01*
X358702D01*
X365251D01*
X362108D01*
X362225Y271238D01*
X362371Y271248D01*
X362537Y271268D01*
X362723Y271287D01*
X362918Y271307D01*
X363338Y271385D01*
X363543Y271443D01*
X363757Y271502D01*
X363953Y271580D01*
X364148Y271668D01*
X364323Y271765D01*
X364480Y271883D01*
X364489Y271892D01*
X364509Y271912D01*
X364548Y271951D01*
X364597Y272000D01*
X364655Y272068D01*
X364724Y272146D01*
X364792Y272234D01*
X364860Y272341D01*
X364938Y272459D01*
X365007Y272585D01*
X365075Y272722D01*
X365134Y272868D01*
X365182Y273034D01*
X365221Y273200D01*
X365241Y273386D01*
X365251Y273571D01*
Y273639D01*
X365241Y273698D01*
Y273757D01*
X365231Y273835D01*
X365202Y274001D01*
X365153Y274196D01*
X365085Y274401D01*
X364987Y274606D01*
X364851Y274791D01*
X364841D01*
X364831Y274811D01*
X364773Y274869D01*
X364685Y274947D01*
X364548Y275035D01*
X364382Y275133D01*
X364177Y275230D01*
X363933Y275318D01*
X363660Y275377D01*
X363523Y274186D01*
X363543D01*
X363582Y274176D01*
X363650Y274166D01*
X363728Y274147D01*
X363816Y274118D01*
X363914Y274079D01*
X363992Y274030D01*
X364070Y273971D01*
X364079Y273961D01*
X364099Y273942D01*
X364119Y273893D01*
X364148Y273844D01*
X364187Y273766D01*
X364206Y273688D01*
X364226Y273591D01*
X364236Y273483D01*
Y273464D01*
X364226Y273415D01*
X364216Y273347D01*
X364197Y273259D01*
X364148Y273161D01*
X364089Y273054D01*
X364011Y272947D01*
X363894Y272839D01*
X363875Y272829D01*
X363855Y272810D01*
X363826Y272800D01*
X363777Y272771D01*
X363728Y272751D01*
X363660Y272722D01*
X363582Y272693D01*
X363484Y272673D01*
X363387Y272644D01*
X363269Y272615D01*
X363133Y272585D01*
X362986Y272556D01*
X362821Y272537D01*
X362635Y272517D01*
X362440Y272498D01*
X362450Y272507D01*
X362459Y272517D01*
X362489Y272546D01*
X362528Y272585D01*
X362606Y272683D01*
X362703Y272820D01*
X362811Y272986D01*
X362889Y273181D01*
X362957Y273405D01*
X362967Y273532D01*
X362977Y273659D01*
Y273727D01*
X362967Y273786D01*
X362957Y273854D01*
X362947Y273922D01*
X362908Y274098D01*
X362840Y274303D01*
X362791Y274411D01*
X362733Y274528D01*
X362664Y274635D01*
X362586Y274742D01*
X362498Y274850D01*
X362401Y274957D01*
X362391Y274967D01*
X362371Y274977D01*
X362342Y275006D01*
X362293Y275045D01*
X362235Y275084D01*
X362167Y275133D01*
X362088Y275182D01*
X361991Y275230D01*
X361883Y275279D01*
X361776Y275328D01*
X361649Y275377D01*
X361513Y275416D01*
X361210Y275484D01*
X361054Y275494D01*
X360878Y275504D01*
D02*
G37*
%LPD*%
G36*
X364050Y296068D02*
X364040Y295951D01*
Y295834D01*
X364021Y295697D01*
X364011Y295580D01*
X363992Y295482D01*
Y295473D01*
X363972Y295424D01*
X363953Y295365D01*
X363933Y295297D01*
X363845Y295121D01*
X363796Y295033D01*
X363728Y294955D01*
X363718Y294946D01*
X363689Y294916D01*
X363650Y294887D01*
X363582Y294838D01*
X363494Y294780D01*
X363387Y294731D01*
X363260Y294672D01*
X363113Y294623D01*
X363104D01*
X363094Y294614D01*
X363065D01*
X363035Y294604D01*
X362938Y294584D01*
X362801Y294555D01*
X362635Y294526D01*
X362430Y294506D01*
X362196Y294497D01*
X361932Y294487D01*
X361923D01*
X361903D01*
X361864D01*
X361805D01*
X361747D01*
X361679Y294497D01*
X361513Y294506D01*
X361327Y294516D01*
X361142Y294545D01*
X360956Y294575D01*
X360800Y294623D01*
X360781Y294633D01*
X360732Y294643D01*
X360664Y294672D01*
X360576Y294711D01*
X360468Y294770D01*
X360371Y294828D01*
X360263Y294897D01*
X360175Y294985D01*
X360166Y294994D01*
X360137Y295024D01*
X360097Y295082D01*
X360049Y295150D01*
X360000Y295229D01*
X359951Y295336D01*
X359912Y295453D01*
X359873Y295580D01*
Y295590D01*
X359863Y295638D01*
X359853Y295707D01*
X359834Y295814D01*
Y295883D01*
X359824Y295961D01*
Y296039D01*
X359814Y296136D01*
Y296244D01*
X359805Y296361D01*
Y297210D01*
X364050D01*
Y296068D01*
D02*
G37*
G36*
X361093Y274284D02*
X361230Y274264D01*
X361376Y274235D01*
X361532Y274196D01*
X361669Y274137D01*
X361796Y274059D01*
X361805Y274049D01*
X361835Y274010D01*
X361883Y273961D01*
X361932Y273893D01*
X361991Y273805D01*
X362030Y273698D01*
X362069Y273581D01*
X362079Y273444D01*
Y273386D01*
X362059Y273317D01*
X362040Y273239D01*
X362010Y273142D01*
X361962Y273044D01*
X361893Y272947D01*
X361805Y272849D01*
X361796Y272839D01*
X361757Y272810D01*
X361688Y272771D01*
X361591Y272722D01*
X361474Y272683D01*
X361337Y272644D01*
X361171Y272615D01*
X360976Y272605D01*
X360966D01*
X360946D01*
X360917D01*
X360878D01*
X360771Y272615D01*
X360634Y272634D01*
X360488Y272673D01*
X360332Y272722D01*
X360185Y272790D01*
X360049Y272878D01*
X360039Y272888D01*
X360000Y272927D01*
X359941Y272986D01*
X359883Y273064D01*
X359824Y273151D01*
X359766Y273259D01*
X359727Y273386D01*
X359717Y273513D01*
Y273571D01*
X359727Y273630D01*
X359746Y273708D01*
X359785Y273805D01*
X359834Y273893D01*
X359902Y273991D01*
X359990Y274079D01*
X360000Y274088D01*
X360039Y274108D01*
X360107Y274147D01*
X360205Y274186D01*
X360322Y274225D01*
X360478Y274264D01*
X360664Y274284D01*
X360878Y274293D01*
X360888D01*
X360908D01*
X360937D01*
X360976D01*
X361093Y274284D01*
D02*
G37*
%LPC*%
G36*
X365134Y257563D02*
X358721D01*
Y252205D01*
D01*
Y255016D01*
X358731Y254938D01*
X358741Y254762D01*
X358751Y254557D01*
X358770Y254362D01*
X358809Y254167D01*
X358848Y253991D01*
Y253981D01*
X358858Y253962D01*
X358868Y253932D01*
X358877Y253893D01*
X358926Y253796D01*
X358985Y253659D01*
X359063Y253513D01*
X359170Y253357D01*
X359297Y253191D01*
X359443Y253034D01*
Y253025D01*
X359463Y253015D01*
X359522Y252966D01*
X359609Y252898D01*
X359727Y252800D01*
X359883Y252703D01*
X360058Y252605D01*
X360254Y252507D01*
X360478Y252419D01*
X360488D01*
X360507Y252410D01*
X360537Y252400D01*
X360585Y252390D01*
X360644Y252371D01*
X360722Y252351D01*
X360800Y252332D01*
X360898Y252312D01*
X361005Y252293D01*
X361112Y252273D01*
X361376Y252234D01*
X361669Y252215D01*
X361991Y252205D01*
X365134D01*
X362127D01*
X362196Y252215D01*
X362274D01*
X362459Y252234D01*
X362674Y252254D01*
X362898Y252293D01*
X363133Y252341D01*
X363357Y252410D01*
X363367D01*
X363387Y252419D01*
X363426Y252429D01*
X363474Y252449D01*
X363533Y252478D01*
X363601Y252507D01*
X363757Y252585D01*
X363943Y252683D01*
X364128Y252800D01*
X364314Y252937D01*
X364489Y253093D01*
X364499Y253113D01*
X364548Y253151D01*
X364607Y253230D01*
X364675Y253327D01*
X364763Y253464D01*
X364851Y253620D01*
X364929Y253796D01*
X365007Y254001D01*
X365017Y254020D01*
X365026Y254079D01*
X365046Y254167D01*
X365065Y254303D01*
X365094Y254459D01*
X365114Y254655D01*
X365124Y254889D01*
X365134Y255143D01*
Y257563D01*
D02*
G37*
G36*
Y251141D02*
X358721D01*
Y249843D01*
X365134D01*
Y251141D01*
D02*
G37*
G36*
X365251Y248838D02*
Y245695D01*
X365241Y245763D01*
Y245851D01*
X365231Y245958D01*
X365212Y246066D01*
X365202Y246193D01*
X365143Y246466D01*
X365075Y246759D01*
X364968Y247061D01*
X364909Y247208D01*
X364831Y247354D01*
X364821Y247364D01*
X364811Y247383D01*
X364782Y247422D01*
X364753Y247471D01*
X364714Y247539D01*
X364655Y247608D01*
X364519Y247774D01*
X364353Y247949D01*
X364148Y248135D01*
X363904Y248311D01*
X363631Y248467D01*
X363621D01*
X363592Y248486D01*
X363552Y248496D01*
X363494Y248525D01*
X363416Y248555D01*
X363328Y248584D01*
X363230Y248613D01*
X363123Y248652D01*
X362996Y248691D01*
X362860Y248721D01*
X362577Y248779D01*
X362254Y248818D01*
X361913Y248838D01*
X361815D01*
X361747Y248828D01*
X361659D01*
X361552Y248818D01*
X361444Y248799D01*
X361317Y248789D01*
X361044Y248740D01*
X360742Y248662D01*
X360439Y248564D01*
X360137Y248428D01*
X360127Y248418D01*
X360097Y248408D01*
X360058Y248379D01*
X360010Y248350D01*
X359941Y248301D01*
X359863Y248252D01*
X359697Y248115D01*
X359502Y247940D01*
X359297Y247735D01*
X359112Y247481D01*
X358936Y247198D01*
Y247188D01*
X358926Y247169D01*
X358907Y247139D01*
X358887Y247091D01*
X358858Y247022D01*
X358838Y246954D01*
X358809Y246866D01*
X358770Y246778D01*
X358741Y246671D01*
X358712Y246554D01*
X358692Y246427D01*
X358663Y246290D01*
X358624Y245997D01*
X358614Y245666D01*
Y245549D01*
X358624Y245470D01*
X358633Y245373D01*
X358643Y245256D01*
X358653Y245129D01*
X358672Y244982D01*
X358741Y244690D01*
X358829Y244377D01*
X358887Y244231D01*
X358956Y244085D01*
X359034Y243938D01*
X359121Y243811D01*
X359131Y243801D01*
X359141Y243782D01*
X359170Y243743D01*
X359209Y243704D01*
X359268Y243645D01*
X359326Y243587D01*
X359395Y243518D01*
X359483Y243450D01*
X359570Y243372D01*
X359678Y243304D01*
X359785Y243226D01*
X359912Y243157D01*
X360175Y243040D01*
X360332Y242982D01*
X360488Y242943D01*
X360732Y244231D01*
X360722D01*
X360712Y244241D01*
X360654Y244260D01*
X360566Y244289D01*
X360459Y244348D01*
X360341Y244416D01*
X360224Y244504D01*
X360097Y244612D01*
X359990Y244738D01*
X359980Y244758D01*
X359951Y244807D01*
X359902Y244885D01*
X359853Y244992D01*
X359805Y245129D01*
X359756Y245285D01*
X359727Y245470D01*
X359717Y245666D01*
Y245744D01*
X359727Y245802D01*
X359736Y245880D01*
X359746Y245958D01*
X359785Y246154D01*
X359853Y246368D01*
X359951Y246593D01*
X360010Y246700D01*
X360078Y246808D01*
X360166Y246915D01*
X360263Y247012D01*
X360273Y247022D01*
X360293Y247032D01*
X360322Y247061D01*
X360361Y247091D01*
X360420Y247130D01*
X360488Y247169D01*
X360566Y247208D01*
X360664Y247256D01*
X360771Y247305D01*
X360888Y247344D01*
X361025Y247383D01*
X361161Y247422D01*
X361317Y247452D01*
X361493Y247481D01*
X361669Y247491D01*
X361864Y247500D01*
X361874D01*
X361913D01*
X361971D01*
X362049Y247491D01*
X362147Y247481D01*
X362254Y247471D01*
X362371Y247461D01*
X362508Y247442D01*
X362781Y247383D01*
X363074Y247286D01*
X363211Y247237D01*
X363338Y247169D01*
X363465Y247091D01*
X363582Y247003D01*
X363592Y246993D01*
X363601Y246983D01*
X363631Y246954D01*
X363670Y246915D01*
X363709Y246856D01*
X363757Y246798D01*
X363816Y246729D01*
X363865Y246642D01*
X363972Y246456D01*
X364060Y246232D01*
X364099Y246105D01*
X364119Y245968D01*
X364138Y245822D01*
X364148Y245675D01*
Y245607D01*
X364138Y245529D01*
X364128Y245422D01*
X364109Y245304D01*
X364079Y245168D01*
X364040Y245021D01*
X363992Y244865D01*
X363982Y244846D01*
X363962Y244797D01*
X363933Y244719D01*
X363884Y244621D01*
X363826Y244514D01*
X363757Y244397D01*
X363689Y244280D01*
X363601Y244163D01*
X362781D01*
Y245636D01*
X361698D01*
Y242855D01*
X365251D01*
X364265D01*
X364284Y242874D01*
X364333Y242933D01*
X364402Y243021D01*
X364499Y243157D01*
X364607Y243323D01*
X364724Y243528D01*
X364841Y243762D01*
X364958Y244036D01*
Y244045D01*
X364968Y244075D01*
X364987Y244114D01*
X365007Y244172D01*
X365026Y244241D01*
X365046Y244319D01*
X365075Y244416D01*
X365104Y244524D01*
X365153Y244758D01*
X365202Y245021D01*
X365241Y245304D01*
X365251Y245597D01*
Y248838D01*
D02*
G37*
G36*
X365134Y239595D02*
X365104D01*
X365065Y239585D01*
X365026Y239575D01*
X364968Y239566D01*
X364899Y239556D01*
X364743Y239517D01*
X364548Y239468D01*
X364343Y239390D01*
X364128Y239302D01*
X363914Y239185D01*
X363904D01*
X363884Y239165D01*
X363855Y239146D01*
X363806Y239117D01*
X363748Y239068D01*
X363679Y239019D01*
X363592Y238951D01*
X363504Y238882D01*
X363396Y238795D01*
X363279Y238687D01*
X363152Y238580D01*
X363016Y238453D01*
X362869Y238307D01*
X362713Y238160D01*
X362547Y237984D01*
X362371Y237799D01*
X362362Y237789D01*
X362342Y237760D01*
X362293Y237721D01*
X362245Y237662D01*
X362186Y237604D01*
X362108Y237526D01*
X361952Y237360D01*
X361776Y237184D01*
X361600Y237018D01*
X361522Y236940D01*
X361454Y236872D01*
X361386Y236813D01*
X361327Y236774D01*
X361308Y236765D01*
X361259Y236735D01*
X361191Y236696D01*
X361093Y236647D01*
X360976Y236599D01*
X360849Y236560D01*
X360712Y236530D01*
X360576Y236521D01*
X360556D01*
X360507D01*
X360429Y236530D01*
X360341Y236550D01*
X360244Y236579D01*
X360137Y236618D01*
X360029Y236667D01*
X359941Y236745D01*
X359931Y236755D01*
X359902Y236784D01*
X359873Y236833D01*
X359824Y236901D01*
X359785Y236989D01*
X359756Y237096D01*
X359727Y237223D01*
X359717Y237360D01*
Y237418D01*
X359727Y237496D01*
X359746Y237575D01*
X359775Y237672D01*
X359814Y237779D01*
X359873Y237877D01*
X359951Y237975D01*
X359961Y237984D01*
X360000Y238014D01*
X360049Y238043D01*
X360137Y238092D01*
X360244Y238131D01*
X360371Y238180D01*
X360537Y238209D01*
X360722Y238229D01*
X360605Y239448D01*
X360595D01*
X360556Y239439D01*
X360507D01*
X360439Y239419D01*
X360351Y239409D01*
X360263Y239380D01*
X360156Y239361D01*
X360039Y239322D01*
X359805Y239234D01*
X359561Y239117D01*
X359443Y239039D01*
X359336Y238961D01*
X359239Y238863D01*
X359151Y238765D01*
X359141Y238755D01*
X359131Y238736D01*
X359112Y238707D01*
X359082Y238658D01*
X359043Y238609D01*
X359004Y238541D01*
X358965Y238463D01*
X358926Y238365D01*
X358887Y238267D01*
X358848Y238160D01*
X358770Y237916D01*
X358721Y237643D01*
X358702Y237487D01*
Y237575D01*
Y237243D01*
X358712Y237174D01*
X358721Y237096D01*
X358731Y236999D01*
X358741Y236901D01*
X358770Y236784D01*
X358829Y236550D01*
X358916Y236296D01*
X358975Y236179D01*
X359043Y236052D01*
X359131Y235945D01*
X359219Y235837D01*
X359229Y235827D01*
X359239Y235818D01*
X359268Y235788D01*
X359307Y235749D01*
X359356Y235710D01*
X359424Y235662D01*
X359570Y235564D01*
X359756Y235466D01*
X359971Y235379D01*
X360215Y235310D01*
X360351Y235300D01*
X360488Y235291D01*
X362506D01*
X360556D01*
X360644Y235300D01*
X360751Y235310D01*
X360878Y235330D01*
X361015Y235359D01*
X361171Y235398D01*
X361317Y235447D01*
X361337Y235457D01*
X361386Y235476D01*
X361464Y235515D01*
X361561Y235564D01*
X361688Y235632D01*
X361825Y235720D01*
X361971Y235827D01*
X362127Y235945D01*
X362137Y235954D01*
X362176Y235984D01*
X362245Y236042D01*
X362333Y236130D01*
X362450Y236237D01*
X362596Y236384D01*
X362762Y236550D01*
X362947Y236755D01*
X362957Y236765D01*
X362967Y236784D01*
X362996Y236813D01*
X363035Y236843D01*
X363123Y236940D01*
X363240Y237057D01*
X363357Y237184D01*
X363474Y237301D01*
X363582Y237409D01*
X363621Y237448D01*
X363660Y237487D01*
X363670Y237496D01*
X363689Y237516D01*
X363718Y237545D01*
X363767Y237575D01*
X363865Y237662D01*
X363992Y237740D01*
Y235291D01*
X365134D01*
Y239595D01*
D02*
G37*
G36*
Y234129D02*
Y232538D01*
X360507D01*
X360517Y232548D01*
X360537Y232568D01*
X360566Y232607D01*
X360615Y232656D01*
X360664Y232724D01*
X360722Y232802D01*
X360790Y232890D01*
X360859Y232997D01*
X360937Y233104D01*
X361015Y233231D01*
X361161Y233495D01*
X361308Y233797D01*
X361435Y234129D01*
X365134D01*
X360322D01*
Y234120D01*
X360312Y234110D01*
X360302Y234081D01*
X360293Y234041D01*
X360254Y233944D01*
X360185Y233817D01*
X360107Y233661D01*
X360000Y233485D01*
X359883Y233290D01*
X359727Y233085D01*
X359717Y233075D01*
X359707Y233056D01*
X359678Y233026D01*
X359648Y232997D01*
X359561Y232899D01*
X359434Y232773D01*
X359287Y232646D01*
X359112Y232519D01*
X358916Y232402D01*
X358702Y232314D01*
Y234129D01*
Y231309D01*
X365134D01*
Y234129D01*
D02*
G37*
%LPD*%
G36*
X364050Y255123D02*
X364040Y255006D01*
Y254889D01*
X364021Y254752D01*
X364011Y254635D01*
X363992Y254537D01*
Y254528D01*
X363972Y254479D01*
X363953Y254420D01*
X363933Y254352D01*
X363845Y254176D01*
X363796Y254088D01*
X363728Y254010D01*
X363718Y254001D01*
X363689Y253971D01*
X363650Y253942D01*
X363582Y253893D01*
X363494Y253835D01*
X363387Y253786D01*
X363260Y253727D01*
X363113Y253679D01*
X363104D01*
X363094Y253669D01*
X363065D01*
X363035Y253659D01*
X362938Y253640D01*
X362801Y253610D01*
X362635Y253581D01*
X362430Y253561D01*
X362196Y253552D01*
X361932Y253542D01*
X361923D01*
X361903D01*
X361864D01*
X361805D01*
X361747D01*
X361679Y253552D01*
X361513Y253561D01*
X361327Y253571D01*
X361142Y253601D01*
X360956Y253630D01*
X360800Y253679D01*
X360781Y253688D01*
X360732Y253698D01*
X360664Y253727D01*
X360576Y253766D01*
X360468Y253825D01*
X360371Y253884D01*
X360263Y253952D01*
X360175Y254040D01*
X360166Y254049D01*
X360137Y254079D01*
X360097Y254137D01*
X360049Y254206D01*
X360000Y254284D01*
X359951Y254391D01*
X359912Y254508D01*
X359873Y254635D01*
Y254645D01*
X359863Y254694D01*
X359853Y254762D01*
X359834Y254869D01*
Y254938D01*
X359824Y255016D01*
Y255094D01*
X359814Y255191D01*
Y255299D01*
X359805Y255416D01*
Y256265D01*
X364050D01*
Y255123D01*
D02*
G37*
%LPC*%
G36*
X365134Y218193D02*
X358721D01*
Y212835D01*
D01*
Y215646D01*
X358731Y215567D01*
X358741Y215392D01*
X358751Y215187D01*
X358770Y214992D01*
X358809Y214796D01*
X358848Y214621D01*
Y214611D01*
X358858Y214592D01*
X358868Y214562D01*
X358877Y214523D01*
X358926Y214426D01*
X358985Y214289D01*
X359063Y214143D01*
X359170Y213986D01*
X359297Y213821D01*
X359443Y213664D01*
Y213655D01*
X359463Y213645D01*
X359522Y213596D01*
X359609Y213528D01*
X359727Y213430D01*
X359883Y213333D01*
X360058Y213235D01*
X360254Y213137D01*
X360478Y213049D01*
X360488D01*
X360507Y213040D01*
X360537Y213030D01*
X360585Y213020D01*
X360644Y213001D01*
X360722Y212981D01*
X360800Y212962D01*
X360898Y212942D01*
X361005Y212923D01*
X361112Y212903D01*
X361376Y212864D01*
X361669Y212844D01*
X361991Y212835D01*
X365134D01*
X362127D01*
X362196Y212844D01*
X362274D01*
X362459Y212864D01*
X362674Y212883D01*
X362898Y212923D01*
X363133Y212971D01*
X363357Y213040D01*
X363367D01*
X363387Y213049D01*
X363426Y213059D01*
X363474Y213079D01*
X363533Y213108D01*
X363601Y213137D01*
X363757Y213215D01*
X363943Y213313D01*
X364128Y213430D01*
X364314Y213567D01*
X364489Y213723D01*
X364499Y213742D01*
X364548Y213781D01*
X364607Y213860D01*
X364675Y213957D01*
X364763Y214094D01*
X364851Y214250D01*
X364929Y214426D01*
X365007Y214631D01*
X365017Y214650D01*
X365026Y214709D01*
X365046Y214796D01*
X365065Y214933D01*
X365094Y215089D01*
X365114Y215284D01*
X365124Y215519D01*
X365134Y215773D01*
Y218193D01*
D02*
G37*
G36*
Y211771D02*
X358721D01*
Y210473D01*
X365134D01*
Y211771D01*
D02*
G37*
G36*
X365251Y209468D02*
Y206325D01*
X365241Y206393D01*
Y206481D01*
X365231Y206588D01*
X365212Y206696D01*
X365202Y206823D01*
X365143Y207096D01*
X365075Y207389D01*
X364968Y207691D01*
X364909Y207838D01*
X364831Y207984D01*
X364821Y207994D01*
X364811Y208013D01*
X364782Y208052D01*
X364753Y208101D01*
X364714Y208169D01*
X364655Y208238D01*
X364519Y208404D01*
X364353Y208579D01*
X364148Y208765D01*
X363904Y208941D01*
X363631Y209097D01*
X363621D01*
X363592Y209116D01*
X363552Y209126D01*
X363494Y209155D01*
X363416Y209185D01*
X363328Y209214D01*
X363230Y209243D01*
X363123Y209282D01*
X362996Y209321D01*
X362860Y209350D01*
X362577Y209409D01*
X362254Y209448D01*
X361913Y209468D01*
X361815D01*
X361747Y209458D01*
X361659D01*
X361552Y209448D01*
X361444Y209429D01*
X361317Y209419D01*
X361044Y209370D01*
X360742Y209292D01*
X360439Y209194D01*
X360137Y209058D01*
X360127Y209048D01*
X360097Y209038D01*
X360058Y209009D01*
X360010Y208980D01*
X359941Y208931D01*
X359863Y208882D01*
X359697Y208745D01*
X359502Y208570D01*
X359297Y208365D01*
X359112Y208111D01*
X358936Y207828D01*
Y207818D01*
X358926Y207799D01*
X358907Y207769D01*
X358887Y207720D01*
X358858Y207652D01*
X358838Y207584D01*
X358809Y207496D01*
X358770Y207408D01*
X358741Y207301D01*
X358712Y207184D01*
X358692Y207057D01*
X358663Y206920D01*
X358624Y206627D01*
X358614Y206295D01*
Y206178D01*
X358624Y206100D01*
X358633Y206003D01*
X358643Y205886D01*
X358653Y205759D01*
X358672Y205612D01*
X358741Y205319D01*
X358829Y205007D01*
X358887Y204861D01*
X358956Y204714D01*
X359034Y204568D01*
X359121Y204441D01*
X359131Y204431D01*
X359141Y204412D01*
X359170Y204373D01*
X359209Y204334D01*
X359268Y204275D01*
X359326Y204217D01*
X359395Y204148D01*
X359483Y204080D01*
X359570Y204002D01*
X359678Y203934D01*
X359785Y203855D01*
X359912Y203787D01*
X360175Y203670D01*
X360332Y203611D01*
X360488Y203573D01*
X360732Y204861D01*
X360722D01*
X360712Y204871D01*
X360654Y204890D01*
X360566Y204919D01*
X360459Y204978D01*
X360341Y205046D01*
X360224Y205134D01*
X360097Y205241D01*
X359990Y205368D01*
X359980Y205388D01*
X359951Y205437D01*
X359902Y205515D01*
X359853Y205622D01*
X359805Y205759D01*
X359756Y205915D01*
X359727Y206100D01*
X359717Y206295D01*
Y206374D01*
X359727Y206432D01*
X359736Y206510D01*
X359746Y206588D01*
X359785Y206784D01*
X359853Y206998D01*
X359951Y207223D01*
X360010Y207330D01*
X360078Y207437D01*
X360166Y207545D01*
X360263Y207642D01*
X360273Y207652D01*
X360293Y207662D01*
X360322Y207691D01*
X360361Y207720D01*
X360420Y207759D01*
X360488Y207799D01*
X360566Y207838D01*
X360664Y207886D01*
X360771Y207935D01*
X360888Y207974D01*
X361025Y208013D01*
X361161Y208052D01*
X361317Y208082D01*
X361493Y208111D01*
X361669Y208121D01*
X361864Y208130D01*
X361874D01*
X361913D01*
X361971D01*
X362049Y208121D01*
X362147Y208111D01*
X362254Y208101D01*
X362371Y208091D01*
X362508Y208072D01*
X362781Y208013D01*
X363074Y207916D01*
X363211Y207867D01*
X363338Y207799D01*
X363465Y207720D01*
X363582Y207633D01*
X363592Y207623D01*
X363601Y207613D01*
X363631Y207584D01*
X363670Y207545D01*
X363709Y207486D01*
X363757Y207428D01*
X363816Y207359D01*
X363865Y207272D01*
X363972Y207086D01*
X364060Y206862D01*
X364099Y206735D01*
X364119Y206598D01*
X364138Y206452D01*
X364148Y206305D01*
Y206237D01*
X364138Y206159D01*
X364128Y206051D01*
X364109Y205934D01*
X364079Y205798D01*
X364040Y205651D01*
X363992Y205495D01*
X363982Y205476D01*
X363962Y205427D01*
X363933Y205349D01*
X363884Y205251D01*
X363826Y205144D01*
X363757Y205027D01*
X363689Y204910D01*
X363601Y204792D01*
X362781D01*
Y206266D01*
X361698D01*
Y203485D01*
X365251D01*
X364265D01*
X364284Y203504D01*
X364333Y203563D01*
X364402Y203651D01*
X364499Y203787D01*
X364607Y203953D01*
X364724Y204158D01*
X364841Y204392D01*
X364958Y204666D01*
Y204675D01*
X364968Y204705D01*
X364987Y204744D01*
X365007Y204802D01*
X365026Y204871D01*
X365046Y204949D01*
X365075Y205046D01*
X365104Y205154D01*
X365153Y205388D01*
X365202Y205651D01*
X365241Y205934D01*
X365251Y206227D01*
Y209468D01*
D02*
G37*
G36*
X365134Y200225D02*
X365104D01*
X365065Y200215D01*
X365026Y200205D01*
X364968Y200196D01*
X364899Y200186D01*
X364743Y200147D01*
X364548Y200098D01*
X364343Y200020D01*
X364128Y199932D01*
X363914Y199815D01*
X363904D01*
X363884Y199795D01*
X363855Y199776D01*
X363806Y199747D01*
X363748Y199698D01*
X363679Y199649D01*
X363592Y199581D01*
X363504Y199512D01*
X363396Y199425D01*
X363279Y199317D01*
X363152Y199210D01*
X363016Y199083D01*
X362869Y198936D01*
X362713Y198790D01*
X362547Y198614D01*
X362371Y198429D01*
X362362Y198419D01*
X362342Y198390D01*
X362293Y198351D01*
X362245Y198292D01*
X362186Y198234D01*
X362108Y198156D01*
X361952Y197990D01*
X361776Y197814D01*
X361600Y197648D01*
X361522Y197570D01*
X361454Y197502D01*
X361386Y197443D01*
X361327Y197404D01*
X361308Y197394D01*
X361259Y197365D01*
X361191Y197326D01*
X361093Y197277D01*
X360976Y197229D01*
X360849Y197189D01*
X360712Y197160D01*
X360576Y197150D01*
X360556D01*
X360507D01*
X360429Y197160D01*
X360341Y197180D01*
X360244Y197209D01*
X360137Y197248D01*
X360029Y197297D01*
X359941Y197375D01*
X359931Y197385D01*
X359902Y197414D01*
X359873Y197463D01*
X359824Y197531D01*
X359785Y197619D01*
X359756Y197726D01*
X359727Y197853D01*
X359717Y197990D01*
Y198048D01*
X359727Y198126D01*
X359746Y198205D01*
X359775Y198302D01*
X359814Y198409D01*
X359873Y198507D01*
X359951Y198605D01*
X359961Y198614D01*
X360000Y198644D01*
X360049Y198673D01*
X360137Y198722D01*
X360244Y198761D01*
X360371Y198810D01*
X360537Y198839D01*
X360722Y198858D01*
X360605Y200078D01*
X360595D01*
X360556Y200069D01*
X360507D01*
X360439Y200049D01*
X360351Y200039D01*
X360263Y200010D01*
X360156Y199991D01*
X360039Y199952D01*
X359805Y199864D01*
X359561Y199747D01*
X359443Y199669D01*
X359336Y199590D01*
X359239Y199493D01*
X359151Y199395D01*
X359141Y199385D01*
X359131Y199366D01*
X359112Y199337D01*
X359082Y199288D01*
X359043Y199239D01*
X359004Y199171D01*
X358965Y199093D01*
X358926Y198995D01*
X358887Y198897D01*
X358848Y198790D01*
X358770Y198546D01*
X358721Y198273D01*
X358702Y198117D01*
Y198205D01*
Y197873D01*
X358712Y197804D01*
X358721Y197726D01*
X358731Y197629D01*
X358741Y197531D01*
X358770Y197414D01*
X358829Y197180D01*
X358916Y196926D01*
X358975Y196809D01*
X359043Y196682D01*
X359131Y196575D01*
X359219Y196467D01*
X359229Y196457D01*
X359239Y196448D01*
X359268Y196418D01*
X359307Y196379D01*
X359356Y196340D01*
X359424Y196291D01*
X359570Y196194D01*
X359756Y196096D01*
X359971Y196009D01*
X360215Y195940D01*
X360351Y195930D01*
X360488Y195921D01*
X362506D01*
X360556D01*
X360644Y195930D01*
X360751Y195940D01*
X360878Y195960D01*
X361015Y195989D01*
X361171Y196028D01*
X361317Y196077D01*
X361337Y196087D01*
X361386Y196106D01*
X361464Y196145D01*
X361561Y196194D01*
X361688Y196262D01*
X361825Y196350D01*
X361971Y196457D01*
X362127Y196575D01*
X362137Y196584D01*
X362176Y196614D01*
X362245Y196672D01*
X362333Y196760D01*
X362450Y196867D01*
X362596Y197014D01*
X362762Y197180D01*
X362947Y197385D01*
X362957Y197394D01*
X362967Y197414D01*
X362996Y197443D01*
X363035Y197473D01*
X363123Y197570D01*
X363240Y197687D01*
X363357Y197814D01*
X363474Y197931D01*
X363582Y198039D01*
X363621Y198078D01*
X363660Y198117D01*
X363670Y198126D01*
X363689Y198146D01*
X363718Y198175D01*
X363767Y198205D01*
X363865Y198292D01*
X363992Y198370D01*
Y195921D01*
X365134D01*
Y200225D01*
D02*
G37*
G36*
X363445Y195140D02*
D01*
X363299Y193949D01*
X363309D01*
X363318D01*
X363377Y193939D01*
X363455Y193920D01*
X363562Y193891D01*
X363670Y193851D01*
X363787Y193803D01*
X363904Y193734D01*
X364001Y193647D01*
X364011Y193637D01*
X364040Y193598D01*
X364079Y193549D01*
X364119Y193471D01*
X364158Y193383D01*
X364197Y193285D01*
X364226Y193168D01*
X364236Y193041D01*
Y192973D01*
X364216Y192905D01*
X364197Y192817D01*
X364167Y192719D01*
X364119Y192612D01*
X364050Y192505D01*
X363953Y192397D01*
X363943Y192387D01*
X363894Y192358D01*
X363836Y192309D01*
X363748Y192261D01*
X363631Y192222D01*
X363494Y192173D01*
X363338Y192143D01*
X363162Y192134D01*
X363152D01*
X363142D01*
X363084D01*
X362996Y192143D01*
X362889Y192163D01*
X362772Y192192D01*
X362655Y192241D01*
X362528Y192300D01*
X362420Y192387D01*
X362411Y192397D01*
X362381Y192436D01*
X362333Y192485D01*
X362284Y192563D01*
X362235Y192651D01*
X362186Y192758D01*
X362157Y192876D01*
X362147Y193002D01*
Y193090D01*
X362157Y193159D01*
X362167Y193237D01*
X362186Y193334D01*
X362215Y193442D01*
X362245Y193559D01*
X361249Y193422D01*
Y193344D01*
X361239Y193246D01*
X361230Y193139D01*
X361210Y193022D01*
X361171Y192895D01*
X361112Y192768D01*
X361044Y192661D01*
X361034Y192651D01*
X361005Y192622D01*
X360946Y192573D01*
X360878Y192524D01*
X360790Y192475D01*
X360683Y192427D01*
X360566Y192397D01*
X360429Y192387D01*
X360420D01*
X360371D01*
X360312Y192397D01*
X360244Y192407D01*
X360166Y192436D01*
X360078Y192466D01*
X359990Y192514D01*
X359912Y192583D01*
X359902Y192593D01*
X359883Y192622D01*
X359853Y192661D01*
X359814Y192719D01*
X359775Y192797D01*
X359746Y192885D01*
X359727Y192993D01*
X359717Y193110D01*
Y193159D01*
X359727Y193217D01*
X359746Y193295D01*
X359775Y193383D01*
X359814Y193471D01*
X359863Y193569D01*
X359941Y193656D01*
X359951Y193666D01*
X359980Y193695D01*
X360029Y193725D01*
X360097Y193773D01*
X360195Y193822D01*
X360302Y193861D01*
X360429Y193900D01*
X360576Y193920D01*
X360390Y195052D01*
X360381D01*
X360361Y195042D01*
X360332D01*
X360293Y195033D01*
X360185Y195003D01*
X360049Y194964D01*
X359902Y194915D01*
X359746Y194857D01*
X359590Y194779D01*
X359453Y194701D01*
X359434Y194691D01*
X359395Y194652D01*
X359336Y194603D01*
X359248Y194525D01*
X359160Y194427D01*
X359073Y194320D01*
X358985Y194183D01*
X358907Y194037D01*
Y194027D01*
X358897Y194017D01*
X358877Y193959D01*
X358838Y193871D01*
X358799Y193754D01*
X358770Y193607D01*
X358731Y193451D01*
X358712Y193266D01*
X358702Y193071D01*
Y195140D01*
Y190875D01*
Y192983D01*
X358712Y192924D01*
X358721Y192846D01*
X358731Y192758D01*
X358751Y192651D01*
X358770Y192544D01*
X358848Y192319D01*
X358887Y192192D01*
X358946Y192075D01*
X359014Y191958D01*
X359092Y191831D01*
X359180Y191724D01*
X359287Y191616D01*
X359297Y191607D01*
X359307Y191597D01*
X359336Y191577D01*
X359365Y191548D01*
X359463Y191470D01*
X359600Y191382D01*
X359756Y191304D01*
X359931Y191226D01*
X360137Y191177D01*
X360244Y191158D01*
X360351D01*
X360361D01*
X360390D01*
X360429Y191167D01*
X360488D01*
X360566Y191187D01*
X360644Y191207D01*
X360732Y191236D01*
X360829Y191275D01*
X360937Y191324D01*
X361044Y191382D01*
X361161Y191460D01*
X361269Y191548D01*
X361386Y191656D01*
X361493Y191782D01*
X361600Y191919D01*
X361698Y192085D01*
Y192075D01*
X361708Y192056D01*
Y192036D01*
X361718Y191997D01*
X361757Y191890D01*
X361805Y191773D01*
X361874Y191626D01*
X361971Y191480D01*
X362088Y191343D01*
X362225Y191207D01*
X362245Y191197D01*
X362293Y191158D01*
X362381Y191099D01*
X362498Y191041D01*
X362645Y190982D01*
X362821Y190924D01*
X363006Y190884D01*
X363221Y190875D01*
X358702D01*
X365251D01*
X363299D01*
X363357Y190884D01*
X363435Y190894D01*
X363513Y190904D01*
X363611Y190924D01*
X363718Y190953D01*
X363943Y191031D01*
X364060Y191080D01*
X364177Y191138D01*
X364304Y191207D01*
X364421Y191294D01*
X364538Y191392D01*
X364655Y191499D01*
X364665Y191509D01*
X364685Y191529D01*
X364714Y191558D01*
X364743Y191607D01*
X364792Y191665D01*
X364841Y191743D01*
X364899Y191821D01*
X364948Y191919D01*
X365007Y192026D01*
X365065Y192143D01*
X365114Y192270D01*
X365153Y192407D01*
X365192Y192553D01*
X365221Y192700D01*
X365241Y192866D01*
X365251Y193032D01*
Y193120D01*
X365241Y193178D01*
X365231Y193256D01*
X365221Y193344D01*
X365212Y193442D01*
X365192Y193539D01*
X365134Y193773D01*
X365036Y194017D01*
X364987Y194135D01*
X364919Y194261D01*
X364841Y194379D01*
X364753Y194486D01*
X364743Y194496D01*
X364733Y194505D01*
X364704Y194535D01*
X364665Y194574D01*
X364616Y194623D01*
X364548Y194671D01*
X364480Y194720D01*
X364402Y194779D01*
X364216Y194896D01*
X363992Y195003D01*
X363738Y195091D01*
X363592Y195120D01*
X363445Y195140D01*
D02*
G37*
%LPD*%
G36*
X364050Y215753D02*
X364040Y215636D01*
Y215519D01*
X364021Y215382D01*
X364011Y215265D01*
X363992Y215167D01*
Y215158D01*
X363972Y215109D01*
X363953Y215050D01*
X363933Y214982D01*
X363845Y214806D01*
X363796Y214718D01*
X363728Y214640D01*
X363718Y214631D01*
X363689Y214601D01*
X363650Y214572D01*
X363582Y214523D01*
X363494Y214465D01*
X363387Y214416D01*
X363260Y214357D01*
X363113Y214309D01*
X363104D01*
X363094Y214299D01*
X363065D01*
X363035Y214289D01*
X362938Y214269D01*
X362801Y214240D01*
X362635Y214211D01*
X362430Y214191D01*
X362196Y214182D01*
X361932Y214172D01*
X361923D01*
X361903D01*
X361864D01*
X361805D01*
X361747D01*
X361679Y214182D01*
X361513Y214191D01*
X361327Y214201D01*
X361142Y214230D01*
X360956Y214260D01*
X360800Y214309D01*
X360781Y214318D01*
X360732Y214328D01*
X360664Y214357D01*
X360576Y214396D01*
X360468Y214455D01*
X360371Y214513D01*
X360263Y214582D01*
X360175Y214670D01*
X360166Y214679D01*
X360137Y214709D01*
X360097Y214767D01*
X360049Y214836D01*
X360000Y214914D01*
X359951Y215021D01*
X359912Y215138D01*
X359873Y215265D01*
Y215275D01*
X359863Y215323D01*
X359853Y215392D01*
X359834Y215499D01*
Y215567D01*
X359824Y215646D01*
Y215724D01*
X359814Y215821D01*
Y215929D01*
X359805Y216046D01*
Y216895D01*
X364050D01*
Y215753D01*
D02*
G37*
%LPC*%
G36*
X365134Y178035D02*
X358721D01*
Y172677D01*
D01*
Y175488D01*
X358731Y175410D01*
X358741Y175234D01*
X358751Y175029D01*
X358770Y174834D01*
X358809Y174639D01*
X358848Y174463D01*
Y174454D01*
X358858Y174434D01*
X358868Y174405D01*
X358877Y174366D01*
X358926Y174268D01*
X358985Y174132D01*
X359063Y173985D01*
X359170Y173829D01*
X359297Y173663D01*
X359443Y173507D01*
Y173497D01*
X359463Y173487D01*
X359522Y173439D01*
X359609Y173370D01*
X359727Y173273D01*
X359883Y173175D01*
X360058Y173077D01*
X360254Y172980D01*
X360478Y172892D01*
X360488D01*
X360507Y172882D01*
X360537Y172872D01*
X360585Y172863D01*
X360644Y172843D01*
X360722Y172824D01*
X360800Y172804D01*
X360898Y172785D01*
X361005Y172765D01*
X361112Y172746D01*
X361376Y172706D01*
X361669Y172687D01*
X361991Y172677D01*
X365134D01*
X362127D01*
X362196Y172687D01*
X362274D01*
X362459Y172706D01*
X362674Y172726D01*
X362898Y172765D01*
X363133Y172814D01*
X363357Y172882D01*
X363367D01*
X363387Y172892D01*
X363426Y172902D01*
X363474Y172921D01*
X363533Y172950D01*
X363601Y172980D01*
X363757Y173058D01*
X363943Y173155D01*
X364128Y173273D01*
X364314Y173409D01*
X364489Y173565D01*
X364499Y173585D01*
X364548Y173624D01*
X364607Y173702D01*
X364675Y173800D01*
X364763Y173936D01*
X364851Y174092D01*
X364929Y174268D01*
X365007Y174473D01*
X365017Y174493D01*
X365026Y174551D01*
X365046Y174639D01*
X365065Y174776D01*
X365094Y174932D01*
X365114Y175127D01*
X365124Y175361D01*
X365134Y175615D01*
Y178035D01*
D02*
G37*
G36*
Y171613D02*
X358721D01*
Y170315D01*
X365134D01*
Y171613D01*
D02*
G37*
G36*
X365251Y169310D02*
Y166167D01*
X365241Y166236D01*
Y166323D01*
X365231Y166431D01*
X365212Y166538D01*
X365202Y166665D01*
X365143Y166938D01*
X365075Y167231D01*
X364968Y167534D01*
X364909Y167680D01*
X364831Y167826D01*
X364821Y167836D01*
X364811Y167856D01*
X364782Y167895D01*
X364753Y167944D01*
X364714Y168012D01*
X364655Y168080D01*
X364519Y168246D01*
X364353Y168422D01*
X364148Y168607D01*
X363904Y168783D01*
X363631Y168939D01*
X363621D01*
X363592Y168959D01*
X363552Y168968D01*
X363494Y168998D01*
X363416Y169027D01*
X363328Y169056D01*
X363230Y169086D01*
X363123Y169125D01*
X362996Y169164D01*
X362860Y169193D01*
X362577Y169252D01*
X362254Y169290D01*
X361913Y169310D01*
X361815D01*
X361747Y169300D01*
X361659D01*
X361552Y169290D01*
X361444Y169271D01*
X361317Y169261D01*
X361044Y169212D01*
X360742Y169134D01*
X360439Y169037D01*
X360137Y168900D01*
X360127Y168890D01*
X360097Y168881D01*
X360058Y168851D01*
X360010Y168822D01*
X359941Y168773D01*
X359863Y168724D01*
X359697Y168588D01*
X359502Y168412D01*
X359297Y168207D01*
X359112Y167953D01*
X358936Y167670D01*
Y167661D01*
X358926Y167641D01*
X358907Y167612D01*
X358887Y167563D01*
X358858Y167495D01*
X358838Y167426D01*
X358809Y167339D01*
X358770Y167251D01*
X358741Y167143D01*
X358712Y167026D01*
X358692Y166899D01*
X358663Y166763D01*
X358624Y166470D01*
X358614Y166138D01*
Y166021D01*
X358624Y165943D01*
X358633Y165845D01*
X358643Y165728D01*
X358653Y165601D01*
X358672Y165455D01*
X358741Y165162D01*
X358829Y164850D01*
X358887Y164703D01*
X358956Y164557D01*
X359034Y164410D01*
X359121Y164284D01*
X359131Y164274D01*
X359141Y164254D01*
X359170Y164215D01*
X359209Y164176D01*
X359268Y164118D01*
X359326Y164059D01*
X359395Y163991D01*
X359483Y163923D01*
X359570Y163844D01*
X359678Y163776D01*
X359785Y163698D01*
X359912Y163630D01*
X360175Y163513D01*
X360332Y163454D01*
X360488Y163415D01*
X360732Y164703D01*
X360722D01*
X360712Y164713D01*
X360654Y164733D01*
X360566Y164762D01*
X360459Y164820D01*
X360341Y164889D01*
X360224Y164977D01*
X360097Y165084D01*
X359990Y165211D01*
X359980Y165230D01*
X359951Y165279D01*
X359902Y165357D01*
X359853Y165465D01*
X359805Y165601D01*
X359756Y165757D01*
X359727Y165943D01*
X359717Y166138D01*
Y166216D01*
X359727Y166275D01*
X359736Y166353D01*
X359746Y166431D01*
X359785Y166626D01*
X359853Y166841D01*
X359951Y167065D01*
X360010Y167173D01*
X360078Y167280D01*
X360166Y167387D01*
X360263Y167485D01*
X360273Y167495D01*
X360293Y167504D01*
X360322Y167534D01*
X360361Y167563D01*
X360420Y167602D01*
X360488Y167641D01*
X360566Y167680D01*
X360664Y167729D01*
X360771Y167778D01*
X360888Y167817D01*
X361025Y167856D01*
X361161Y167895D01*
X361317Y167924D01*
X361493Y167953D01*
X361669Y167963D01*
X361864Y167973D01*
X361874D01*
X361913D01*
X361971D01*
X362049Y167963D01*
X362147Y167953D01*
X362254Y167944D01*
X362371Y167934D01*
X362508Y167914D01*
X362781Y167856D01*
X363074Y167758D01*
X363211Y167709D01*
X363338Y167641D01*
X363465Y167563D01*
X363582Y167475D01*
X363592Y167465D01*
X363601Y167456D01*
X363631Y167426D01*
X363670Y167387D01*
X363709Y167329D01*
X363757Y167270D01*
X363816Y167202D01*
X363865Y167114D01*
X363972Y166929D01*
X364060Y166704D01*
X364099Y166577D01*
X364119Y166441D01*
X364138Y166294D01*
X364148Y166148D01*
Y166079D01*
X364138Y166001D01*
X364128Y165894D01*
X364109Y165777D01*
X364079Y165640D01*
X364040Y165494D01*
X363992Y165338D01*
X363982Y165318D01*
X363962Y165269D01*
X363933Y165191D01*
X363884Y165094D01*
X363826Y164986D01*
X363757Y164869D01*
X363689Y164752D01*
X363601Y164635D01*
X362781D01*
Y166109D01*
X361698D01*
Y163327D01*
X365251D01*
X364265D01*
X364284Y163347D01*
X364333Y163405D01*
X364402Y163493D01*
X364499Y163630D01*
X364607Y163796D01*
X364724Y164001D01*
X364841Y164235D01*
X364958Y164508D01*
Y164518D01*
X364968Y164547D01*
X364987Y164586D01*
X365007Y164645D01*
X365026Y164713D01*
X365046Y164791D01*
X365075Y164889D01*
X365104Y164996D01*
X365153Y165230D01*
X365202Y165494D01*
X365241Y165777D01*
X365251Y166070D01*
Y169310D01*
D02*
G37*
G36*
X365134Y160067D02*
X365104D01*
X365065Y160058D01*
X365026Y160048D01*
X364968Y160038D01*
X364899Y160028D01*
X364743Y159989D01*
X364548Y159940D01*
X364343Y159862D01*
X364128Y159774D01*
X363914Y159657D01*
X363904D01*
X363884Y159638D01*
X363855Y159618D01*
X363806Y159589D01*
X363748Y159540D01*
X363679Y159492D01*
X363592Y159423D01*
X363504Y159355D01*
X363396Y159267D01*
X363279Y159160D01*
X363152Y159052D01*
X363016Y158925D01*
X362869Y158779D01*
X362713Y158633D01*
X362547Y158457D01*
X362371Y158272D01*
X362362Y158262D01*
X362342Y158232D01*
X362293Y158193D01*
X362245Y158135D01*
X362186Y158076D01*
X362108Y157998D01*
X361952Y157832D01*
X361776Y157657D01*
X361600Y157491D01*
X361522Y157413D01*
X361454Y157344D01*
X361386Y157286D01*
X361327Y157247D01*
X361308Y157237D01*
X361259Y157208D01*
X361191Y157169D01*
X361093Y157120D01*
X360976Y157071D01*
X360849Y157032D01*
X360712Y157003D01*
X360576Y156993D01*
X360556D01*
X360507D01*
X360429Y157003D01*
X360341Y157022D01*
X360244Y157052D01*
X360137Y157090D01*
X360029Y157139D01*
X359941Y157217D01*
X359931Y157227D01*
X359902Y157256D01*
X359873Y157305D01*
X359824Y157374D01*
X359785Y157461D01*
X359756Y157569D01*
X359727Y157696D01*
X359717Y157832D01*
Y157891D01*
X359727Y157969D01*
X359746Y158047D01*
X359775Y158145D01*
X359814Y158252D01*
X359873Y158350D01*
X359951Y158447D01*
X359961Y158457D01*
X360000Y158486D01*
X360049Y158516D01*
X360137Y158564D01*
X360244Y158603D01*
X360371Y158652D01*
X360537Y158681D01*
X360722Y158701D01*
X360605Y159921D01*
X360595D01*
X360556Y159911D01*
X360507D01*
X360439Y159892D01*
X360351Y159882D01*
X360263Y159853D01*
X360156Y159833D01*
X360039Y159794D01*
X359805Y159706D01*
X359561Y159589D01*
X359443Y159511D01*
X359336Y159433D01*
X359239Y159335D01*
X359151Y159238D01*
X359141Y159228D01*
X359131Y159208D01*
X359112Y159179D01*
X359082Y159130D01*
X359043Y159082D01*
X359004Y159013D01*
X358965Y158935D01*
X358926Y158838D01*
X358887Y158740D01*
X358848Y158633D01*
X358770Y158389D01*
X358721Y158115D01*
X358702Y157959D01*
Y158047D01*
Y157715D01*
X358712Y157647D01*
X358721Y157569D01*
X358731Y157471D01*
X358741Y157374D01*
X358770Y157256D01*
X358829Y157022D01*
X358916Y156768D01*
X358975Y156651D01*
X359043Y156524D01*
X359131Y156417D01*
X359219Y156310D01*
X359229Y156300D01*
X359239Y156290D01*
X359268Y156261D01*
X359307Y156222D01*
X359356Y156183D01*
X359424Y156134D01*
X359570Y156036D01*
X359756Y155939D01*
X359971Y155851D01*
X360215Y155783D01*
X360351Y155773D01*
X360488Y155763D01*
X362506D01*
X360556D01*
X360644Y155773D01*
X360751Y155783D01*
X360878Y155802D01*
X361015Y155832D01*
X361171Y155870D01*
X361317Y155919D01*
X361337Y155929D01*
X361386Y155949D01*
X361464Y155988D01*
X361561Y156036D01*
X361688Y156105D01*
X361825Y156193D01*
X361971Y156300D01*
X362127Y156417D01*
X362137Y156427D01*
X362176Y156456D01*
X362245Y156515D01*
X362333Y156603D01*
X362450Y156710D01*
X362596Y156856D01*
X362762Y157022D01*
X362947Y157227D01*
X362957Y157237D01*
X362967Y157256D01*
X362996Y157286D01*
X363035Y157315D01*
X363123Y157413D01*
X363240Y157530D01*
X363357Y157657D01*
X363474Y157774D01*
X363582Y157881D01*
X363621Y157920D01*
X363660Y157959D01*
X363670Y157969D01*
X363689Y157988D01*
X363718Y158018D01*
X363767Y158047D01*
X363865Y158135D01*
X363992Y158213D01*
Y155763D01*
X365134D01*
Y160067D01*
D02*
G37*
G36*
X362030Y154934D02*
X361864D01*
X361737Y154924D01*
X361600Y154914D01*
X361425Y154894D01*
X361249Y154875D01*
X361044Y154856D01*
X360634Y154777D01*
X360420Y154729D01*
X360205Y154660D01*
X360010Y154592D01*
X359814Y154504D01*
X359639Y154406D01*
X359483Y154289D01*
X359473Y154280D01*
X359453Y154260D01*
X359414Y154221D01*
X359356Y154172D01*
X359297Y154104D01*
X359239Y154026D01*
X359160Y153938D01*
X359092Y153831D01*
X359024Y153714D01*
X358946Y153587D01*
X358887Y153450D01*
X358819Y153304D01*
X358770Y153138D01*
X358731Y152972D01*
X358712Y152786D01*
X358702Y152601D01*
Y154934D01*
D01*
Y150659D01*
D01*
Y152533D01*
X358712Y152474D01*
Y152416D01*
X358721Y152347D01*
X358751Y152172D01*
X358799Y151986D01*
X358877Y151781D01*
X358975Y151576D01*
X359112Y151391D01*
Y151381D01*
X359131Y151371D01*
X359190Y151313D01*
X359278Y151234D01*
X359414Y151137D01*
X359580Y151030D01*
X359785Y150932D01*
X360029Y150844D01*
X360302Y150776D01*
X360429Y151967D01*
X360410D01*
X360371Y151976D01*
X360302Y151996D01*
X360224Y152015D01*
X360137Y152045D01*
X360049Y152084D01*
X359961Y152132D01*
X359893Y152201D01*
X359883Y152210D01*
X359863Y152230D01*
X359834Y152269D01*
X359805Y152328D01*
X359775Y152396D01*
X359746Y152474D01*
X359727Y152562D01*
X359717Y152669D01*
Y152689D01*
X359727Y152738D01*
X359736Y152806D01*
X359756Y152894D01*
X359805Y153001D01*
X359863Y153118D01*
X359951Y153226D01*
X360068Y153333D01*
X360088Y153343D01*
X360107Y153362D01*
X360137Y153372D01*
X360185Y153392D01*
X360234Y153421D01*
X360302Y153450D01*
X360381Y153470D01*
X360468Y153499D01*
X360576Y153528D01*
X360693Y153557D01*
X360829Y153587D01*
X360976Y153606D01*
X361142Y153626D01*
X361327Y153645D01*
X361522Y153665D01*
X361513Y153655D01*
X361503Y153645D01*
X361474Y153616D01*
X361435Y153587D01*
X361347Y153479D01*
X361249Y153352D01*
X361152Y153187D01*
X361064Y152991D01*
X360995Y152767D01*
X360986Y152650D01*
X360976Y152523D01*
Y152445D01*
X360986Y152396D01*
X360995Y152328D01*
X361005Y152250D01*
X361054Y152074D01*
X361122Y151869D01*
X361171Y151762D01*
X361230Y151654D01*
X361298Y151537D01*
X361376Y151430D01*
X361464Y151322D01*
X361571Y151215D01*
X361581Y151205D01*
X361600Y151196D01*
X361630Y151166D01*
X361679Y151127D01*
X361737Y151088D01*
X361805Y151039D01*
X361883Y150990D01*
X361981Y150932D01*
X362079Y150883D01*
X362196Y150834D01*
X362323Y150786D01*
X362459Y150747D01*
X362596Y150707D01*
X362752Y150678D01*
X362918Y150668D01*
X363084Y150659D01*
X358702D01*
X365251D01*
X363182D01*
X363250Y150668D01*
X363328Y150678D01*
X363426Y150688D01*
X363533Y150707D01*
X363650Y150727D01*
X363904Y150805D01*
X364031Y150844D01*
X364167Y150903D01*
X364294Y150971D01*
X364421Y151049D01*
X364548Y151137D01*
X364665Y151244D01*
X364675Y151254D01*
X364694Y151274D01*
X364724Y151303D01*
X364753Y151352D01*
X364802Y151400D01*
X364851Y151469D01*
X364899Y151557D01*
X364958Y151644D01*
X365017Y151742D01*
X365065Y151859D01*
X365114Y151976D01*
X365163Y152113D01*
X365192Y152250D01*
X365221Y152396D01*
X365241Y152552D01*
X365251Y152718D01*
Y152757D01*
X365241Y152816D01*
Y152884D01*
X365231Y152962D01*
X365212Y153060D01*
X365192Y153167D01*
X365153Y153284D01*
X365114Y153411D01*
X365065Y153538D01*
X365007Y153674D01*
X364929Y153801D01*
X364851Y153938D01*
X364743Y154075D01*
X364636Y154202D01*
X364499Y154319D01*
X364489Y154328D01*
X364460Y154348D01*
X364421Y154377D01*
X364353Y154416D01*
X364275Y154465D01*
X364167Y154514D01*
X364050Y154572D01*
X363904Y154621D01*
X363748Y154680D01*
X363562Y154738D01*
X363367Y154787D01*
X363142Y154836D01*
X362898Y154875D01*
X362625Y154904D01*
X362342Y154924D01*
X362030Y154934D01*
D02*
G37*
%LPD*%
G36*
X364050Y175595D02*
X364040Y175478D01*
Y175361D01*
X364021Y175225D01*
X364011Y175108D01*
X363992Y175010D01*
Y175000D01*
X363972Y174951D01*
X363953Y174893D01*
X363933Y174824D01*
X363845Y174649D01*
X363796Y174561D01*
X363728Y174483D01*
X363718Y174473D01*
X363689Y174444D01*
X363650Y174415D01*
X363582Y174366D01*
X363494Y174307D01*
X363387Y174258D01*
X363260Y174200D01*
X363113Y174151D01*
X363104D01*
X363094Y174141D01*
X363065D01*
X363035Y174132D01*
X362938Y174112D01*
X362801Y174083D01*
X362635Y174053D01*
X362430Y174034D01*
X362196Y174024D01*
X361932Y174014D01*
X361923D01*
X361903D01*
X361864D01*
X361805D01*
X361747D01*
X361679Y174024D01*
X361513Y174034D01*
X361327Y174044D01*
X361142Y174073D01*
X360956Y174102D01*
X360800Y174151D01*
X360781Y174161D01*
X360732Y174170D01*
X360664Y174200D01*
X360576Y174239D01*
X360468Y174297D01*
X360371Y174356D01*
X360263Y174424D01*
X360175Y174512D01*
X360166Y174522D01*
X360137Y174551D01*
X360097Y174610D01*
X360049Y174678D01*
X360000Y174756D01*
X359951Y174864D01*
X359912Y174981D01*
X359873Y175108D01*
Y175117D01*
X359863Y175166D01*
X359853Y175234D01*
X359834Y175342D01*
Y175410D01*
X359824Y175488D01*
Y175566D01*
X359814Y175664D01*
Y175771D01*
X359805Y175888D01*
Y176737D01*
X364050D01*
Y175595D01*
D02*
G37*
G36*
X363191Y153538D02*
X363328Y153518D01*
X363474Y153489D01*
X363631Y153440D01*
X363777Y153372D01*
X363914Y153284D01*
X363923Y153274D01*
X363962Y153235D01*
X364011Y153177D01*
X364070Y153099D01*
X364138Y153011D01*
X364187Y152903D01*
X364226Y152786D01*
X364236Y152659D01*
Y152601D01*
X364226Y152542D01*
X364206Y152464D01*
X364167Y152367D01*
X364128Y152279D01*
X364060Y152181D01*
X363972Y152093D01*
X363962Y152084D01*
X363923Y152054D01*
X363855Y152015D01*
X363767Y151976D01*
X363640Y151937D01*
X363494Y151898D01*
X363309Y151869D01*
X363094Y151859D01*
X363084D01*
X363065D01*
X363035D01*
X362986D01*
X362879Y151869D01*
X362742Y151888D01*
X362596Y151918D01*
X362440Y151967D01*
X362303Y152025D01*
X362176Y152113D01*
X362167Y152123D01*
X362127Y152152D01*
X362079Y152210D01*
X362030Y152279D01*
X361971Y152367D01*
X361932Y152474D01*
X361893Y152591D01*
X361883Y152718D01*
Y152777D01*
X361893Y152845D01*
X361923Y152923D01*
X361952Y153021D01*
X362001Y153118D01*
X362069Y153216D01*
X362167Y153313D01*
X362176Y153323D01*
X362215Y153352D01*
X362284Y153392D01*
X362371Y153430D01*
X362489Y153479D01*
X362625Y153518D01*
X362791Y153548D01*
X362986Y153557D01*
X362996D01*
X363016D01*
X363045D01*
X363084D01*
X363191Y153538D01*
D02*
G37*
%LPC*%
G36*
X365118Y139847D02*
X358706D01*
Y137299D01*
X358716Y137221D01*
X358725Y137045D01*
X358735Y136840D01*
X358755Y136645D01*
X358794Y136450D01*
X358833Y136274D01*
Y136265D01*
X358842Y136245D01*
X358852Y136216D01*
X358862Y136177D01*
X358911Y136079D01*
X358969Y135942D01*
X359047Y135796D01*
X359155Y135640D01*
X359282Y135474D01*
X359428Y135318D01*
Y135308D01*
X359448Y135298D01*
X359506Y135249D01*
X359594Y135181D01*
X359711Y135084D01*
X359867Y134986D01*
X360043Y134888D01*
X360238Y134791D01*
X360463Y134703D01*
X360472D01*
X360492Y134693D01*
X360521Y134684D01*
X360570Y134674D01*
X360629Y134654D01*
X360707Y134635D01*
X360785Y134615D01*
X360882Y134596D01*
X360990Y134576D01*
X361097Y134557D01*
X361361Y134518D01*
X361653Y134498D01*
X361975Y134488D01*
X362112D01*
X362180Y134498D01*
X362258D01*
X362444Y134518D01*
X362659Y134537D01*
X362883Y134576D01*
X363117Y134625D01*
X363342Y134693D01*
X363351D01*
X363371Y134703D01*
X363410Y134713D01*
X363459Y134732D01*
X363517Y134762D01*
X363586Y134791D01*
X363742Y134869D01*
X363927Y134967D01*
X364113Y135084D01*
X364298Y135220D01*
X364474Y135376D01*
X364484Y135396D01*
X364532Y135435D01*
X364591Y135513D01*
X364659Y135611D01*
X364747Y135747D01*
X364835Y135904D01*
X364913Y136079D01*
X364991Y136284D01*
X365001Y136304D01*
X365011Y136362D01*
X365030Y136450D01*
X365050Y136587D01*
X365079Y136743D01*
X365099Y136938D01*
X365108Y137172D01*
X365118Y137426D01*
Y134488D01*
D01*
D01*
Y139847D01*
D02*
G37*
G36*
Y133424D02*
X358706D01*
Y132126D01*
X365118D01*
Y133424D01*
D02*
G37*
G36*
X365235Y131121D02*
D01*
Y127978D01*
X365226Y128047D01*
Y128135D01*
X365216Y128242D01*
X365196Y128349D01*
X365186Y128476D01*
X365128Y128749D01*
X365059Y129042D01*
X364952Y129345D01*
X364894Y129491D01*
X364815Y129638D01*
X364806Y129647D01*
X364796Y129667D01*
X364767Y129706D01*
X364738Y129755D01*
X364698Y129823D01*
X364640Y129891D01*
X364503Y130057D01*
X364337Y130233D01*
X364132Y130418D01*
X363888Y130594D01*
X363615Y130750D01*
X363605D01*
X363576Y130770D01*
X363537Y130780D01*
X363478Y130809D01*
X363400Y130838D01*
X363313Y130867D01*
X363215Y130897D01*
X363107Y130936D01*
X362981Y130975D01*
X362844Y131004D01*
X362561Y131062D01*
X362239Y131102D01*
X361897Y131121D01*
X365235D01*
X358598D01*
X361800D01*
X361731Y131111D01*
X361644D01*
X361536Y131102D01*
X361429Y131082D01*
X361302Y131072D01*
X361029Y131024D01*
X360726Y130945D01*
X360423Y130848D01*
X360121Y130711D01*
X360111Y130701D01*
X360082Y130692D01*
X360043Y130662D01*
X359994Y130633D01*
X359926Y130584D01*
X359848Y130535D01*
X359682Y130399D01*
X359487Y130223D01*
X359282Y130018D01*
X359096Y129764D01*
X358921Y129481D01*
Y129472D01*
X358911Y129452D01*
X358891Y129423D01*
X358872Y129374D01*
X358842Y129306D01*
X358823Y129237D01*
X358794Y129149D01*
X358755Y129062D01*
X358725Y128954D01*
X358696Y128837D01*
X358677Y128710D01*
X358647Y128574D01*
X358608Y128281D01*
X358598Y127949D01*
Y127832D01*
X358608Y127754D01*
X358618Y127656D01*
X358628Y127539D01*
X358637Y127412D01*
X358657Y127266D01*
X358725Y126973D01*
X358813Y126661D01*
X358872Y126514D01*
X358940Y126368D01*
X359018Y126222D01*
X359106Y126095D01*
X359116Y126085D01*
X359125Y126065D01*
X359155Y126026D01*
X359194Y125987D01*
X359252Y125929D01*
X359311Y125870D01*
X359379Y125802D01*
X359467Y125733D01*
X359555Y125655D01*
X359662Y125587D01*
X359770Y125509D01*
X359896Y125441D01*
X360160Y125324D01*
X360316Y125265D01*
X360472Y125226D01*
X360716Y126514D01*
X360707D01*
X360697Y126524D01*
X360638Y126544D01*
X360550Y126573D01*
X360443Y126631D01*
X360326Y126700D01*
X360209Y126788D01*
X360082Y126895D01*
X359975Y127022D01*
X359965Y127041D01*
X359936Y127090D01*
X359887Y127168D01*
X359838Y127276D01*
X359789Y127412D01*
X359740Y127568D01*
X359711Y127754D01*
X359701Y127949D01*
Y128027D01*
X359711Y128086D01*
X359721Y128164D01*
X359731Y128242D01*
X359770Y128437D01*
X359838Y128652D01*
X359936Y128876D01*
X359994Y128984D01*
X360062Y129091D01*
X360150Y129198D01*
X360248Y129296D01*
X360258Y129306D01*
X360277Y129315D01*
X360306Y129345D01*
X360346Y129374D01*
X360404Y129413D01*
X360472Y129452D01*
X360550Y129491D01*
X360648Y129540D01*
X360755Y129589D01*
X360873Y129628D01*
X361009Y129667D01*
X361146Y129706D01*
X361302Y129735D01*
X361478Y129764D01*
X361653Y129774D01*
X361848Y129784D01*
X361858D01*
X361897D01*
X361956D01*
X362034Y129774D01*
X362132Y129764D01*
X362239Y129755D01*
X362356Y129745D01*
X362493Y129725D01*
X362766Y129667D01*
X363059Y129569D01*
X363195Y129520D01*
X363322Y129452D01*
X363449Y129374D01*
X363566Y129286D01*
X363576Y129276D01*
X363586Y129267D01*
X363615Y129237D01*
X363654Y129198D01*
X363693Y129140D01*
X363742Y129081D01*
X363801Y129013D01*
X363849Y128925D01*
X363957Y128740D01*
X364044Y128515D01*
X364084Y128388D01*
X364103Y128252D01*
X364123Y128105D01*
X364132Y127959D01*
Y127891D01*
X364123Y127812D01*
X364113Y127705D01*
X364093Y127588D01*
X364064Y127451D01*
X364025Y127305D01*
X363976Y127149D01*
X363966Y127129D01*
X363947Y127080D01*
X363918Y127002D01*
X363869Y126905D01*
X363810Y126797D01*
X363742Y126680D01*
X363674Y126563D01*
X363586Y126446D01*
X362766D01*
Y127920D01*
X361683D01*
Y125138D01*
X358598D01*
X364249D01*
X364269Y125158D01*
X364318Y125216D01*
X364386Y125304D01*
X364484Y125441D01*
X364591Y125607D01*
X364708Y125812D01*
X364825Y126046D01*
X364942Y126319D01*
Y126329D01*
X364952Y126358D01*
X364972Y126397D01*
X364991Y126456D01*
X365011Y126524D01*
X365030Y126602D01*
X365059Y126700D01*
X365089Y126807D01*
X365138Y127041D01*
X365186Y127305D01*
X365226Y127588D01*
X365235Y127881D01*
Y125138D01*
D01*
D01*
Y131121D01*
D02*
G37*
G36*
X365118Y121878D02*
X365089D01*
X365050Y121869D01*
X365011Y121859D01*
X364952Y121849D01*
X364884Y121839D01*
X364728Y121800D01*
X364532Y121751D01*
X364328Y121673D01*
X364113Y121586D01*
X363898Y121468D01*
X363888D01*
X363869Y121449D01*
X363840Y121429D01*
X363791Y121400D01*
X363732Y121351D01*
X363664Y121302D01*
X363576Y121234D01*
X363488Y121166D01*
X363381Y121078D01*
X363264Y120971D01*
X363137Y120863D01*
X363000Y120736D01*
X362854Y120590D01*
X362698Y120444D01*
X362532Y120268D01*
X362356Y120082D01*
X362346Y120073D01*
X362327Y120044D01*
X362278Y120004D01*
X362229Y119946D01*
X362171Y119887D01*
X362092Y119809D01*
X361936Y119643D01*
X361761Y119468D01*
X361585Y119302D01*
X361507Y119224D01*
X361439Y119155D01*
X361370Y119097D01*
X361312Y119058D01*
X361292Y119048D01*
X361243Y119019D01*
X361175Y118980D01*
X361077Y118931D01*
X360960Y118882D01*
X360834Y118843D01*
X360697Y118814D01*
X360560Y118804D01*
X360541D01*
X360492D01*
X360414Y118814D01*
X360326Y118833D01*
X360228Y118862D01*
X360121Y118902D01*
X360014Y118950D01*
X359926Y119028D01*
X359916Y119038D01*
X359887Y119068D01*
X359858Y119116D01*
X359809Y119185D01*
X359770Y119272D01*
X359740Y119380D01*
X359711Y119507D01*
X359701Y119643D01*
Y119702D01*
X359711Y119780D01*
X359731Y119858D01*
X359760Y119956D01*
X359799Y120063D01*
X359858Y120161D01*
X359936Y120258D01*
X359945Y120268D01*
X359984Y120297D01*
X360033Y120326D01*
X360121Y120375D01*
X360228Y120414D01*
X360355Y120463D01*
X360521Y120492D01*
X360707Y120512D01*
X360590Y121732D01*
X360580D01*
X360541Y121722D01*
X360492D01*
X360423Y121703D01*
X360336Y121693D01*
X360248Y121664D01*
X360140Y121644D01*
X360023Y121605D01*
X359789Y121517D01*
X359545Y121400D01*
X359428Y121322D01*
X359321Y121244D01*
X359223Y121146D01*
X359135Y121049D01*
X359125Y121039D01*
X359116Y121019D01*
X359096Y120990D01*
X359067Y120941D01*
X359028Y120893D01*
X358989Y120824D01*
X358950Y120746D01*
X358911Y120649D01*
X358872Y120551D01*
X358833Y120444D01*
X358755Y120200D01*
X358706Y119926D01*
X358686Y119770D01*
Y119526D01*
X358696Y119458D01*
X358706Y119380D01*
X358716Y119282D01*
X358725Y119185D01*
X358755Y119068D01*
X358813Y118833D01*
X358901Y118579D01*
X358960Y118462D01*
X359028Y118335D01*
X359116Y118228D01*
X359204Y118121D01*
X359213Y118111D01*
X359223Y118101D01*
X359252Y118072D01*
X359291Y118033D01*
X359340Y117994D01*
X359408Y117945D01*
X359555Y117848D01*
X359740Y117750D01*
X359955Y117662D01*
X360199Y117594D01*
X360336Y117584D01*
X360472Y117574D01*
X360541D01*
X360629Y117584D01*
X360736Y117594D01*
X360863Y117613D01*
X360999Y117642D01*
X361156Y117682D01*
X361302Y117730D01*
X361321Y117740D01*
X361370Y117760D01*
X361448Y117799D01*
X361546Y117848D01*
X361673Y117916D01*
X361809Y118004D01*
X361956Y118111D01*
X362112Y118228D01*
X362122Y118238D01*
X362161Y118267D01*
X362229Y118326D01*
X362317Y118413D01*
X362434Y118521D01*
X362580Y118667D01*
X362746Y118833D01*
X362932Y119038D01*
X362942Y119048D01*
X362951Y119068D01*
X362981Y119097D01*
X363020Y119126D01*
X363107Y119224D01*
X363225Y119341D01*
X363342Y119468D01*
X363459Y119585D01*
X363566Y119692D01*
X363605Y119731D01*
X363644Y119770D01*
X363654Y119780D01*
X363674Y119799D01*
X363703Y119829D01*
X363752Y119858D01*
X363849Y119946D01*
X363976Y120024D01*
Y117574D01*
X363729D01*
X365118D01*
Y121878D01*
D02*
G37*
G36*
Y116745D02*
Y115886D01*
X365099D01*
X365059D01*
X364991Y115876D01*
X364894D01*
X364767Y115866D01*
X364630Y115847D01*
X364464Y115827D01*
X364288Y115808D01*
X364093Y115778D01*
X363879Y115739D01*
X363654Y115691D01*
X363430Y115642D01*
X363186Y115583D01*
X362932Y115515D01*
X362678Y115427D01*
X362424Y115339D01*
X362405Y115329D01*
X362366Y115320D01*
X362288Y115281D01*
X362190Y115242D01*
X362073Y115193D01*
X361927Y115134D01*
X361770Y115056D01*
X361595Y114968D01*
X361409Y114880D01*
X361214Y114773D01*
X360794Y114539D01*
X360365Y114266D01*
X359945Y113963D01*
Y116745D01*
X365118D01*
X358803D01*
Y112548D01*
X359692D01*
X359701Y112557D01*
X359711Y112567D01*
X359750Y112597D01*
X359789Y112636D01*
X359838Y112684D01*
X359906Y112743D01*
X359984Y112811D01*
X360072Y112880D01*
X360170Y112958D01*
X360277Y113036D01*
X360404Y113124D01*
X360531Y113221D01*
X360677Y113309D01*
X360824Y113407D01*
X360990Y113514D01*
X361165Y113612D01*
X361175Y113621D01*
X361204Y113631D01*
X361263Y113660D01*
X361331Y113699D01*
X361419Y113748D01*
X361526Y113797D01*
X361644Y113856D01*
X361780Y113914D01*
X361927Y113982D01*
X362083Y114051D01*
X362249Y114119D01*
X362424Y114188D01*
X362805Y114314D01*
X363205Y114432D01*
X363215D01*
X363254Y114441D01*
X363313Y114461D01*
X363381Y114471D01*
X363478Y114500D01*
X363586Y114519D01*
X363713Y114549D01*
X363849Y114568D01*
X363996Y114597D01*
X364142Y114627D01*
X364464Y114666D01*
X364796Y114695D01*
X365118Y114705D01*
Y112548D01*
X365118D01*
X365118D01*
Y116745D01*
D02*
G37*
%LPD*%
G36*
X364035Y137407D02*
X364025Y137289D01*
Y137172D01*
X364005Y137036D01*
X363996Y136918D01*
X363976Y136821D01*
Y136811D01*
X363957Y136762D01*
X363937Y136704D01*
X363918Y136635D01*
X363830Y136460D01*
X363781Y136372D01*
X363713Y136294D01*
X363703Y136284D01*
X363674Y136255D01*
X363635Y136225D01*
X363566Y136177D01*
X363478Y136118D01*
X363371Y136069D01*
X363244Y136011D01*
X363098Y135962D01*
X363088D01*
X363078Y135952D01*
X363049D01*
X363020Y135942D01*
X362922Y135923D01*
X362786Y135894D01*
X362619Y135864D01*
X362415Y135845D01*
X362180Y135835D01*
X361917Y135825D01*
X361907D01*
X361888D01*
X361848D01*
X361790D01*
X361731D01*
X361663Y135835D01*
X361497Y135845D01*
X361312Y135855D01*
X361126Y135884D01*
X360941Y135913D01*
X360785Y135962D01*
X360765Y135972D01*
X360716Y135982D01*
X360648Y136011D01*
X360560Y136050D01*
X360453Y136108D01*
X360355Y136167D01*
X360248Y136235D01*
X360160Y136323D01*
X360150Y136333D01*
X360121Y136362D01*
X360082Y136421D01*
X360033Y136489D01*
X359984Y136567D01*
X359936Y136674D01*
X359896Y136792D01*
X359858Y136918D01*
Y136928D01*
X359848Y136977D01*
X359838Y137045D01*
X359818Y137153D01*
Y137221D01*
X359809Y137299D01*
Y137377D01*
X359799Y137475D01*
Y137582D01*
X359789Y137699D01*
Y138548D01*
X364035D01*
Y137407D01*
D02*
G37*
%LPC*%
G36*
X365134Y98508D02*
X358721D01*
Y93150D01*
D01*
Y95961D01*
X358731Y95882D01*
X358741Y95707D01*
X358751Y95502D01*
X358770Y95307D01*
X358809Y95111D01*
X358848Y94936D01*
Y94926D01*
X358858Y94907D01*
X358868Y94877D01*
X358877Y94838D01*
X358926Y94741D01*
X358985Y94604D01*
X359063Y94458D01*
X359170Y94301D01*
X359297Y94135D01*
X359443Y93979D01*
Y93970D01*
X359463Y93960D01*
X359522Y93911D01*
X359609Y93843D01*
X359727Y93745D01*
X359883Y93647D01*
X360058Y93550D01*
X360254Y93452D01*
X360478Y93364D01*
X360488D01*
X360507Y93355D01*
X360537Y93345D01*
X360585Y93335D01*
X360644Y93316D01*
X360722Y93296D01*
X360800Y93277D01*
X360898Y93257D01*
X361005Y93238D01*
X361112Y93218D01*
X361376Y93179D01*
X361669Y93159D01*
X361991Y93150D01*
X362127D01*
X362196Y93159D01*
X362274D01*
X362459Y93179D01*
X362674Y93199D01*
X362898Y93238D01*
X363133Y93286D01*
X363357Y93355D01*
X363367D01*
X363387Y93364D01*
X363426Y93374D01*
X363474Y93394D01*
X363533Y93423D01*
X363601Y93452D01*
X363757Y93530D01*
X363943Y93628D01*
X364128Y93745D01*
X364314Y93882D01*
X364489Y94038D01*
X364499Y94057D01*
X364548Y94096D01*
X364607Y94174D01*
X364675Y94272D01*
X364763Y94409D01*
X364851Y94565D01*
X364929Y94741D01*
X365007Y94946D01*
X365017Y94965D01*
X365026Y95024D01*
X365046Y95111D01*
X365065Y95248D01*
X365094Y95404D01*
X365114Y95599D01*
X365124Y95834D01*
X365134Y96087D01*
Y98508D01*
D02*
G37*
G36*
Y92086D02*
X358721D01*
Y90788D01*
X365134D01*
Y92086D01*
D02*
G37*
G36*
X365251Y89783D02*
X358614D01*
Y83800D01*
D01*
Y86493D01*
X358624Y86415D01*
X358633Y86318D01*
X358643Y86201D01*
X358653Y86074D01*
X358672Y85927D01*
X358741Y85634D01*
X358829Y85322D01*
X358887Y85176D01*
X358956Y85029D01*
X359034Y84883D01*
X359121Y84756D01*
X359131Y84746D01*
X359141Y84727D01*
X359170Y84688D01*
X359209Y84649D01*
X359268Y84590D01*
X359326Y84532D01*
X359395Y84463D01*
X359483Y84395D01*
X359570Y84317D01*
X359678Y84249D01*
X359785Y84171D01*
X359912Y84102D01*
X360175Y83985D01*
X360332Y83926D01*
X360488Y83887D01*
X360732Y85176D01*
X360722D01*
X360712Y85185D01*
X360654Y85205D01*
X360566Y85234D01*
X360459Y85293D01*
X360341Y85361D01*
X360224Y85449D01*
X360097Y85556D01*
X359990Y85683D01*
X359980Y85703D01*
X359951Y85752D01*
X359902Y85830D01*
X359853Y85937D01*
X359805Y86074D01*
X359756Y86230D01*
X359727Y86415D01*
X359717Y86611D01*
Y86689D01*
X359727Y86747D01*
X359736Y86825D01*
X359746Y86903D01*
X359785Y87098D01*
X359853Y87313D01*
X359951Y87538D01*
X360010Y87645D01*
X360078Y87752D01*
X360166Y87860D01*
X360263Y87957D01*
X360273Y87967D01*
X360293Y87977D01*
X360322Y88006D01*
X360361Y88035D01*
X360420Y88074D01*
X360488Y88113D01*
X360566Y88153D01*
X360664Y88201D01*
X360771Y88250D01*
X360888Y88289D01*
X361025Y88328D01*
X361161Y88367D01*
X361317Y88397D01*
X361493Y88426D01*
X361669Y88436D01*
X361864Y88445D01*
X361874D01*
X361913D01*
X361971D01*
X362049Y88436D01*
X362147Y88426D01*
X362254Y88416D01*
X362371Y88406D01*
X362508Y88387D01*
X362781Y88328D01*
X363074Y88231D01*
X363211Y88182D01*
X363338Y88113D01*
X363465Y88035D01*
X363582Y87948D01*
X363592Y87938D01*
X363601Y87928D01*
X363631Y87899D01*
X363670Y87860D01*
X363709Y87801D01*
X363757Y87743D01*
X363816Y87674D01*
X363865Y87586D01*
X363972Y87401D01*
X364060Y87177D01*
X364099Y87050D01*
X364119Y86913D01*
X364138Y86767D01*
X364148Y86620D01*
Y86552D01*
X364138Y86474D01*
X364128Y86366D01*
X364109Y86249D01*
X364079Y86113D01*
X364040Y85966D01*
X363992Y85810D01*
X363982Y85791D01*
X363962Y85742D01*
X363933Y85664D01*
X363884Y85566D01*
X363826Y85459D01*
X363757Y85342D01*
X363689Y85225D01*
X363601Y85107D01*
X362781D01*
Y86581D01*
X361698D01*
Y83800D01*
X358614D01*
X364265D01*
X364284Y83819D01*
X364333Y83878D01*
X364402Y83965D01*
X364499Y84102D01*
X364607Y84268D01*
X364724Y84473D01*
X364841Y84707D01*
X364958Y84981D01*
Y84990D01*
X364968Y85020D01*
X364987Y85059D01*
X365007Y85117D01*
X365026Y85185D01*
X365046Y85264D01*
X365075Y85361D01*
X365104Y85469D01*
X365153Y85703D01*
X365202Y85966D01*
X365241Y86249D01*
X365251Y86542D01*
Y86640D01*
X365241Y86708D01*
Y86796D01*
X365231Y86903D01*
X365212Y87011D01*
X365202Y87138D01*
X365143Y87411D01*
X365075Y87704D01*
X364968Y88006D01*
X364909Y88153D01*
X364831Y88299D01*
X364821Y88309D01*
X364811Y88328D01*
X364782Y88367D01*
X364753Y88416D01*
X364714Y88484D01*
X364655Y88553D01*
X364519Y88719D01*
X364353Y88894D01*
X364148Y89080D01*
X363904Y89255D01*
X363631Y89412D01*
X363621D01*
X363592Y89431D01*
X363552Y89441D01*
X363494Y89470D01*
X363416Y89499D01*
X363328Y89529D01*
X363230Y89558D01*
X363123Y89597D01*
X362996Y89636D01*
X362860Y89665D01*
X362577Y89724D01*
X362254Y89763D01*
X361913Y89783D01*
X365251D01*
D02*
G37*
G36*
X365134Y80540D02*
X365104D01*
X365065Y80530D01*
X365026Y80520D01*
X364968Y80510D01*
X364899Y80501D01*
X364743Y80462D01*
X364548Y80413D01*
X364343Y80335D01*
X364128Y80247D01*
X363914Y80130D01*
X363904D01*
X363884Y80110D01*
X363855Y80091D01*
X363806Y80062D01*
X363748Y80013D01*
X363679Y79964D01*
X363592Y79896D01*
X363504Y79827D01*
X363396Y79739D01*
X363279Y79632D01*
X363152Y79525D01*
X363016Y79398D01*
X362869Y79251D01*
X362713Y79105D01*
X362547Y78929D01*
X362371Y78744D01*
X362362Y78734D01*
X362342Y78705D01*
X362293Y78666D01*
X362245Y78607D01*
X362186Y78549D01*
X362108Y78471D01*
X361952Y78305D01*
X361776Y78129D01*
X361600Y77963D01*
X361522Y77885D01*
X361454Y77817D01*
X361386Y77758D01*
X361327Y77719D01*
X361308Y77709D01*
X361259Y77680D01*
X361191Y77641D01*
X361093Y77592D01*
X360976Y77543D01*
X360849Y77504D01*
X360712Y77475D01*
X360576Y77465D01*
X360556D01*
X360507D01*
X360429Y77475D01*
X360341Y77495D01*
X360244Y77524D01*
X360137Y77563D01*
X360029Y77612D01*
X359941Y77690D01*
X359931Y77700D01*
X359902Y77729D01*
X359873Y77778D01*
X359824Y77846D01*
X359785Y77934D01*
X359756Y78041D01*
X359727Y78168D01*
X359717Y78305D01*
Y78363D01*
X359727Y78441D01*
X359746Y78519D01*
X359775Y78617D01*
X359814Y78724D01*
X359873Y78822D01*
X359951Y78920D01*
X359961Y78929D01*
X360000Y78959D01*
X360049Y78988D01*
X360137Y79037D01*
X360244Y79076D01*
X360371Y79125D01*
X360537Y79154D01*
X360722Y79173D01*
X360605Y80393D01*
X360595D01*
X360556Y80384D01*
X360507D01*
X360439Y80364D01*
X360351Y80354D01*
X360263Y80325D01*
X360156Y80305D01*
X360039Y80266D01*
X359805Y80179D01*
X359561Y80062D01*
X359443Y79983D01*
X359336Y79905D01*
X359239Y79808D01*
X359151Y79710D01*
X359141Y79700D01*
X359131Y79681D01*
X359112Y79652D01*
X359082Y79603D01*
X359043Y79554D01*
X359004Y79486D01*
X358965Y79408D01*
X358926Y79310D01*
X358887Y79212D01*
X358848Y79105D01*
X358770Y78861D01*
X358721Y78588D01*
X358702Y78432D01*
Y78519D01*
Y78188D01*
X358712Y78119D01*
X358721Y78041D01*
X358731Y77944D01*
X358741Y77846D01*
X358770Y77729D01*
X358829Y77495D01*
X358916Y77241D01*
X358975Y77124D01*
X359043Y76997D01*
X359131Y76889D01*
X359219Y76782D01*
X359229Y76772D01*
X359239Y76763D01*
X359268Y76733D01*
X359307Y76694D01*
X359356Y76655D01*
X359424Y76607D01*
X359570Y76509D01*
X359756Y76411D01*
X359971Y76323D01*
X360215Y76255D01*
X360351Y76245D01*
X360488Y76236D01*
X360556D01*
X360644Y76245D01*
X360751Y76255D01*
X360878Y76275D01*
X361015Y76304D01*
X361171Y76343D01*
X361317Y76392D01*
X361337Y76402D01*
X361386Y76421D01*
X361464Y76460D01*
X361561Y76509D01*
X361688Y76577D01*
X361825Y76665D01*
X361971Y76772D01*
X362127Y76889D01*
X362137Y76899D01*
X362176Y76929D01*
X362245Y76987D01*
X362333Y77075D01*
X362450Y77182D01*
X362596Y77329D01*
X362762Y77495D01*
X362947Y77700D01*
X362957Y77709D01*
X362967Y77729D01*
X362996Y77758D01*
X363035Y77787D01*
X363123Y77885D01*
X363240Y78002D01*
X363357Y78129D01*
X363474Y78246D01*
X363582Y78354D01*
X363621Y78393D01*
X363660Y78432D01*
X363670Y78441D01*
X363689Y78461D01*
X363718Y78490D01*
X363767Y78519D01*
X363865Y78607D01*
X363992Y78685D01*
Y76236D01*
X365134D01*
Y80540D01*
D02*
G37*
G36*
X363992Y76236D02*
X363744D01*
X363992D01*
D01*
D02*
G37*
G36*
X365251Y75504D02*
X358702D01*
X360781D01*
X360712Y75494D01*
X360634Y75484D01*
X360537Y75474D01*
X360429Y75455D01*
X360312Y75435D01*
X360068Y75367D01*
X359931Y75318D01*
X359805Y75260D01*
X359668Y75191D01*
X359541Y75113D01*
X359424Y75025D01*
X359307Y74928D01*
X359297Y74918D01*
X359278Y74898D01*
X359248Y74869D01*
X359209Y74820D01*
X359170Y74762D01*
X359112Y74694D01*
X359063Y74615D01*
X359004Y74528D01*
X358946Y74430D01*
X358897Y74313D01*
X358838Y74196D01*
X358799Y74059D01*
X358760Y73922D01*
X358731Y73776D01*
X358712Y73620D01*
X358702Y73454D01*
Y73571D01*
Y71229D01*
Y73356D01*
X358712Y73288D01*
X358721Y73210D01*
X358741Y73112D01*
X358770Y73005D01*
X358799Y72888D01*
X358838Y72761D01*
X358887Y72634D01*
X358946Y72497D01*
X359024Y72371D01*
X359112Y72234D01*
X359209Y72097D01*
X359326Y71970D01*
X359463Y71853D01*
X359473Y71844D01*
X359502Y71824D01*
X359541Y71795D01*
X359609Y71756D01*
X359687Y71707D01*
X359795Y71658D01*
X359912Y71600D01*
X360058Y71541D01*
X360215Y71482D01*
X360400Y71424D01*
X360605Y71375D01*
X360829Y71326D01*
X361073Y71287D01*
X361337Y71258D01*
X361630Y71238D01*
X361942Y71229D01*
X362108D01*
X362225Y71238D01*
X362371Y71248D01*
X362537Y71268D01*
X362723Y71287D01*
X362918Y71307D01*
X363338Y71385D01*
X363543Y71443D01*
X363757Y71502D01*
X363953Y71580D01*
X364148Y71668D01*
X364323Y71766D01*
X364480Y71883D01*
X364489Y71892D01*
X364509Y71912D01*
X364548Y71951D01*
X364597Y72000D01*
X364655Y72068D01*
X364724Y72146D01*
X364792Y72234D01*
X364860Y72341D01*
X364938Y72458D01*
X365007Y72585D01*
X365075Y72722D01*
X365134Y72868D01*
X365182Y73034D01*
X365221Y73200D01*
X365241Y73386D01*
X365251Y73571D01*
Y73639D01*
X365241Y73698D01*
Y73757D01*
X365231Y73835D01*
X365202Y74001D01*
X365153Y74196D01*
X365085Y74401D01*
X364987Y74606D01*
X364851Y74791D01*
X364841D01*
X364831Y74811D01*
X364773Y74869D01*
X364685Y74947D01*
X364548Y75035D01*
X364382Y75133D01*
X364177Y75230D01*
X363933Y75318D01*
X363660Y75377D01*
X363523Y74186D01*
X363543D01*
X363582Y74176D01*
X363650Y74167D01*
X363728Y74147D01*
X363816Y74118D01*
X363914Y74079D01*
X363992Y74030D01*
X364070Y73971D01*
X364079Y73962D01*
X364099Y73942D01*
X364119Y73893D01*
X364148Y73844D01*
X364187Y73766D01*
X364206Y73688D01*
X364226Y73591D01*
X364236Y73483D01*
Y73464D01*
X364226Y73415D01*
X364216Y73347D01*
X364197Y73259D01*
X364148Y73161D01*
X364089Y73054D01*
X364011Y72947D01*
X363894Y72839D01*
X363875Y72829D01*
X363855Y72810D01*
X363826Y72800D01*
X363777Y72771D01*
X363728Y72751D01*
X363660Y72722D01*
X363582Y72693D01*
X363484Y72673D01*
X363387Y72644D01*
X363269Y72615D01*
X363133Y72585D01*
X362986Y72556D01*
X362821Y72537D01*
X362635Y72517D01*
X362440Y72497D01*
X362450Y72507D01*
X362459Y72517D01*
X362489Y72546D01*
X362528Y72585D01*
X362606Y72683D01*
X362703Y72820D01*
X362811Y72986D01*
X362889Y73181D01*
X362957Y73405D01*
X362967Y73532D01*
X362977Y73659D01*
Y73727D01*
X362967Y73786D01*
X362957Y73854D01*
X362947Y73922D01*
X362908Y74098D01*
X362840Y74303D01*
X362791Y74410D01*
X362733Y74528D01*
X362664Y74635D01*
X362586Y74742D01*
X362498Y74850D01*
X362401Y74957D01*
X362391Y74967D01*
X362371Y74977D01*
X362342Y75006D01*
X362293Y75045D01*
X362235Y75084D01*
X362167Y75133D01*
X362088Y75182D01*
X361991Y75230D01*
X361883Y75279D01*
X361776Y75328D01*
X361649Y75377D01*
X361513Y75416D01*
X361210Y75484D01*
X361054Y75494D01*
X360878Y75504D01*
X365251D01*
D02*
G37*
%LPD*%
G36*
X364050Y96068D02*
X364040Y95951D01*
Y95834D01*
X364021Y95697D01*
X364011Y95580D01*
X363992Y95482D01*
Y95473D01*
X363972Y95424D01*
X363953Y95365D01*
X363933Y95297D01*
X363845Y95121D01*
X363796Y95033D01*
X363728Y94955D01*
X363718Y94946D01*
X363689Y94916D01*
X363650Y94887D01*
X363582Y94838D01*
X363494Y94780D01*
X363387Y94731D01*
X363260Y94672D01*
X363113Y94623D01*
X363104D01*
X363094Y94614D01*
X363065D01*
X363035Y94604D01*
X362938Y94584D01*
X362801Y94555D01*
X362635Y94526D01*
X362430Y94506D01*
X362196Y94497D01*
X361932Y94487D01*
X361923D01*
X361903D01*
X361864D01*
X361805D01*
X361747D01*
X361679Y94497D01*
X361513Y94506D01*
X361327Y94516D01*
X361142Y94545D01*
X360956Y94575D01*
X360800Y94623D01*
X360781Y94633D01*
X360732Y94643D01*
X360664Y94672D01*
X360576Y94711D01*
X360468Y94770D01*
X360371Y94828D01*
X360263Y94897D01*
X360175Y94985D01*
X360166Y94994D01*
X360137Y95024D01*
X360097Y95082D01*
X360049Y95151D01*
X360000Y95229D01*
X359951Y95336D01*
X359912Y95453D01*
X359873Y95580D01*
Y95590D01*
X359863Y95639D01*
X359853Y95707D01*
X359834Y95814D01*
Y95882D01*
X359824Y95961D01*
Y96039D01*
X359814Y96136D01*
Y96244D01*
X359805Y96361D01*
Y97210D01*
X364050D01*
Y96068D01*
D02*
G37*
G36*
X361747Y89773D02*
X361659D01*
X361552Y89763D01*
X361444Y89743D01*
X361317Y89734D01*
X361044Y89685D01*
X360742Y89607D01*
X360439Y89509D01*
X360137Y89373D01*
X360127Y89363D01*
X360097Y89353D01*
X360058Y89324D01*
X360010Y89294D01*
X359941Y89246D01*
X359863Y89197D01*
X359697Y89060D01*
X359502Y88885D01*
X359297Y88680D01*
X359112Y88426D01*
X358936Y88143D01*
Y88133D01*
X358926Y88113D01*
X358907Y88084D01*
X358887Y88035D01*
X358858Y87967D01*
X358838Y87899D01*
X358809Y87811D01*
X358770Y87723D01*
X358741Y87616D01*
X358712Y87499D01*
X358692Y87372D01*
X358663Y87235D01*
X358624Y86942D01*
X358614Y86611D01*
Y89783D01*
X361815D01*
X361747Y89773D01*
D02*
G37*
G36*
X361093Y74284D02*
X361230Y74264D01*
X361376Y74235D01*
X361532Y74196D01*
X361669Y74137D01*
X361796Y74059D01*
X361805Y74049D01*
X361835Y74010D01*
X361883Y73962D01*
X361932Y73893D01*
X361991Y73805D01*
X362030Y73698D01*
X362069Y73581D01*
X362079Y73444D01*
Y73386D01*
X362059Y73317D01*
X362040Y73239D01*
X362010Y73142D01*
X361962Y73044D01*
X361893Y72947D01*
X361805Y72849D01*
X361796Y72839D01*
X361757Y72810D01*
X361688Y72771D01*
X361591Y72722D01*
X361474Y72683D01*
X361337Y72644D01*
X361171Y72615D01*
X360976Y72605D01*
X360966D01*
X360946D01*
X360917D01*
X360878D01*
X360771Y72615D01*
X360634Y72634D01*
X360488Y72673D01*
X360332Y72722D01*
X360185Y72790D01*
X360049Y72878D01*
X360039Y72888D01*
X360000Y72927D01*
X359941Y72986D01*
X359883Y73064D01*
X359824Y73151D01*
X359766Y73259D01*
X359727Y73386D01*
X359717Y73513D01*
Y73571D01*
X359727Y73630D01*
X359746Y73708D01*
X359785Y73805D01*
X359834Y73893D01*
X359902Y73991D01*
X359990Y74079D01*
X360000Y74088D01*
X360039Y74108D01*
X360107Y74147D01*
X360205Y74186D01*
X360322Y74225D01*
X360478Y74264D01*
X360664Y74284D01*
X360878Y74293D01*
X360888D01*
X360908D01*
X360937D01*
X360976D01*
X361093Y74284D01*
D02*
G37*
D16*
X430315Y64961D02*
Y104961D01*
X380315Y64961D02*
Y104961D01*
Y64961D02*
X430315D01*
X380315Y104961D02*
X430315D01*
X380315D02*
X430315D01*
X380315Y64961D02*
X430315D01*
X380315D02*
Y104961D01*
X430315Y64961D02*
Y104961D01*
X380315Y224961D02*
X430315D01*
X380315Y184961D02*
X430315D01*
X380315D02*
Y224961D01*
X430315Y184961D02*
Y224961D01*
Y144961D02*
Y184961D01*
X380315Y144961D02*
Y184961D01*
Y144961D02*
X430315D01*
X380315Y184961D02*
X430315D01*
Y104961D02*
Y144961D01*
X380315Y104961D02*
Y144961D01*
Y104961D02*
X430315D01*
X380315Y144961D02*
X430315D01*
Y264961D02*
Y304961D01*
X380315Y264961D02*
Y304961D01*
Y264961D02*
X430315D01*
X380315Y304961D02*
X430315D01*
Y224961D02*
Y264961D01*
X380315Y224961D02*
Y264961D01*
Y224961D02*
X430315D01*
X380315Y264961D02*
X430315D01*
X380315Y304961D02*
X430315D01*
X380315Y264961D02*
X430315D01*
X380315D02*
Y304961D01*
X430315Y264961D02*
Y304961D01*
X380315Y264961D02*
X430315D01*
X380315Y224961D02*
X430315D01*
X380315D02*
Y264961D01*
X430315Y224961D02*
Y264961D01*
Y184961D02*
Y224961D01*
X380315Y184961D02*
Y224961D01*
Y184961D02*
X430315D01*
X380315Y224961D02*
X430315D01*
Y144961D02*
Y184961D01*
X380315Y144961D02*
Y184961D01*
Y144961D02*
X430315D01*
X380315Y184961D02*
X430315D01*
Y104961D02*
Y144961D01*
X380315Y104961D02*
Y144961D01*
Y104961D02*
X430315D01*
X380315Y144961D02*
X430315D01*
X418359Y93612D02*
X423358D01*
X424357Y92612D01*
Y90613D01*
X423358Y89613D01*
X418359D01*
X424357Y87614D02*
Y85614D01*
Y86614D01*
X418359D01*
X419359Y87614D01*
X418359Y82615D02*
X424357D01*
Y78617D01*
X408261Y94112D02*
X413259D01*
X414259Y93112D01*
Y91113D01*
X413259Y90113D01*
X408261D01*
X409261Y88113D02*
X408261Y87114D01*
Y85115D01*
X409261Y84115D01*
X410260D01*
X411260Y85115D01*
Y86114D01*
Y85115D01*
X412259Y84115D01*
X413259D01*
X414259Y85115D01*
Y87114D01*
X413259Y88113D01*
X408261Y82116D02*
X414259D01*
Y78117D01*
X408261Y214112D02*
X413259D01*
X414259Y213112D01*
Y211113D01*
X413259Y210113D01*
X408261D01*
X409261Y208114D02*
X408261Y207114D01*
Y205115D01*
X409261Y204115D01*
X410260D01*
X411260Y205115D01*
Y206114D01*
Y205115D01*
X412259Y204115D01*
X413259D01*
X414259Y205115D01*
Y207114D01*
X413259Y208114D01*
X408261Y198117D02*
Y202116D01*
X411260D01*
Y200116D01*
Y202116D01*
X414259D01*
X408261Y174112D02*
X413259D01*
X414259Y173112D01*
Y171113D01*
X413259Y170113D01*
X408261D01*
X409261Y168114D02*
X408261Y167114D01*
Y165114D01*
X409261Y164115D01*
X410260D01*
X411260Y165114D01*
Y166114D01*
Y165114D01*
X412259Y164115D01*
X413259D01*
X414259Y165114D01*
Y167114D01*
X413259Y168114D01*
X408261Y162116D02*
X414259D01*
X411260D01*
Y158117D01*
X408261D01*
X414259D01*
X408261Y135111D02*
X413259D01*
X414259Y134112D01*
Y132112D01*
X413259Y131113D01*
X408261D01*
X409261Y129113D02*
X408261Y128114D01*
Y126114D01*
X409261Y125115D01*
X410260D01*
X411260Y126114D01*
Y127114D01*
Y126114D01*
X412259Y125115D01*
X413259D01*
X414259Y126114D01*
Y128114D01*
X413259Y129113D01*
X408261Y119116D02*
Y121116D01*
Y120116D01*
X413259D01*
X414259Y121116D01*
Y122116D01*
X413259Y123115D01*
X408261Y294112D02*
X413259D01*
X414259Y293112D01*
Y291113D01*
X413259Y290113D01*
X408261D01*
X409261Y288114D02*
X408261Y287114D01*
Y285115D01*
X409261Y284115D01*
X410260D01*
X411260Y285115D01*
Y286114D01*
Y285115D01*
X412259Y284115D01*
X413259D01*
X414259Y285115D01*
Y287114D01*
X413259Y288114D01*
X408261Y282116D02*
X414259D01*
Y279117D01*
X413259Y278117D01*
X412259D01*
X411260Y279117D01*
Y282116D01*
Y279117D01*
X410260Y278117D01*
X409261D01*
X408261Y279117D01*
Y282116D01*
X408261Y254112D02*
X413259D01*
X414259Y253112D01*
Y251113D01*
X413259Y250113D01*
X408261D01*
X409261Y248113D02*
X408261Y247114D01*
Y245114D01*
X409261Y244115D01*
X410260D01*
X411260Y245114D01*
Y246114D01*
Y245114D01*
X412259Y244115D01*
X413259D01*
X414259Y245114D01*
Y247114D01*
X413259Y248113D01*
X408261Y242115D02*
X414259D01*
Y239117D01*
X413259Y238117D01*
X409261D01*
X408261Y239117D01*
Y242115D01*
X418359Y293612D02*
X423358D01*
X424357Y292612D01*
Y290613D01*
X423358Y289613D01*
X418359D01*
X424357Y287614D02*
Y285614D01*
Y286614D01*
X418359D01*
X419359Y287614D01*
X418359Y282615D02*
X424357D01*
Y279616D01*
X423358Y278617D01*
X422358D01*
X421358Y279616D01*
Y282615D01*
Y279616D01*
X420359Y278617D01*
X419359D01*
X418359Y279616D01*
Y282615D01*
X418359Y253612D02*
X423358D01*
X424357Y252612D01*
Y250613D01*
X423358Y249613D01*
X418359D01*
X424357Y247614D02*
Y245614D01*
Y246614D01*
X418359D01*
X419359Y247614D01*
X418359Y242615D02*
X424357D01*
Y239616D01*
X423358Y238617D01*
X419359D01*
X418359Y239616D01*
Y242615D01*
X418359Y213612D02*
X423358D01*
X424357Y212612D01*
Y210613D01*
X423358Y209613D01*
X418359D01*
X424357Y207614D02*
Y205614D01*
Y206614D01*
X418359D01*
X419359Y207614D01*
X418359Y198617D02*
Y202615D01*
X421358D01*
Y200616D01*
Y202615D01*
X424357D01*
X418359Y173612D02*
X423358D01*
X424357Y172612D01*
Y170613D01*
X423358Y169613D01*
X418359D01*
X424357Y167614D02*
Y165614D01*
Y166614D01*
X418359D01*
X419359Y167614D01*
X418359Y162615D02*
X424357D01*
X421358D01*
Y158617D01*
X418359D01*
X424357D01*
X418359Y134611D02*
X423358D01*
X424357Y133612D01*
Y131612D01*
X423358Y130613D01*
X418359D01*
X424357Y128613D02*
Y126614D01*
Y127614D01*
X418359D01*
X419359Y128613D01*
X418359Y119616D02*
Y121616D01*
Y120616D01*
X423358D01*
X424357Y121616D01*
Y122615D01*
X423358Y123615D01*
M02*
