M48
;Layer_Color=9474304
;FILE_FORMAT=2:5
INCH,TZ
;TYPE=PLATED
T01F00S00C0.00787
T02F00S00C0.01181
T03F00S00C0.01575
T04F00S00C0.03500
T05F00S00C0.03800
T06F00S00C0.04000
;TYPE=NON_PLATED
T07F00S00C0.11024
%
T01
X320814Y68563
X340807
Y105473
Y110787
X320814
X322776Y103781
X290811Y102199
X290106Y96016
X292677Y109409
X290106Y119343
X290106Y77118
X293071Y67677
X290106Y136173
X290811Y142356
X293071Y147599
X290106Y157039
X290051Y175291
X290756Y181474
X293071Y186969
X290106Y196508
X289953Y216236
X290657Y222419
X292677Y228307
X290709Y237756
X290106Y255563
X290811Y261746
X292478Y267284
X290402Y277020
X319843Y267284
X322776Y263328
X340807Y264134
Y268465
Y229291
Y224764
X322622Y224002
X320814Y229291
X320814Y187953
X322720Y183057
X340807Y183819
Y187953
Y148484
Y144843
X322776Y143939
X320814Y148484
X322776Y303092
X340807Y304350
X290811Y301509
X290106Y295327
T02
X372441Y15354
X376535Y71909
Y90807
X376536Y114134
X317874Y114528
X317874Y91201
Y72303
X298583Y77028
Y95925
X298583Y119252
X298583Y136083
Y156949
X298528Y175201
X298583Y196417
X298429Y216146
X298583Y237756
X298583Y255472
X298878Y276929
X318169Y272205
X317874Y250748
X317874Y233032
X317721Y211421
X317874Y191693
X317819Y170476
X317874Y152225
Y131358
X376535Y130965
Y151831
X376480Y170083
X376535Y191299
X376382Y211028
X376536Y232638
X376535Y250354
X376831Y271811
X376535Y290118
X317874Y290512
X298583Y295236
T03
X241102Y80669
Y99173
Y122795
X271811Y118858
X271811Y95531
Y76634
Y135689
Y156555
X271756Y174807
X271811Y196024
X271657Y215752
X271811Y237362
X271811Y255079
X272106Y276536
X241102Y279882
Y259016
Y241299
Y220039
Y200354
Y178307
Y160197
Y139725
Y298780
X271811Y294843
T04
X420315Y69961
X436850
Y99961
Y109961
X420315
Y99961
Y139961
Y149961
X436850
Y139961
Y179961
Y189961
X420315
Y179961
Y219961
Y229961
X436850
Y219961
Y259961
Y269961
X420315
Y259961
Y299961
X436850
T05
X390315Y69961
Y79961
Y89961
Y99961
Y109961
Y119961
X406850
Y109961
Y99961
Y89961
Y79961
Y69961
Y129961
Y139961
Y149961
Y159961
Y169961
Y179961
Y189961
Y199961
Y209961
Y219961
Y229961
Y239961
Y249961
Y259961
Y269961
Y279961
X390315
Y269961
Y259961
Y249961
Y239961
Y229961
Y219961
Y209961
Y199961
Y189961
Y179961
Y169961
Y159961
Y149961
Y139961
Y129961
Y289961
Y299961
X406850
Y289961
T06
X337402Y26876
Y36876
X347402
Y26876
X279685
X269685
Y36876
X279685
X210394Y32325
X200394
X190394
X180394
X170394
X160394
X150394
Y42325
X160394
X170394
X180394
X190394
X200394
X210394
X206063Y74016
X216063
Y84016
X206063
X196063
Y74016
X186063
Y84016
X176063
Y74016
X166063
Y84016
X156063
Y74016
X146063
Y84016
X136063
Y74016
X126063
Y84016
X116063
Y74016
X106063
Y84016
X110394Y42325
X100394
Y32325
X110394
X120394
Y42325
X130394
Y32325
X140394
Y42325
T07
X19685Y19685
Y374016
M30
