M48
;Layer_Color=9474304
;FILE_FORMAT=2:4
INCH,TZ
;TYPE=PLATED
T01F00S00C0.0079
T02F00S00C0.0118
T03F00S00C0.0157
T04F00S00C0.0350
T05F00S00C0.0380
T06F00S00C0.0400
;TYPE=NON_PLATED
T07F00S00C0.1102
%
T01
X32081Y6856
X34081
Y10547
Y11079
X32081
X32278Y10378
X29081Y10220
X29011Y9602
X29268Y10941
X29011Y11934
X29011Y7712
X29307Y6768
X29011Y13617
X29081Y14236
X29307Y14760
X29011Y15704
X29005Y17529
X29076Y18147
X29307Y18697
X29011Y19651
X28995Y21624
X29066Y22242
X29268Y22831
X29071Y23776
X29011Y25556
X29081Y26175
X29248Y26728
X29040Y27702
X31984Y26728
X32278Y26333
X34081Y26413
Y26846
Y22929
Y22476
X32262Y22400
X32081Y22929
X32081Y18795
X32272Y18306
X34081Y18382
Y18795
Y14848
Y14484
X32278Y14394
X32081Y14848
X32278Y30309
X34081Y30435
X29081Y30151
X29011Y29533
T02
X37244Y1535
X37654Y7191
Y9081
X37654Y11413
X31787Y11453
X31787Y9120
Y7230
X29858Y7703
Y9593
X29858Y11925
X29858Y13608
Y15695
X29853Y17520
X29858Y19642
X29843Y21615
X29858Y23776
X29858Y25547
X29888Y27693
X31817Y27220
X31787Y25075
X31787Y23303
X31772Y21142
X31787Y19169
X31782Y17048
X31787Y15222
Y13136
X37654Y13096
Y15183
X37648Y17008
X37654Y19130
X37638Y21103
X37654Y23264
X37654Y25035
X37683Y27181
X37654Y29012
X31787Y29051
X29858Y29524
T03
X27441Y1142
Y1496
Y1850
Y2205
Y2559
Y2913
X27181Y7663
Y9553
X27181Y11886
X24110Y12280
Y9917
Y8067
Y13972
Y16020
Y17831
Y20035
Y22004
Y24130
Y25902
Y27988
X27211Y27654
X27181Y25508
X27181Y23736
X27166Y21575
X27181Y19602
X27176Y17481
X27181Y15656
Y13569
Y29484
X24110Y29878
T04
X42031Y6996
X43685
Y9996
Y10996
X42031
Y9996
Y13996
Y14996
X43685
Y13996
Y17996
Y18996
X42031
Y17996
Y21996
Y22996
X43685
Y21996
Y25996
Y26996
X42031
Y25996
Y29996
X43685
T05
X39032Y6996
Y7996
Y8996
Y9996
Y10996
Y11996
X40685
Y10996
Y9996
Y8996
Y7996
Y6996
Y12996
Y13996
Y14996
Y15996
Y16996
Y17996
Y18996
Y19996
Y20996
Y21996
Y22996
Y23996
Y24996
Y25996
Y26996
Y27996
X39032
Y26996
Y25996
Y24996
Y23996
Y22996
Y21996
Y20996
Y19996
Y18996
Y17996
Y16996
Y15996
Y14996
Y13996
Y12996
Y28996
Y29996
X40685
Y28996
T06
X33740Y2688
Y3688
X34740
Y2688
X21039Y3232
X20039
X19039
X18039
X17039
X16039
X15039
Y4232
X16039
X17039
X18039
X19039
X20039
X21039
X20606Y7402
X21606
Y8402
X20606
X19606
Y7402
X18606
Y8402
X17606
Y7402
X16606
Y8402
X15606
Y7402
X14606
Y8402
X13606
Y7402
X12606
Y8402
X11606
Y7402
X10606
Y8402
X11039Y4232
X10039
Y3232
X11039
X12039
Y4232
X13039
Y3232
X14039
Y4232
T07
X1969Y1969
Y37402
M30
