G04*
G04 #@! TF.GenerationSoftware,Altium Limited,Altium Designer,20.1.11 (218)*
G04*
G04 Layer_Color=8421504*
%FSLAX25Y25*%
%MOIN*%
G70*
G04*
G04 #@! TF.SameCoordinates,0635F586-3306-47A2-98CD-F5B0CBAA530C*
G04*
G04*
G04 #@! TF.FilePolarity,Positive*
G04*
G01*
G75*
%ADD22R,0.03150X0.03150*%
%ADD23R,0.03937X0.03543*%
%ADD24R,0.03543X0.03937*%
%ADD25O,0.02362X0.06102*%
%ADD26R,0.03937X0.05512*%
%ADD27R,0.03543X0.02756*%
D22*
X107600Y326550D02*
D03*
Y332850D02*
D03*
X76500Y294779D02*
D03*
Y288480D02*
D03*
X76563Y254650D02*
D03*
Y248350D02*
D03*
X76387Y214561D02*
D03*
Y208262D02*
D03*
X76350Y174650D02*
D03*
Y168350D02*
D03*
X76346Y134650D02*
D03*
Y128350D02*
D03*
X76350Y94650D02*
D03*
Y88350D02*
D03*
X77000Y269480D02*
D03*
Y275780D02*
D03*
X77063Y229350D02*
D03*
Y235650D02*
D03*
X76887Y189262D02*
D03*
Y195561D02*
D03*
X76850Y149350D02*
D03*
Y155650D02*
D03*
X76846Y109350D02*
D03*
Y115650D02*
D03*
X76850Y69350D02*
D03*
Y75650D02*
D03*
D23*
X107600Y320850D02*
D03*
Y314550D02*
D03*
X-160000Y124701D02*
D03*
Y131000D02*
D03*
X-158000Y112850D02*
D03*
Y119150D02*
D03*
X-156000Y100850D02*
D03*
Y107150D02*
D03*
X-154000Y88850D02*
D03*
Y95150D02*
D03*
X-152000Y76850D02*
D03*
Y83150D02*
D03*
X-150000Y64850D02*
D03*
Y71150D02*
D03*
X-148000Y52850D02*
D03*
Y59150D02*
D03*
X-146000Y41000D02*
D03*
Y47299D02*
D03*
D24*
X-37850Y14000D02*
D03*
X-44150D02*
D03*
X-23850Y16000D02*
D03*
X-30150D02*
D03*
X-9850Y18000D02*
D03*
X-16150D02*
D03*
X3150Y22000D02*
D03*
X-3150D02*
D03*
X67150Y300630D02*
D03*
X60850D02*
D03*
X67213Y260500D02*
D03*
X60913D02*
D03*
X67036Y220411D02*
D03*
X60737D02*
D03*
X67000Y180500D02*
D03*
X60701D02*
D03*
X66996Y140500D02*
D03*
X60697D02*
D03*
X67000Y100500D02*
D03*
X60701D02*
D03*
X103150Y276130D02*
D03*
X96850D02*
D03*
X103213Y236000D02*
D03*
X96913D02*
D03*
X103036Y195911D02*
D03*
X96737D02*
D03*
X103000Y156000D02*
D03*
X96701D02*
D03*
X102996Y116000D02*
D03*
X96697D02*
D03*
X103000Y76000D02*
D03*
X96701D02*
D03*
X46850Y264630D02*
D03*
X53150D02*
D03*
X46913Y224500D02*
D03*
X53213D02*
D03*
X46737Y184411D02*
D03*
X53036D02*
D03*
X46701Y144500D02*
D03*
X53000D02*
D03*
X46697Y104500D02*
D03*
X52996D02*
D03*
X46701Y64500D02*
D03*
X53000D02*
D03*
X103150Y287630D02*
D03*
X96850D02*
D03*
X103213Y247500D02*
D03*
X96913D02*
D03*
X103036Y207411D02*
D03*
X96737D02*
D03*
X103000Y167500D02*
D03*
X96701D02*
D03*
X102996Y127500D02*
D03*
X96697D02*
D03*
X103000Y87500D02*
D03*
X96701D02*
D03*
X90650Y294630D02*
D03*
X84350D02*
D03*
X90713Y254500D02*
D03*
X84413D02*
D03*
X90536Y214411D02*
D03*
X84237D02*
D03*
X90500Y174500D02*
D03*
X84201D02*
D03*
X90496Y134500D02*
D03*
X84197D02*
D03*
X90500Y94500D02*
D03*
X84201D02*
D03*
X84350Y269130D02*
D03*
X90650D02*
D03*
X84413Y229000D02*
D03*
X90713D02*
D03*
X84237Y188911D02*
D03*
X90536D02*
D03*
X84201Y149000D02*
D03*
X90500D02*
D03*
X84197Y109000D02*
D03*
X90496D02*
D03*
X84201Y69000D02*
D03*
X90500D02*
D03*
D25*
X49000Y272000D02*
D03*
X54000D02*
D03*
X59000D02*
D03*
X64000D02*
D03*
X49000Y293260D02*
D03*
X54000D02*
D03*
X59000D02*
D03*
X64000D02*
D03*
X49063Y231870D02*
D03*
X54063D02*
D03*
X59063D02*
D03*
X64063D02*
D03*
X49063Y253130D02*
D03*
X54063D02*
D03*
X59063D02*
D03*
X64063D02*
D03*
X48887Y191781D02*
D03*
X53887D02*
D03*
X58887D02*
D03*
X63887D02*
D03*
X48887Y213041D02*
D03*
X53887D02*
D03*
X58887D02*
D03*
X63887D02*
D03*
X48850Y151870D02*
D03*
X53850D02*
D03*
X58850D02*
D03*
X63850D02*
D03*
X48850Y173130D02*
D03*
X53850D02*
D03*
X58850D02*
D03*
X63850D02*
D03*
X48847Y111870D02*
D03*
X53847D02*
D03*
X58846D02*
D03*
X63846D02*
D03*
X48847Y133130D02*
D03*
X53847D02*
D03*
X58846D02*
D03*
X63846D02*
D03*
X48850Y71870D02*
D03*
X53850D02*
D03*
X58850D02*
D03*
X63850D02*
D03*
X48850Y93130D02*
D03*
X53850D02*
D03*
X58850D02*
D03*
X63850D02*
D03*
D26*
X103937Y269130D02*
D03*
X96653D02*
D03*
X104000Y229000D02*
D03*
X96716D02*
D03*
X103824Y188911D02*
D03*
X96540D02*
D03*
X103787Y149000D02*
D03*
X96504D02*
D03*
X103784Y109000D02*
D03*
X96500D02*
D03*
X103787Y69000D02*
D03*
X96504D02*
D03*
X103937Y294630D02*
D03*
X96653D02*
D03*
X104000Y254500D02*
D03*
X96716D02*
D03*
X103824Y214411D02*
D03*
X96540D02*
D03*
X103787Y174500D02*
D03*
X96504D02*
D03*
X103784Y134500D02*
D03*
X96500D02*
D03*
X103787Y94500D02*
D03*
X96504D02*
D03*
X83563Y280130D02*
D03*
X90847D02*
D03*
X83626Y240000D02*
D03*
X90909D02*
D03*
X83450Y199911D02*
D03*
X90733D02*
D03*
X83413Y160000D02*
D03*
X90697D02*
D03*
X83410Y120000D02*
D03*
X90693D02*
D03*
X83413Y80000D02*
D03*
X90697D02*
D03*
D27*
X43000Y282374D02*
D03*
Y287886D02*
D03*
X43063Y242244D02*
D03*
Y247756D02*
D03*
X42887Y202155D02*
D03*
Y207667D02*
D03*
X42850Y162244D02*
D03*
Y167756D02*
D03*
X42847Y122244D02*
D03*
Y127756D02*
D03*
X42850Y82244D02*
D03*
Y87756D02*
D03*
M02*
