G04*
G04 #@! TF.GenerationSoftware,Altium Limited,Altium Designer,20.1.11 (218)*
G04*
G04 Layer_Physical_Order=2*
G04 Layer_Color=16711680*
%FSLAX25Y25*%
%MOIN*%
G70*
G04*
G04 #@! TF.SameCoordinates,0635F586-3306-47A2-98CD-F5B0CBAA530C*
G04*
G04*
G04 #@! TF.FilePolarity,Positive*
G04*
G01*
G75*
%ADD14C,0.01000*%
%ADD40C,0.02000*%
%ADD41C,0.06000*%
%ADD42O,0.06000X0.08000*%
%ADD43C,0.05906*%
%ADD44R,0.05906X0.05906*%
%ADD45C,0.10630*%
%ADD46C,0.01772*%
%ADD47C,0.02362*%
G36*
X113000Y292520D02*
X87035D01*
X87012Y292535D01*
X86161Y292705D01*
X85310Y292535D01*
X84589Y292053D01*
X84107Y291332D01*
X83937Y290481D01*
X84107Y289630D01*
X84589Y288908D01*
X85310Y288426D01*
X86161Y288257D01*
X87012Y288426D01*
X87035Y288441D01*
X113000D01*
Y277169D01*
X87024D01*
X87001Y277185D01*
X86150Y277354D01*
X85299Y277185D01*
X84577Y276702D01*
X84095Y275981D01*
X83926Y275130D01*
X84095Y274279D01*
X84577Y273557D01*
X85299Y273075D01*
X86150Y272906D01*
X87001Y273075D01*
X87024Y273091D01*
X113000D01*
Y252390D01*
X87098D01*
X87075Y252405D01*
X86224Y252575D01*
X85373Y252405D01*
X84652Y251923D01*
X84170Y251202D01*
X84000Y250351D01*
X84170Y249500D01*
X84652Y248778D01*
X85373Y248296D01*
X86224Y248127D01*
X87075Y248296D01*
X87098Y248312D01*
X113000D01*
Y237039D01*
X87087D01*
X87064Y237055D01*
X86213Y237224D01*
X85362Y237055D01*
X84640Y236573D01*
X84158Y235851D01*
X83989Y235000D01*
X84158Y234149D01*
X84640Y233428D01*
X85362Y232945D01*
X86213Y232776D01*
X87064Y232945D01*
X87087Y232961D01*
X113000D01*
Y212301D01*
X86922D01*
X86899Y212317D01*
X86048Y212486D01*
X85197Y212317D01*
X84476Y211835D01*
X83994Y211113D01*
X83824Y210262D01*
X83994Y209411D01*
X84476Y208690D01*
X85197Y208208D01*
X86048Y208038D01*
X86899Y208208D01*
X86922Y208223D01*
X113000D01*
Y196950D01*
X86910D01*
X86888Y196966D01*
X86036Y197135D01*
X85185Y196966D01*
X84464Y196484D01*
X83982Y195762D01*
X83813Y194911D01*
X83982Y194060D01*
X84464Y193339D01*
X85185Y192857D01*
X86036Y192687D01*
X86888Y192857D01*
X86910Y192872D01*
X113000D01*
Y172390D01*
X86886D01*
X86863Y172405D01*
X86012Y172575D01*
X85161Y172405D01*
X84439Y171923D01*
X83957Y171202D01*
X83788Y170351D01*
X83957Y169500D01*
X84439Y168778D01*
X85161Y168296D01*
X86012Y168127D01*
X86863Y168296D01*
X86886Y168312D01*
X113000D01*
Y157039D01*
X86874D01*
X86851Y157054D01*
X86000Y157224D01*
X85149Y157054D01*
X84427Y156572D01*
X83946Y155851D01*
X83776Y155000D01*
X83946Y154149D01*
X84427Y153428D01*
X85149Y152945D01*
X86000Y152776D01*
X86851Y152945D01*
X86874Y152961D01*
X113000D01*
Y132390D01*
X86882D01*
X86859Y132405D01*
X86008Y132575D01*
X85157Y132405D01*
X84435Y131923D01*
X83953Y131202D01*
X83784Y130351D01*
X83953Y129500D01*
X84435Y128778D01*
X85157Y128296D01*
X86008Y128127D01*
X86859Y128296D01*
X86882Y128312D01*
X113000D01*
Y117039D01*
X86870D01*
X86847Y117054D01*
X85996Y117224D01*
X85145Y117054D01*
X84424Y116572D01*
X83942Y115851D01*
X83772Y115000D01*
X83942Y114149D01*
X84424Y113427D01*
X85145Y112945D01*
X85996Y112776D01*
X86847Y112945D01*
X86870Y112961D01*
X113000D01*
Y92390D01*
X86886D01*
X86863Y92405D01*
X86012Y92575D01*
X85161Y92405D01*
X84439Y91923D01*
X83957Y91202D01*
X83788Y90351D01*
X83957Y89500D01*
X84439Y88778D01*
X85161Y88296D01*
X86012Y88127D01*
X86863Y88296D01*
X86886Y88312D01*
X113000D01*
Y77039D01*
X86874D01*
X86851Y77055D01*
X86000Y77224D01*
X85149Y77055D01*
X84427Y76573D01*
X83946Y75851D01*
X83776Y75000D01*
X83946Y74149D01*
X84427Y73427D01*
X85149Y72945D01*
X86000Y72776D01*
X86851Y72945D01*
X86874Y72961D01*
X113000D01*
Y2039D01*
X-94183D01*
X-94450Y2539D01*
X-94224Y2878D01*
X-94137Y3314D01*
X-77501Y19950D01*
X-77170Y20446D01*
X-77053Y21032D01*
Y35304D01*
X-76565Y35506D01*
X-75730Y36147D01*
X-75089Y36983D01*
X-74686Y37956D01*
X-74548Y39000D01*
Y41000D01*
X-74686Y42044D01*
X-75089Y43017D01*
X-75730Y43853D01*
X-76565Y44494D01*
X-77539Y44897D01*
X-78583Y45035D01*
X-79627Y44897D01*
X-80600Y44494D01*
X-81436Y43853D01*
X-82077Y43017D01*
X-82480Y42044D01*
X-82617Y41000D01*
Y39000D01*
X-82480Y37956D01*
X-82077Y36983D01*
X-81436Y36147D01*
X-80600Y35506D01*
X-80112Y35304D01*
Y21665D01*
X-96300Y5477D01*
X-96736Y5391D01*
X-97360Y4974D01*
X-97776Y4350D01*
X-97923Y3614D01*
X-97776Y2878D01*
X-97550Y2539D01*
X-97817Y2039D01*
X-197000D01*
Y391662D01*
X113000D01*
Y292520D01*
D02*
G37*
%LPC*%
G36*
X69961Y355034D02*
X68916Y354897D01*
X67943Y354494D01*
X67108Y353853D01*
X66467Y353017D01*
X66064Y352044D01*
X65926Y351000D01*
X66064Y349956D01*
X66467Y348983D01*
X67108Y348147D01*
X67943Y347506D01*
X68916Y347103D01*
X69961Y346966D01*
X71005Y347103D01*
X71978Y347506D01*
X72813Y348147D01*
X73455Y348983D01*
X73858Y349956D01*
X73995Y351000D01*
X73858Y352044D01*
X73455Y353017D01*
X72813Y353853D01*
X71978Y354494D01*
X71005Y354897D01*
X69961Y355034D01*
D02*
G37*
G36*
X59961D02*
X58916Y354897D01*
X57943Y354494D01*
X57108Y353853D01*
X56467Y353017D01*
X56064Y352044D01*
X55926Y351000D01*
X56064Y349956D01*
X56467Y348983D01*
X57108Y348147D01*
X57943Y347506D01*
X58916Y347103D01*
X59961Y346966D01*
X61005Y347103D01*
X61978Y347506D01*
X62814Y348147D01*
X63455Y348983D01*
X63858Y349956D01*
X63995Y351000D01*
X63858Y352044D01*
X63455Y353017D01*
X62814Y353853D01*
X61978Y354494D01*
X61005Y354897D01*
X59961Y355034D01*
D02*
G37*
G36*
X11693Y354365D02*
X10649Y354228D01*
X9676Y353825D01*
X8840Y353184D01*
X8199Y352348D01*
X7796Y351375D01*
X7658Y350331D01*
Y348331D01*
X7796Y347287D01*
X8199Y346314D01*
X8840Y345478D01*
X9676Y344837D01*
X10649Y344434D01*
X11693Y344296D01*
X12737Y344434D01*
X13710Y344837D01*
X14546Y345478D01*
X15187Y346314D01*
X15590Y347287D01*
X15727Y348331D01*
Y350331D01*
X15590Y351375D01*
X15187Y352348D01*
X14546Y353184D01*
X13710Y353825D01*
X12737Y354228D01*
X11693Y354365D01*
D02*
G37*
G36*
X1693D02*
X649Y354228D01*
X-324Y353825D01*
X-1160Y353184D01*
X-1801Y352348D01*
X-2204Y351375D01*
X-2342Y350331D01*
Y348331D01*
X-2204Y347287D01*
X-1801Y346314D01*
X-1160Y345478D01*
X-324Y344837D01*
X649Y344434D01*
X1693Y344296D01*
X2737Y344434D01*
X3710Y344837D01*
X4546Y345478D01*
X5187Y346314D01*
X5590Y347287D01*
X5727Y348331D01*
Y350331D01*
X5590Y351375D01*
X5187Y352348D01*
X4546Y353184D01*
X3710Y353825D01*
X2737Y354228D01*
X1693Y354365D01*
D02*
G37*
G36*
X-8307D02*
X-9351Y354228D01*
X-10324Y353825D01*
X-11160Y353184D01*
X-11801Y352348D01*
X-12204Y351375D01*
X-12342Y350331D01*
Y348331D01*
X-12204Y347287D01*
X-11801Y346314D01*
X-11160Y345478D01*
X-10324Y344837D01*
X-9351Y344434D01*
X-8307Y344296D01*
X-7263Y344434D01*
X-6290Y344837D01*
X-5454Y345478D01*
X-4813Y346314D01*
X-4410Y347287D01*
X-4273Y348331D01*
Y350331D01*
X-4410Y351375D01*
X-4813Y352348D01*
X-5454Y353184D01*
X-6290Y353825D01*
X-7263Y354228D01*
X-8307Y354365D01*
D02*
G37*
G36*
X-18307D02*
X-19351Y354228D01*
X-20324Y353825D01*
X-21160Y353184D01*
X-21801Y352348D01*
X-22204Y351375D01*
X-22342Y350331D01*
Y348331D01*
X-22204Y347287D01*
X-21801Y346314D01*
X-21160Y345478D01*
X-20324Y344837D01*
X-19351Y344434D01*
X-18307Y344296D01*
X-17263Y344434D01*
X-16290Y344837D01*
X-15454Y345478D01*
X-14813Y346314D01*
X-14410Y347287D01*
X-14273Y348331D01*
Y350331D01*
X-14410Y351375D01*
X-14813Y352348D01*
X-15454Y353184D01*
X-16290Y353825D01*
X-17263Y354228D01*
X-18307Y354365D01*
D02*
G37*
G36*
X-28307D02*
X-29351Y354228D01*
X-30324Y353825D01*
X-31160Y353184D01*
X-31801Y352348D01*
X-32204Y351375D01*
X-32342Y350331D01*
Y348331D01*
X-32204Y347287D01*
X-31801Y346314D01*
X-31160Y345478D01*
X-30324Y344837D01*
X-29351Y344434D01*
X-28307Y344296D01*
X-27263Y344434D01*
X-26290Y344837D01*
X-25454Y345478D01*
X-24813Y346314D01*
X-24410Y347287D01*
X-24273Y348331D01*
Y350331D01*
X-24410Y351375D01*
X-24813Y352348D01*
X-25454Y353184D01*
X-26290Y353825D01*
X-27263Y354228D01*
X-28307Y354365D01*
D02*
G37*
G36*
X-38307D02*
X-39351Y354228D01*
X-40324Y353825D01*
X-41160Y353184D01*
X-41801Y352348D01*
X-42204Y351375D01*
X-42342Y350331D01*
Y348331D01*
X-42204Y347287D01*
X-41801Y346314D01*
X-41160Y345478D01*
X-40324Y344837D01*
X-39351Y344434D01*
X-38307Y344296D01*
X-37263Y344434D01*
X-36290Y344837D01*
X-35454Y345478D01*
X-34813Y346314D01*
X-34410Y347287D01*
X-34273Y348331D01*
Y350331D01*
X-34410Y351375D01*
X-34813Y352348D01*
X-35454Y353184D01*
X-36290Y353825D01*
X-37263Y354228D01*
X-38307Y354365D01*
D02*
G37*
G36*
X-48307D02*
X-49351Y354228D01*
X-50324Y353825D01*
X-51160Y353184D01*
X-51801Y352348D01*
X-52204Y351375D01*
X-52342Y350331D01*
Y348331D01*
X-52204Y347287D01*
X-51801Y346314D01*
X-51160Y345478D01*
X-50324Y344837D01*
X-49351Y344434D01*
X-48307Y344296D01*
X-47263Y344434D01*
X-46290Y344837D01*
X-45454Y345478D01*
X-44813Y346314D01*
X-44410Y347287D01*
X-44273Y348331D01*
Y350331D01*
X-44410Y351375D01*
X-44813Y352348D01*
X-45454Y353184D01*
X-46290Y353825D01*
X-47263Y354228D01*
X-48307Y354365D01*
D02*
G37*
G36*
X-58307D02*
X-59351Y354228D01*
X-60324Y353825D01*
X-61160Y353184D01*
X-61801Y352348D01*
X-62204Y351375D01*
X-62342Y350331D01*
Y348331D01*
X-62204Y347287D01*
X-61801Y346314D01*
X-61160Y345478D01*
X-60324Y344837D01*
X-59351Y344434D01*
X-58307Y344296D01*
X-57263Y344434D01*
X-56290Y344837D01*
X-55454Y345478D01*
X-54813Y346314D01*
X-54410Y347287D01*
X-54273Y348331D01*
Y350331D01*
X-54410Y351375D01*
X-54813Y352348D01*
X-55454Y353184D01*
X-56290Y353825D01*
X-57263Y354228D01*
X-58307Y354365D01*
D02*
G37*
G36*
X-68307D02*
X-69351Y354228D01*
X-70324Y353825D01*
X-71160Y353184D01*
X-71801Y352348D01*
X-72204Y351375D01*
X-72342Y350331D01*
Y348331D01*
X-72204Y347287D01*
X-71801Y346314D01*
X-71160Y345478D01*
X-70324Y344837D01*
X-69351Y344434D01*
X-68307Y344296D01*
X-67263Y344434D01*
X-66290Y344837D01*
X-65454Y345478D01*
X-64813Y346314D01*
X-64410Y347287D01*
X-64273Y348331D01*
Y350331D01*
X-64410Y351375D01*
X-64813Y352348D01*
X-65454Y353184D01*
X-66290Y353825D01*
X-67263Y354228D01*
X-68307Y354365D01*
D02*
G37*
G36*
X-78307D02*
X-79351Y354228D01*
X-80324Y353825D01*
X-81160Y353184D01*
X-81801Y352348D01*
X-82204Y351375D01*
X-82342Y350331D01*
Y348331D01*
X-82204Y347287D01*
X-81801Y346314D01*
X-81160Y345478D01*
X-80324Y344837D01*
X-79351Y344434D01*
X-78307Y344296D01*
X-77263Y344434D01*
X-76290Y344837D01*
X-75454Y345478D01*
X-74813Y346314D01*
X-74410Y347287D01*
X-74273Y348331D01*
Y350331D01*
X-74410Y351375D01*
X-74813Y352348D01*
X-75454Y353184D01*
X-76290Y353825D01*
X-77263Y354228D01*
X-78307Y354365D01*
D02*
G37*
G36*
X-88307D02*
X-89351Y354228D01*
X-90324Y353825D01*
X-91160Y353184D01*
X-91801Y352348D01*
X-92204Y351375D01*
X-92342Y350331D01*
Y348331D01*
X-92204Y347287D01*
X-91801Y346314D01*
X-91160Y345478D01*
X-90324Y344837D01*
X-89351Y344434D01*
X-88307Y344296D01*
X-87263Y344434D01*
X-86290Y344837D01*
X-85454Y345478D01*
X-84813Y346314D01*
X-84410Y347287D01*
X-84273Y348331D01*
Y350331D01*
X-84410Y351375D01*
X-84813Y352348D01*
X-85454Y353184D01*
X-86290Y353825D01*
X-87263Y354228D01*
X-88307Y354365D01*
D02*
G37*
G36*
X-98307D02*
X-99351Y354228D01*
X-100324Y353825D01*
X-101160Y353184D01*
X-101801Y352348D01*
X-102204Y351375D01*
X-102342Y350331D01*
Y348331D01*
X-102204Y347287D01*
X-101801Y346314D01*
X-101160Y345478D01*
X-100324Y344837D01*
X-99351Y344434D01*
X-98307Y344296D01*
X-97263Y344434D01*
X-96290Y344837D01*
X-95454Y345478D01*
X-94813Y346314D01*
X-94410Y347287D01*
X-94273Y348331D01*
Y350331D01*
X-94410Y351375D01*
X-94813Y352348D01*
X-95454Y353184D01*
X-96290Y353825D01*
X-97263Y354228D01*
X-98307Y354365D01*
D02*
G37*
G36*
X-4400Y100524D02*
X-5251Y100355D01*
X-5973Y99872D01*
X-6455Y99151D01*
X-6624Y98300D01*
X-6455Y97449D01*
X-5973Y96728D01*
X-5929Y96699D01*
Y88372D01*
X-6519Y87919D01*
X-7153Y87093D01*
X-7551Y86132D01*
X-7687Y85100D01*
X-7551Y84068D01*
X-7153Y83107D01*
X-6519Y82281D01*
X-5693Y81647D01*
X-4732Y81249D01*
X-3700Y81113D01*
X-2668Y81249D01*
X-1707Y81647D01*
X-881Y82281D01*
X-247Y83107D01*
X151Y84068D01*
X287Y85100D01*
X151Y86132D01*
X-247Y87093D01*
X-881Y87919D01*
X-1707Y88553D01*
X-2668Y88951D01*
X-2871Y88978D01*
Y96699D01*
X-2827Y96728D01*
X-2345Y97449D01*
X-2176Y98300D01*
X-2345Y99151D01*
X-2827Y99872D01*
X-3549Y100355D01*
X-4400Y100524D01*
D02*
G37*
G36*
X-13700Y89087D02*
X-14732Y88951D01*
X-15693Y88553D01*
X-16519Y87919D01*
X-17153Y87093D01*
X-17551Y86132D01*
X-17687Y85100D01*
X-17551Y84068D01*
X-17153Y83107D01*
X-16519Y82281D01*
X-15693Y81647D01*
X-14732Y81249D01*
X-13700Y81113D01*
X-12668Y81249D01*
X-11707Y81647D01*
X-10881Y82281D01*
X-10247Y83107D01*
X-9849Y84068D01*
X-9713Y85100D01*
X-9849Y86132D01*
X-10247Y87093D01*
X-10881Y87919D01*
X-11707Y88553D01*
X-12668Y88951D01*
X-13700Y89087D01*
D02*
G37*
G36*
X-24400Y100524D02*
X-25251Y100355D01*
X-25973Y99872D01*
X-26455Y99151D01*
X-26624Y98300D01*
X-26455Y97449D01*
X-25973Y96728D01*
X-25929Y96699D01*
Y88372D01*
X-26519Y87919D01*
X-27153Y87093D01*
X-27551Y86132D01*
X-27687Y85100D01*
X-27551Y84068D01*
X-27153Y83107D01*
X-26519Y82281D01*
X-25693Y81647D01*
X-24732Y81249D01*
X-23700Y81113D01*
X-22668Y81249D01*
X-21707Y81647D01*
X-20881Y82281D01*
X-20247Y83107D01*
X-19849Y84068D01*
X-19713Y85100D01*
X-19849Y86132D01*
X-20247Y87093D01*
X-20881Y87919D01*
X-21707Y88553D01*
X-22668Y88951D01*
X-22871Y88978D01*
Y96699D01*
X-22828Y96728D01*
X-22345Y97449D01*
X-22176Y98300D01*
X-22345Y99151D01*
X-22828Y99872D01*
X-23549Y100355D01*
X-24400Y100524D01*
D02*
G37*
G36*
X-33700Y89087D02*
X-34732Y88951D01*
X-35693Y88553D01*
X-36519Y87919D01*
X-37153Y87093D01*
X-37551Y86132D01*
X-37687Y85100D01*
X-37551Y84068D01*
X-37153Y83107D01*
X-36519Y82281D01*
X-35693Y81647D01*
X-34732Y81249D01*
X-33700Y81113D01*
X-32668Y81249D01*
X-31707Y81647D01*
X-30881Y82281D01*
X-30247Y83107D01*
X-29849Y84068D01*
X-29713Y85100D01*
X-29849Y86132D01*
X-30247Y87093D01*
X-30881Y87919D01*
X-31707Y88553D01*
X-32668Y88951D01*
X-33700Y89087D01*
D02*
G37*
G36*
X-44400Y100524D02*
X-45251Y100355D01*
X-45972Y99872D01*
X-46455Y99151D01*
X-46624Y98300D01*
X-46455Y97449D01*
X-45972Y96728D01*
X-45251Y96245D01*
X-45229Y96241D01*
Y88745D01*
X-45693Y88553D01*
X-46519Y87919D01*
X-47153Y87093D01*
X-47551Y86132D01*
X-47687Y85100D01*
X-47551Y84068D01*
X-47153Y83107D01*
X-46519Y82281D01*
X-45693Y81647D01*
X-44732Y81249D01*
X-43700Y81113D01*
X-42668Y81249D01*
X-41707Y81647D01*
X-40881Y82281D01*
X-40247Y83107D01*
X-39849Y84068D01*
X-39713Y85100D01*
X-39849Y86132D01*
X-40247Y87093D01*
X-40881Y87919D01*
X-41707Y88553D01*
X-42171Y88745D01*
Y97600D01*
X-42243Y97964D01*
X-42176Y98300D01*
X-42345Y99151D01*
X-42827Y99872D01*
X-43549Y100355D01*
X-44400Y100524D01*
D02*
G37*
G36*
X-53700Y89087D02*
X-54732Y88951D01*
X-55693Y88553D01*
X-56519Y87919D01*
X-57153Y87093D01*
X-57551Y86132D01*
X-57687Y85100D01*
X-57551Y84068D01*
X-57153Y83107D01*
X-56519Y82281D01*
X-55693Y81647D01*
X-54732Y81249D01*
X-53700Y81113D01*
X-52668Y81249D01*
X-51707Y81647D01*
X-50881Y82281D01*
X-50247Y83107D01*
X-49849Y84068D01*
X-49713Y85100D01*
X-49849Y86132D01*
X-50247Y87093D01*
X-50881Y87919D01*
X-51707Y88553D01*
X-52668Y88951D01*
X-53700Y89087D01*
D02*
G37*
G36*
X-65000Y100798D02*
X-65585Y100682D01*
X-66081Y100350D01*
X-66413Y99854D01*
X-66529Y99269D01*
X-66480Y99022D01*
X-66624Y98300D01*
X-66454Y97449D01*
X-65973Y96728D01*
X-65251Y96245D01*
X-65229Y96241D01*
Y88745D01*
X-65693Y88553D01*
X-66519Y87919D01*
X-67153Y87093D01*
X-67551Y86132D01*
X-67687Y85100D01*
X-67551Y84068D01*
X-67153Y83107D01*
X-66519Y82281D01*
X-65693Y81647D01*
X-64732Y81249D01*
X-63700Y81113D01*
X-62668Y81249D01*
X-61707Y81647D01*
X-60881Y82281D01*
X-60247Y83107D01*
X-59849Y84068D01*
X-59713Y85100D01*
X-59849Y86132D01*
X-60247Y87093D01*
X-60881Y87919D01*
X-61707Y88553D01*
X-62171Y88745D01*
Y97600D01*
X-62243Y97964D01*
X-62176Y98300D01*
X-62345Y99151D01*
X-62827Y99872D01*
X-63549Y100355D01*
X-64085Y100461D01*
X-64415Y100682D01*
X-65000Y100798D01*
D02*
G37*
G36*
X-73700Y89087D02*
X-74732Y88951D01*
X-75693Y88553D01*
X-76519Y87919D01*
X-77153Y87093D01*
X-77551Y86132D01*
X-77687Y85100D01*
X-77551Y84068D01*
X-77153Y83107D01*
X-76519Y82281D01*
X-75693Y81647D01*
X-74732Y81249D01*
X-73700Y81113D01*
X-72668Y81249D01*
X-71707Y81647D01*
X-70881Y82281D01*
X-70247Y83107D01*
X-69849Y84068D01*
X-69713Y85100D01*
X-69849Y86132D01*
X-70247Y87093D01*
X-70881Y87919D01*
X-71707Y88553D01*
X-72668Y88951D01*
X-73700Y89087D01*
D02*
G37*
G36*
X-84400Y100524D02*
X-85251Y100355D01*
X-85972Y99872D01*
X-86454Y99151D01*
X-86624Y98300D01*
X-86454Y97449D01*
X-85972Y96728D01*
X-85251Y96245D01*
X-85229Y96241D01*
Y88745D01*
X-85693Y88553D01*
X-86519Y87919D01*
X-87153Y87093D01*
X-87551Y86132D01*
X-87687Y85100D01*
X-87551Y84068D01*
X-87153Y83107D01*
X-86519Y82281D01*
X-85693Y81647D01*
X-84732Y81249D01*
X-83700Y81113D01*
X-82668Y81249D01*
X-81707Y81647D01*
X-80881Y82281D01*
X-80247Y83107D01*
X-79849Y84068D01*
X-79713Y85100D01*
X-79849Y86132D01*
X-80247Y87093D01*
X-80881Y87919D01*
X-81707Y88553D01*
X-82171Y88745D01*
Y97600D01*
X-82243Y97964D01*
X-82176Y98300D01*
X-82345Y99151D01*
X-82828Y99872D01*
X-83549Y100355D01*
X-84400Y100524D01*
D02*
G37*
G36*
X-93700Y89087D02*
X-94732Y88951D01*
X-95693Y88553D01*
X-96519Y87919D01*
X-97153Y87093D01*
X-97551Y86132D01*
X-97687Y85100D01*
X-97551Y84068D01*
X-97153Y83107D01*
X-96519Y82281D01*
X-95693Y81647D01*
X-94732Y81249D01*
X-93700Y81113D01*
X-92668Y81249D01*
X-91707Y81647D01*
X-90881Y82281D01*
X-90247Y83107D01*
X-89849Y84068D01*
X-89713Y85100D01*
X-89849Y86132D01*
X-90247Y87093D01*
X-90881Y87919D01*
X-91707Y88553D01*
X-92668Y88951D01*
X-93700Y89087D01*
D02*
G37*
G36*
X6300D02*
X5268Y88951D01*
X4307Y88553D01*
X3481Y87919D01*
X2847Y87093D01*
X2449Y86132D01*
X2313Y85100D01*
X2449Y84068D01*
X2847Y83107D01*
X3481Y82281D01*
X4307Y81647D01*
X5268Y81249D01*
X6300Y81113D01*
X7332Y81249D01*
X8293Y81647D01*
X8366Y81703D01*
X20053Y70016D01*
X20145Y69549D01*
X20628Y68827D01*
X21349Y68345D01*
X22200Y68176D01*
X23051Y68345D01*
X23773Y68827D01*
X24255Y69549D01*
X24424Y70400D01*
X24255Y71251D01*
X23773Y71973D01*
X23051Y72455D01*
X22200Y72624D01*
X21842Y72553D01*
X13709Y80685D01*
X13900Y81147D01*
X20253D01*
Y89053D01*
X12347D01*
Y82700D01*
X11885Y82509D01*
X10171Y84223D01*
X10287Y85100D01*
X10151Y86132D01*
X9753Y87093D01*
X9119Y87919D01*
X8293Y88553D01*
X7332Y88951D01*
X6300Y89087D01*
D02*
G37*
G36*
X68898Y50609D02*
X67853Y50472D01*
X66880Y50069D01*
X66045Y49428D01*
X65404Y48592D01*
X65001Y47619D01*
X64863Y46575D01*
X65001Y45531D01*
X65404Y44557D01*
X66045Y43722D01*
X66880Y43081D01*
X67853Y42678D01*
X68898Y42540D01*
X69942Y42678D01*
X70915Y43081D01*
X71750Y43722D01*
X72392Y44557D01*
X72795Y45531D01*
X72932Y46575D01*
X72795Y47619D01*
X72392Y48592D01*
X71750Y49428D01*
X70915Y50069D01*
X69942Y50472D01*
X68898Y50609D01*
D02*
G37*
G36*
X58898D02*
X57853Y50472D01*
X56880Y50069D01*
X56045Y49428D01*
X55404Y48592D01*
X55001Y47619D01*
X54863Y46575D01*
X55001Y45531D01*
X55404Y44557D01*
X56045Y43722D01*
X56880Y43081D01*
X57853Y42678D01*
X58898Y42540D01*
X59942Y42678D01*
X60915Y43081D01*
X61751Y43722D01*
X62392Y44557D01*
X62795Y45531D01*
X62932Y46575D01*
X62795Y47619D01*
X62392Y48592D01*
X61751Y49428D01*
X60915Y50069D01*
X59942Y50472D01*
X58898Y50609D01*
D02*
G37*
G36*
X11417Y45035D02*
X10373Y44897D01*
X9400Y44494D01*
X8564Y43853D01*
X7923Y43017D01*
X7520Y42044D01*
X7383Y41000D01*
Y39000D01*
X7520Y37956D01*
X7923Y36983D01*
X8564Y36147D01*
X9400Y35506D01*
X10373Y35103D01*
X11417Y34966D01*
X12461Y35103D01*
X13435Y35506D01*
X14270Y36147D01*
X14911Y36983D01*
X15314Y37956D01*
X15452Y39000D01*
Y41000D01*
X15314Y42044D01*
X14911Y43017D01*
X14270Y43853D01*
X13435Y44494D01*
X12461Y44897D01*
X11417Y45035D01*
D02*
G37*
G36*
X-88583D02*
X-89627Y44897D01*
X-90600Y44494D01*
X-91435Y43853D01*
X-92077Y43017D01*
X-92480Y42044D01*
X-92617Y41000D01*
Y39000D01*
X-92480Y37956D01*
X-92278Y37468D01*
X-120631Y9115D01*
X-125621D01*
X-125666Y9173D01*
X-125805Y9614D01*
X-100115Y35305D01*
X-99627Y35103D01*
X-98583Y34966D01*
X-97539Y35103D01*
X-96565Y35506D01*
X-95730Y36147D01*
X-95089Y36983D01*
X-94686Y37956D01*
X-94548Y39000D01*
Y41000D01*
X-94686Y42044D01*
X-95089Y43017D01*
X-95730Y43853D01*
X-96565Y44494D01*
X-97539Y44897D01*
X-98583Y45035D01*
X-99627Y44897D01*
X-100600Y44494D01*
X-101435Y43853D01*
X-102077Y43017D01*
X-102480Y42044D01*
X-102617Y41000D01*
Y39000D01*
X-102480Y37956D01*
X-102278Y37468D01*
X-127632Y12113D01*
X-136137D01*
X-136506Y12360D01*
X-137242Y12507D01*
X-137978Y12360D01*
X-138602Y11944D01*
X-139019Y11320D01*
X-139165Y10584D01*
X-139019Y9848D01*
X-138602Y9224D01*
X-137978Y8808D01*
X-137242Y8661D01*
X-136506Y8808D01*
X-136137Y9055D01*
X-133302D01*
X-133035Y8555D01*
X-133191Y8321D01*
X-133338Y7585D01*
X-133191Y6849D01*
X-132774Y6225D01*
X-132151Y5809D01*
X-131415Y5662D01*
X-130679Y5809D01*
X-130309Y6056D01*
X-119998D01*
X-119412Y6172D01*
X-118916Y6504D01*
X-90115Y35305D01*
X-89627Y35103D01*
X-88583Y34966D01*
X-87538Y35103D01*
X-86565Y35506D01*
X-85730Y36147D01*
X-85089Y36983D01*
X-84686Y37956D01*
X-84548Y39000D01*
Y41000D01*
X-84686Y42044D01*
X-85089Y43017D01*
X-85730Y43853D01*
X-86565Y44494D01*
X-87538Y44897D01*
X-88583Y45035D01*
D02*
G37*
G36*
X-28583D02*
X-29627Y44897D01*
X-30600Y44494D01*
X-31435Y43853D01*
X-32077Y43017D01*
X-32480Y42044D01*
X-32617Y41000D01*
Y39000D01*
X-32480Y37956D01*
X-32077Y36983D01*
X-31435Y36147D01*
X-30600Y35506D01*
X-30112Y35304D01*
Y34051D01*
X-36553Y27610D01*
X-37053Y27817D01*
Y35304D01*
X-36565Y35506D01*
X-35730Y36147D01*
X-35089Y36983D01*
X-34686Y37956D01*
X-34548Y39000D01*
Y41000D01*
X-34686Y42044D01*
X-35089Y43017D01*
X-35730Y43853D01*
X-36565Y44494D01*
X-37538Y44897D01*
X-38583Y45035D01*
X-39627Y44897D01*
X-40600Y44494D01*
X-41436Y43853D01*
X-42077Y43017D01*
X-42480Y42044D01*
X-42617Y41000D01*
Y39000D01*
X-42480Y37956D01*
X-42077Y36983D01*
X-41436Y36147D01*
X-40600Y35506D01*
X-40112Y35304D01*
Y28051D01*
X-46423Y21740D01*
X-46885Y21931D01*
Y35374D01*
X-46565Y35506D01*
X-45730Y36147D01*
X-45089Y36983D01*
X-44686Y37956D01*
X-44548Y39000D01*
Y41000D01*
X-44686Y42044D01*
X-45089Y43017D01*
X-45730Y43853D01*
X-46565Y44494D01*
X-47539Y44897D01*
X-48583Y45035D01*
X-49627Y44897D01*
X-50600Y44494D01*
X-51436Y43853D01*
X-52077Y43017D01*
X-52480Y42044D01*
X-52617Y41000D01*
Y39000D01*
X-52480Y37956D01*
X-52077Y36983D01*
X-51436Y36147D01*
X-50600Y35506D01*
X-49944Y35234D01*
Y21048D01*
X-56081Y14910D01*
X-56413Y14414D01*
X-56529Y13828D01*
Y10585D01*
X-56553Y10567D01*
X-57053Y10819D01*
Y35304D01*
X-56565Y35506D01*
X-55730Y36147D01*
X-55089Y36983D01*
X-54686Y37956D01*
X-54548Y39000D01*
Y41000D01*
X-54686Y42044D01*
X-55089Y43017D01*
X-55730Y43853D01*
X-56565Y44494D01*
X-57538Y44897D01*
X-58583Y45035D01*
X-59627Y44897D01*
X-60600Y44494D01*
X-61436Y43853D01*
X-62077Y43017D01*
X-62480Y42044D01*
X-62617Y41000D01*
Y39000D01*
X-62480Y37956D01*
X-62077Y36983D01*
X-61436Y36147D01*
X-60600Y35506D01*
X-60112Y35304D01*
Y10397D01*
X-61134Y9375D01*
X-61570Y9288D01*
X-62194Y8871D01*
X-62611Y8247D01*
X-62757Y7512D01*
X-62611Y6776D01*
X-62194Y6152D01*
X-61570Y5735D01*
X-60834Y5589D01*
X-60099Y5735D01*
X-59475Y6152D01*
X-59058Y6776D01*
X-58971Y7212D01*
X-57501Y8682D01*
X-57399Y8834D01*
X-56869Y8728D01*
X-56776Y8264D01*
X-56360Y7640D01*
X-55736Y7224D01*
X-55000Y7077D01*
X-54264Y7224D01*
X-53640Y7640D01*
X-53224Y8264D01*
X-53077Y9000D01*
X-53184Y9536D01*
X-52736Y9838D01*
X-52736Y9838D01*
X-52000Y9691D01*
X-51264Y9838D01*
X-50640Y10255D01*
X-50224Y10878D01*
X-50192Y11034D01*
X-49736Y11224D01*
X-49000Y11077D01*
X-48264Y11224D01*
X-47640Y11640D01*
X-47224Y12264D01*
X-47137Y12700D01*
X-27501Y32336D01*
X-27170Y32832D01*
X-27053Y33417D01*
Y35304D01*
X-26565Y35506D01*
X-25730Y36147D01*
X-25089Y36983D01*
X-24686Y37956D01*
X-24548Y39000D01*
Y41000D01*
X-24686Y42044D01*
X-25089Y43017D01*
X-25730Y43853D01*
X-26565Y44494D01*
X-27538Y44897D01*
X-28583Y45035D01*
D02*
G37*
G36*
X1417D02*
X373Y44897D01*
X-600Y44494D01*
X-1436Y43853D01*
X-2077Y43017D01*
X-2480Y42044D01*
X-2617Y41000D01*
Y39000D01*
X-2480Y37956D01*
X-2077Y36983D01*
X-1436Y36147D01*
X-600Y35506D01*
X-112Y35304D01*
Y26051D01*
X-6300Y19863D01*
X-6736Y19776D01*
X-7360Y19360D01*
X-7776Y18736D01*
X-7923Y18000D01*
X-7776Y17264D01*
X-7360Y16640D01*
X-6736Y16224D01*
X-6000Y16077D01*
X-5264Y16224D01*
X-4640Y16640D01*
X-4224Y17264D01*
X-4137Y17700D01*
X2499Y24336D01*
X2830Y24832D01*
X2947Y25417D01*
Y35304D01*
X3435Y35506D01*
X4270Y36147D01*
X4911Y36983D01*
X5314Y37956D01*
X5452Y39000D01*
Y41000D01*
X5314Y42044D01*
X4911Y43017D01*
X4270Y43853D01*
X3435Y44494D01*
X2461Y44897D01*
X1417Y45035D01*
D02*
G37*
G36*
X-8583D02*
X-9627Y44897D01*
X-10600Y44494D01*
X-11435Y43853D01*
X-12077Y43017D01*
X-12480Y42044D01*
X-12617Y41000D01*
Y39000D01*
X-12480Y37956D01*
X-12077Y36983D01*
X-11435Y36147D01*
X-10600Y35506D01*
X-10112Y35304D01*
Y28051D01*
X-20300Y17863D01*
X-20736Y17776D01*
X-21360Y17360D01*
X-21776Y16736D01*
X-21923Y16000D01*
X-21776Y15264D01*
X-21360Y14640D01*
X-20736Y14224D01*
X-20000Y14077D01*
X-19264Y14224D01*
X-18640Y14640D01*
X-18224Y15264D01*
X-18137Y15700D01*
X-7501Y26336D01*
X-7170Y26832D01*
X-7053Y27417D01*
Y35304D01*
X-6565Y35506D01*
X-5730Y36147D01*
X-5089Y36983D01*
X-4686Y37956D01*
X-4548Y39000D01*
Y41000D01*
X-4686Y42044D01*
X-5089Y43017D01*
X-5730Y43853D01*
X-6565Y44494D01*
X-7538Y44897D01*
X-8583Y45035D01*
D02*
G37*
G36*
X-18583D02*
X-19627Y44897D01*
X-20600Y44494D01*
X-21436Y43853D01*
X-22077Y43017D01*
X-22480Y42044D01*
X-22617Y41000D01*
Y39000D01*
X-22480Y37956D01*
X-22077Y36983D01*
X-21436Y36147D01*
X-20600Y35506D01*
X-20112Y35304D01*
Y30051D01*
X-34300Y15863D01*
X-34736Y15776D01*
X-35360Y15360D01*
X-35776Y14736D01*
X-35923Y14000D01*
X-35776Y13264D01*
X-35360Y12640D01*
X-34736Y12224D01*
X-34000Y12077D01*
X-33264Y12224D01*
X-32640Y12640D01*
X-32224Y13264D01*
X-32137Y13700D01*
X-17501Y28336D01*
X-17170Y28832D01*
X-17053Y29417D01*
Y35304D01*
X-16565Y35506D01*
X-15730Y36147D01*
X-15089Y36983D01*
X-14686Y37956D01*
X-14548Y39000D01*
Y41000D01*
X-14686Y42044D01*
X-15089Y43017D01*
X-15730Y43853D01*
X-16565Y44494D01*
X-17538Y44897D01*
X-18583Y45035D01*
D02*
G37*
G36*
X-68583D02*
X-69627Y44897D01*
X-70600Y44494D01*
X-71435Y43853D01*
X-72077Y43017D01*
X-72480Y42044D01*
X-72617Y41000D01*
Y39000D01*
X-72480Y37956D01*
X-72077Y36983D01*
X-71435Y36147D01*
X-70600Y35506D01*
X-70112Y35304D01*
Y18665D01*
X-81300Y7477D01*
X-81736Y7391D01*
X-82360Y6974D01*
X-82776Y6350D01*
X-82923Y5614D01*
X-82776Y4878D01*
X-82360Y4255D01*
X-81736Y3838D01*
X-81000Y3691D01*
X-80264Y3838D01*
X-79640Y4255D01*
X-79224Y4878D01*
X-79137Y5314D01*
X-67501Y16950D01*
X-67170Y17446D01*
X-67053Y18032D01*
Y35304D01*
X-66565Y35506D01*
X-65730Y36147D01*
X-65089Y36983D01*
X-64686Y37956D01*
X-64548Y39000D01*
Y41000D01*
X-64686Y42044D01*
X-65089Y43017D01*
X-65730Y43853D01*
X-66565Y44494D01*
X-67538Y44897D01*
X-68583Y45035D01*
D02*
G37*
%LPD*%
D14*
X-98583Y39000D02*
Y40000D01*
X-126999Y10584D02*
X-98583Y39000D01*
X-137242Y10584D02*
X-126999D01*
X-88583Y39000D02*
Y40000D01*
X-119998Y7585D02*
X-88583Y39000D01*
X-131415Y7585D02*
X-119998D01*
X-78583Y21032D02*
Y40000D01*
X-96000Y3614D02*
X-78583Y21032D01*
X-68583Y18032D02*
Y40000D01*
X-81000Y5614D02*
X-68583Y18032D01*
X-64400Y98300D02*
X-63700Y97600D01*
X-64400Y98300D02*
Y98669D01*
X-63700Y85100D02*
Y97600D01*
X-65000Y99269D02*
X-64400Y98669D01*
X-73852Y85252D02*
X-73700Y85100D01*
X-84400Y98300D02*
X-83700Y97600D01*
Y85100D02*
Y97600D01*
X-58583Y9763D02*
Y40000D01*
X-60834Y7512D02*
X-58583Y9763D01*
X-48583Y40000D02*
X-48414Y39832D01*
Y20414D02*
Y39832D01*
X-55000Y9000D02*
Y13828D01*
X-48414Y20414D01*
X-38583Y27417D02*
Y40000D01*
X-52000Y14000D02*
X-38583Y27417D01*
X-52000Y11614D02*
Y14000D01*
X-28583Y33417D02*
Y40000D01*
X-49000Y13000D02*
X-28583Y33417D01*
X-18583Y29417D02*
Y40000D01*
X-34000Y14000D02*
X-18583Y29417D01*
X-8583Y27417D02*
Y40000D01*
X-20000Y16000D02*
X-8583Y27417D01*
X1417Y25417D02*
Y40000D01*
X-6000Y18000D02*
X1417Y25417D01*
X-24400Y85800D02*
X-23700Y85100D01*
X-43700D02*
Y97600D01*
X-4400Y85800D02*
Y98300D01*
Y85800D02*
X-3700Y85100D01*
X-24400Y85800D02*
Y98300D01*
X-44400D02*
X-43700Y97600D01*
X21831Y70400D02*
X22200D01*
X6300Y85100D02*
X7131D01*
X21831Y70400D01*
X-53852Y85252D02*
X-53700Y85100D01*
X-44400Y98300D02*
X-44148Y98552D01*
X-4400Y98300D02*
X-4000Y98700D01*
X-14000Y85400D02*
X-13700Y85100D01*
X6300D02*
X6937Y85737D01*
D40*
X144563Y237929D02*
Y238563D01*
X86224Y250351D02*
X129212D01*
X86213Y235000D02*
X141634D01*
X143130Y275130D02*
X155235Y287235D01*
X141634Y235000D02*
X144563Y237929D01*
X86000Y155000D02*
X142000D01*
X86150Y275130D02*
X143130D01*
X154183Y167250D02*
X155850Y168918D01*
X129036Y210262D02*
X139387Y199911D01*
X86012Y90351D02*
X129000D01*
X155235Y289365D02*
X156000Y290130D01*
X129212Y250351D02*
X139563Y240000D01*
X141418Y115000D02*
X144346Y117929D01*
X129000Y90351D02*
X139350Y80000D01*
X154183Y87250D02*
X155850Y88918D01*
X129149Y290481D02*
X139500Y280130D01*
X86000Y75000D02*
X142000D01*
X155850Y88918D02*
Y90000D01*
X144346Y118347D02*
X155847Y129847D01*
X155850Y168918D02*
Y170000D01*
X144346Y117929D02*
Y118347D01*
X142000Y155000D02*
X154183Y167183D01*
X86012Y170351D02*
X129000D01*
X155887Y208887D02*
Y209911D01*
X86048Y210262D02*
X129036D01*
X86008Y130351D02*
X128996D01*
X155847Y129847D02*
Y130000D01*
X142000Y75000D02*
X154183Y87183D01*
X156000Y250000D02*
X156063D01*
X141911Y194911D02*
X155887Y208887D01*
X129000Y170351D02*
X139350Y160000D01*
X86036Y194911D02*
X141911D01*
X155235Y287235D02*
Y289365D01*
X85996Y115000D02*
X141418D01*
X144563Y238563D02*
X156000Y250000D01*
X128996Y130351D02*
X139347Y120000D01*
X154183Y167183D02*
Y167250D01*
Y87183D02*
Y87250D01*
X86161Y290481D02*
X129149D01*
D41*
X155850Y80000D02*
D03*
Y70000D02*
D03*
Y100000D02*
D03*
Y90000D02*
D03*
X185850Y70000D02*
D03*
Y100000D02*
D03*
X185846Y140000D02*
D03*
Y110000D02*
D03*
X155847Y130000D02*
D03*
Y140000D02*
D03*
Y110000D02*
D03*
Y120000D02*
D03*
X155850Y160000D02*
D03*
Y150000D02*
D03*
Y180000D02*
D03*
Y170000D02*
D03*
X185850Y150000D02*
D03*
Y180000D02*
D03*
X185887Y219911D02*
D03*
Y189911D02*
D03*
X155887Y209911D02*
D03*
Y219911D02*
D03*
Y189911D02*
D03*
Y199911D02*
D03*
X156063Y240000D02*
D03*
Y230000D02*
D03*
Y260000D02*
D03*
Y250000D02*
D03*
X186063Y230000D02*
D03*
Y260000D02*
D03*
X186000Y300130D02*
D03*
Y270130D02*
D03*
X156000Y290130D02*
D03*
Y300130D02*
D03*
Y270130D02*
D03*
Y280130D02*
D03*
X139350Y90000D02*
D03*
Y100000D02*
D03*
Y70000D02*
D03*
Y80000D02*
D03*
X169350Y100000D02*
D03*
Y70000D02*
D03*
X169346Y110000D02*
D03*
Y140000D02*
D03*
X139347Y120000D02*
D03*
Y110000D02*
D03*
Y140000D02*
D03*
Y130000D02*
D03*
X139350Y170000D02*
D03*
Y180000D02*
D03*
Y150000D02*
D03*
Y160000D02*
D03*
X169350Y180000D02*
D03*
Y150000D02*
D03*
X169387Y189911D02*
D03*
Y219911D02*
D03*
X139387Y199911D02*
D03*
Y189911D02*
D03*
Y219911D02*
D03*
Y209911D02*
D03*
X139563Y250000D02*
D03*
Y260000D02*
D03*
Y230000D02*
D03*
Y240000D02*
D03*
X169563Y260000D02*
D03*
Y230000D02*
D03*
X169500Y270130D02*
D03*
Y300130D02*
D03*
X139500Y280130D02*
D03*
Y270130D02*
D03*
Y300130D02*
D03*
Y290130D02*
D03*
X58898Y46575D02*
D03*
X68898D02*
D03*
X58898Y36575D02*
D03*
X68898D02*
D03*
X69961Y351000D02*
D03*
X59961D02*
D03*
X69961Y361000D02*
D03*
X59961D02*
D03*
D42*
X-98307Y349331D02*
D03*
Y359331D02*
D03*
X-88307Y349331D02*
D03*
Y359331D02*
D03*
X-78307Y349331D02*
D03*
Y359331D02*
D03*
X-68307Y349331D02*
D03*
Y359331D02*
D03*
X-58307Y349331D02*
D03*
Y359331D02*
D03*
X-48307Y349331D02*
D03*
Y359331D02*
D03*
X-38307Y349331D02*
D03*
Y359331D02*
D03*
X-28307Y349331D02*
D03*
Y359331D02*
D03*
X-18307Y349331D02*
D03*
Y359331D02*
D03*
X-8307Y349331D02*
D03*
Y359331D02*
D03*
X1693Y349331D02*
D03*
Y359331D02*
D03*
X11693Y349331D02*
D03*
Y359331D02*
D03*
X11417Y50000D02*
D03*
Y40000D02*
D03*
X1417Y50000D02*
D03*
Y40000D02*
D03*
X-8583Y50000D02*
D03*
Y40000D02*
D03*
X-18583Y50000D02*
D03*
Y40000D02*
D03*
X-28583Y50000D02*
D03*
Y40000D02*
D03*
X-38583Y50000D02*
D03*
Y40000D02*
D03*
X-48583Y50000D02*
D03*
Y40000D02*
D03*
X-58583Y50000D02*
D03*
Y40000D02*
D03*
X-68583Y50000D02*
D03*
Y40000D02*
D03*
X-78583Y50000D02*
D03*
Y40000D02*
D03*
X-88583Y50000D02*
D03*
Y40000D02*
D03*
X-98583Y50000D02*
D03*
Y40000D02*
D03*
D43*
X-93700Y85100D02*
D03*
X-83700D02*
D03*
X-73700D02*
D03*
X-63700D02*
D03*
X-53700D02*
D03*
X-43700D02*
D03*
X-33700D02*
D03*
X-23700D02*
D03*
X-13700D02*
D03*
X-3700D02*
D03*
X6300D02*
D03*
D44*
X16300D02*
D03*
D45*
X-234134Y21850D02*
D03*
Y371850D02*
D03*
D46*
X104500Y332900D02*
D03*
X-137242Y10584D02*
D03*
X-131415Y7585D02*
D03*
X-96000Y3614D02*
D03*
X-81000Y5614D02*
D03*
X-60834Y7512D02*
D03*
X-55000Y9000D02*
D03*
X-52000Y11614D02*
D03*
X-49000Y13000D02*
D03*
X-34000Y14000D02*
D03*
X-20000Y16000D02*
D03*
X-6000Y18000D02*
D03*
D47*
X-64400Y98300D02*
D03*
X-84400D02*
D03*
X67000Y72000D02*
D03*
X79000Y160000D02*
D03*
X79150Y280130D02*
D03*
X67000Y152000D02*
D03*
Y104000D02*
D03*
X45037Y187911D02*
D03*
X45000Y68000D02*
D03*
X67213Y264000D02*
D03*
X86000Y155000D02*
D03*
X43000Y159000D02*
D03*
X67213Y232000D02*
D03*
X67000Y184000D02*
D03*
X-4400Y98300D02*
D03*
X86150Y275130D02*
D03*
X78996Y120000D02*
D03*
X79036Y199911D02*
D03*
X86224Y250351D02*
D03*
X66996Y144000D02*
D03*
X45000Y148000D02*
D03*
X-24400Y98300D02*
D03*
X66996Y112000D02*
D03*
X67150Y304130D02*
D03*
Y272130D02*
D03*
X86012Y170351D02*
D03*
X67036Y191911D02*
D03*
X86161Y290481D02*
D03*
X85996Y115000D02*
D03*
X79000Y80000D02*
D03*
X79213Y240000D02*
D03*
X43000Y79000D02*
D03*
X43150Y279130D02*
D03*
X22200Y70400D02*
D03*
X44996Y108000D02*
D03*
X67036Y223911D02*
D03*
X86036Y194911D02*
D03*
X86008Y130351D02*
D03*
X43036Y198911D02*
D03*
X45150Y268130D02*
D03*
X86048Y210262D02*
D03*
X45213Y228000D02*
D03*
X-44400Y98300D02*
D03*
X86213Y235000D02*
D03*
X86000Y75000D02*
D03*
X42996Y119000D02*
D03*
X43213Y239000D02*
D03*
X86012Y90351D02*
D03*
M02*
