M48
;Layer_Color=9474304
;FILE_FORMAT=2:5
INCH,TZ
;TYPE=PLATED
T1F00S00C0.00787
T2F00S00C0.01181
T3F00S00C0.03500
T4F00S00C0.03543
T5F00S00C0.03800
T6F00S00C0.04000
;TYPE=NON_PLATED
T7F00S00C0.11024
%
T01
X-96000Y3614
X-81000Y5614
X-60834Y7512
X-55000Y9000
X-52000Y11614
X-49000Y13000
X-34000Y14000
X-20000Y16000
X-6000Y18000
X-131415Y7585
X-137242Y10584
X104500Y332900
T02
X67000Y72000
X79000Y80000
X86000Y75000
X86012Y90351
X85996Y115000
X78996Y120000
X66996Y112000
X67000Y104000
X44996Y108000
X42996Y119000
X43000Y79000
X45000Y68000
X22200Y70400
X-4400Y98300
X-24400
X-44400
X-64400
X-84400
X45000Y148000
X43000Y159000
X45037Y187911
X43036Y198911
X45213Y228000
X43213Y239000
X45150Y268130
X43150Y279130
X67150Y272130
X67213Y264000
X79150Y280130
X86150Y275130
X86224Y250351
X86213Y235000
X79213Y240000
X67213Y232000
X67036Y223911
Y191911
X67000Y184000
X79036Y199911
X86036Y194911
X86048Y210262
X86012Y170351
X86000Y155000
X79000Y160000
X67000Y152000
X66996Y144000
X86008Y130351
X86161Y290481
X67150Y304130
T03
X169350Y70000
X185850
Y100000
X185846Y110000
X169346
X169350Y100000
X169346Y140000
X169350Y150000
X185850
X185846Y140000
X185850Y180000
X185887Y189911
X169387Y189911
X169350Y180000
X169387Y219911
X169563Y230000
X186063
X185887Y219911
X186063Y260000
X186000Y270130
X169500Y270130
X169563Y260000
X169500Y300130
X186000Y300130
T04
X-93700Y85100
X-83700
X-73700
X-63700
X-53700
X-43700
X-33700
X-23700
X-13700
X-3700
X6300
X16300
T05
X139350Y70000
Y80000
Y90000
Y100000
X139347Y110000
Y120000
X155847
Y110000
X155850Y100000
Y90000
Y80000
Y70000
X155847Y130000
Y140000
X155850Y150000
Y160000
Y170000
Y180000
X155887Y189911
Y199911
Y209911
Y219911
X156063Y230000
Y240000
Y250000
Y260000
X156000Y270130
Y280130
X139500Y280130
Y270130
X139563Y260000
Y250000
Y240000
Y230000
X139387Y219911
Y209911
Y199911
Y189911
X139350Y180000
Y170000
Y160000
Y150000
X139347Y140000
Y130000
X139500Y290130
Y300130
X156000Y300130
Y290130
T06
X58898Y36575
Y46575
X68898
Y36575
X11417Y40000
Y50000
X1417
Y40000
X-8583
Y50000
X-18583
Y40000
X-28583
Y50000
X-38583
Y40000
X-48583
Y50000
X-58583
Y40000
X-68583
Y50000
X-78583
Y40000
X-88583
Y50000
X-98583
Y40000
X59961Y351000
X69961
Y361000
X59961
X11693Y359331
X1693
X-8307
X-18307
X-28307
X-38307
X-48307
X-58307
X-68307
X-78307
X-88307
X-98307
Y349331
X-88307
X-78307
X-68307
X-58307
X-48307
X-38307
X-28307
X-18307
X-8307
X1693
X11693
T07
X-234134Y21850
Y371850
M30
